<?xml version="1.0" encoding="utf-8"?>
<!-- Generator: Adobe Illustrator 18.0.0, SVG Export Plug-In . SVG Version: 6.00 Build 0)  -->
<!DOCTYPE svg PUBLIC "-//W3C//DTD SVG 1.1//EN" "http://www.w3.org/Graphics/SVG/1.1/DTD/svg11.dtd">
<svg version="1.1" id="图层_1" xmlns="http://www.w3.org/2000/svg" xmlns:xlink="http://www.w3.org/1999/xlink" x="0px" y="0px"
	 viewBox="0 0 929 1013" enable-background="new 0 0 929 1013" xml:space="preserve">
<g>
	<path opacity="0.2" fill="#19264A" d="M102.3,960.8C47,945.6,2.8,884.4,2.8,829.3c0-215.5,0-430.9,0-646.4
		c0-55,44.2-116.3,99.5-131.5c236-61.9,484.1-61.9,720.2,0c55.3,15.2,99.5,76.5,99.5,131.5c0,215.5,0,430.9,0,646.4
		c0,55-44.2,116.3-99.5,131.5C586.4,1022.8,338.3,1022.8,102.3,960.8z"/>
	<path opacity="0.2" fill="#19264A" d="M822.4,63.3C586.4,3,338.3,3,102.3,63.3C53,76.4,13.6,130.6,13.6,180.1
		c0,217.3,0,434.7,0,652c0,49.6,39.4,103.7,88.7,116.8c236,60.3,484.1,60.3,720.2,0c49.3-13.1,88.7-67.3,88.7-116.8
		c0-217.3,0-434.6,0-652C911.1,130.6,871.7,76.4,822.4,63.3z M906.3,833.3c0,47.1-37.3,98.1-83.8,110.3
		c-236,59.6-484.1,59.6-720.2,0c-46.6-12.2-83.9-63.3-83.9-110.3c0-218.1,0-436.3,0-654.4c0-47.1,37.3-98.1,83.9-110.3
		C338.3,9,586.4,9,822.4,68.6c46.6,12.2,83.8,63.3,83.8,110.3C906.3,397.1,906.3,615.2,906.3,833.3z"/>
	<linearGradient id="SVGID_1_" gradientUnits="userSpaceOnUse" x1="457.876" y1="998.7856" x2="457.876" y2="-96.4529">
		<stop  offset="3.554770e-002" style="stop-color:#A3D4DD"/>
		<stop  offset="0.1037" style="stop-color:#94C9DD"/>
		<stop  offset="0.2329" style="stop-color:#7FB9DE"/>
		<stop  offset="0.3574" style="stop-color:#71AFDE"/>
		<stop  offset="0.4713" style="stop-color:#6DACDE"/>
		<stop  offset="0.5399" style="stop-color:#54ADD9"/>
		<stop  offset="0.6245" style="stop-color:#3EAED4"/>
		<stop  offset="0.716" style="stop-color:#2EAFD1"/>
		<stop  offset="0.8185" style="stop-color:#24B0CF"/>
		<stop  offset="0.9548" style="stop-color:#21B0CE"/>
	</linearGradient>
	<path fill="url(#SVGID_1_)" d="M97.8,941.8C52.6,930,16.3,880.5,16.3,834.7c0-218.5,0-437.1,0-655.6c0-45.8,36.2-95.3,81.4-107.1
		c236-59.2,484.1-59.2,720.2,0c45.2,11.8,81.4,61.3,81.4,107.1c0,218.5,0,437.1,0,655.6c0,45.8-36.2,95.3-81.4,107.1
		C581.9,1001,333.8,1001,97.8,941.8z"/>
	<path fill="#63C2CF" d="M826.8,74.8c41,15.5,72.6,61.5,72.6,104.3c0,218.5,0,437.1,0,655.6c0,45.8-36.2,95.3-81.4,107.1
		c-236,59.2-484.1,59.2-720.2,0c-0.9-0.2-1.7-0.5-2.6-0.7c2.9,1.1,5.8,2,8.8,2.8c236,59.2,484.1,59.2,720.2,0
		c45.2-11.8,81.4-61.3,81.4-107.1c0-218.5,0-437.1,0-655.6C905.7,136.2,870.8,87.8,826.8,74.8z"/>
	<linearGradient id="SVGID_2_" gradientUnits="userSpaceOnUse" x1="456.8529" y1="998.7878" x2="456.8529" y2="-96.4544">
		<stop  offset="3.554770e-002" style="stop-color:#A3D4DD"/>
		<stop  offset="0.1037" style="stop-color:#94C9DD"/>
		<stop  offset="0.2329" style="stop-color:#7FB9DE"/>
		<stop  offset="0.3574" style="stop-color:#71AFDE"/>
		<stop  offset="0.4713" style="stop-color:#6DACDE"/>
		<stop  offset="0.5399" style="stop-color:#54ADD9"/>
		<stop  offset="0.6245" style="stop-color:#3EAED4"/>
		<stop  offset="0.716" style="stop-color:#2EAFD1"/>
		<stop  offset="0.8185" style="stop-color:#24B0CF"/>
		<stop  offset="0.9548" style="stop-color:#21B0CE"/>
	</linearGradient>
	<path opacity="0.2" fill="url(#SVGID_2_)" d="M170.4,464.4c170-86.9,345.4-163.9,523.7-232.1c67.2-25.7,134.9-49.8,203.2-72.4
		c-8.2-39.6-40.5-77.8-79.4-87.9c-236-59.2-484.1-59.2-720.2,0c-45.2,11.8-81.4,61.3-81.4,107.1v368
		C66.9,518.1,118.6,490.9,170.4,464.4z"/>
	<linearGradient id="SVGID_3_" gradientUnits="userSpaceOnUse" x1="683.9218" y1="998.7858" x2="683.9218" y2="-96.4624">
		<stop  offset="3.554770e-002" style="stop-color:#A3D4DD"/>
		<stop  offset="0.1037" style="stop-color:#94C9DD"/>
		<stop  offset="0.2329" style="stop-color:#7FB9DE"/>
		<stop  offset="0.3574" style="stop-color:#71AFDE"/>
		<stop  offset="0.4713" style="stop-color:#6DACDE"/>
		<stop  offset="0.5399" style="stop-color:#54ADD9"/>
		<stop  offset="0.6245" style="stop-color:#3EAED4"/>
		<stop  offset="0.716" style="stop-color:#2EAFD1"/>
		<stop  offset="0.8185" style="stop-color:#24B0CF"/>
		<stop  offset="0.9548" style="stop-color:#21B0CE"/>
	</linearGradient>
	<path opacity="0.2" fill="url(#SVGID_3_)" d="M871.8,797.1C746.6,850.8,623.5,909,501.6,969.7c-11,5.5-22.1,11-33.1,16.5
		c117.5-0.8,234.9-15.6,349.5-44.4c45.2-11.8,81.4-61.3,81.4-107.1v-48.9C890.2,789.5,881,793.3,871.8,797.1z"/>
	<path opacity="0.4" fill="#FFFFFF" d="M27.5,837.5c0-218.5,0-437.1,0-655.6c0-45.8,36.2-95.3,81.5-107.1
		c236-59.2,484.1-59.2,720.2,0c2.4,0.6,4.8,1.4,7.2,2.2c-5.7-2.9-11.7-5.2-17.8-6.8C582.4,11,334.3,11,98.2,70.2
		C53,82,16.8,131.5,16.8,177.3c0,218.5,0,437.1,0,655.6c0,43.4,32.5,90,74.3,104.9C54.5,919.4,27.5,877.1,27.5,837.5z"/>
	<path fill="#FFFFFF" d="M155.4,57.1c-19.1,4-38.2,8.4-57.2,13.1C53,82,16.8,131.5,16.8,177.3v63.6c2.6-0.9,10.7-59,10.7-59
		c0-45.8,36.2-95.3,81.5-107.1C124.4,70.9,155.2,59.4,155.4,57.1z"/>
	<path fill="#FFFFFF" d="M60.2,118.7c-8.8,10.2-11.4,20.6-17.5,15.4c-6-5.2-3.8-17.7,5-27.9c8.8-10.2,20.9-14.2,26.9-9
		C80.7,102.4,69,108.5,60.2,118.7z"/>
</g>
<g>
	<path fill="#FFFFFF" d="M241.8,135.7l0.9-0.3c2,2.1,6,5.5,12,10.3c-1.1,3.6-2.9,6.6-5.1,8.8C245.8,146.5,243.2,140.2,241.8,135.7z
		 M285.3,126.8h-18.8v-0.6c11.1-1.3,23.2-3.2,36.3-5.7c0.9,0.6,3.7,2.2,8.5,4.8v0.3c-7.7,0.6-13.5,0.9-17.5,0.9v14.5h21.4v2.8h-21.4
		v3.4c-0.3,4.6-3.4,8.5-9.4,12h15.4v-2.8h8.5v32.8h-8.5v-4.6h-21.4v4.6H270v-32.8h8.5v2.8h5.1c1.1-2.1,1.7-4.2,1.7-6.3v-9.1h-20.5
		l-11.1,30.2c4.6,5.7,6.7,8.5,6.4,8.5c-1.7,2.1-4.1,4.1-7.3,6c-4.6-11.2-7.7-19.7-9.4-25.4h0.4c0.3,0.4,0.9,1.1,1.7,2.3
		c1.1,1.7,2.3,2.9,3.4,3.7l19.2-37l0.9,0.3l-3.4,8.5h19.7V126.8z M247.8,120.3l0.9-0.3c6.8,4.6,11.5,7.7,14.1,9.4
		c-0.3,0.2-0.4,0.6-0.4,1.1c-2,4.2-3.3,6.4-3.8,6.6c-1.4-1.5-4.6-6.4-9.4-14.5C248.2,121.6,247.8,120.9,247.8,120.3z M278.5,162.2
		v19.7h21.4v-19.7H278.5z"/>
	<path fill="#FFFFFF" d="M398.2,149.6h0.9c0.6,9.7,4.6,16.7,12,21.1c-2,2.5-2.6,5.7-1.7,9.7l-0.9,0.3c-3.1-2.7-5.6-5.6-7.3-8.8
		c-6.3,5.1-15.8,8.3-28.6,9.4c1.7-2.5,1.7-4.6,0-6.3c0.3,0,0.7,0.1,1.3,0.3c0.6,0.2,1.1,0.2,1.7,0c7.1-5.9,10.7-15.8,10.7-29.6
		h-11.1v-2.8h35v2.8h-15.4c0,13.7-5.7,23.6-17.1,29.6c9.1,0.4,16.8-1,23.1-4.3c-1.7-2.8-2.9-6.2-3.4-10
		C397,157.2,397.3,153.4,398.2,149.6z M407.5,124.6v2.8h-29v-2.8H407.5z M405,137.7v-2.8h11.1v-16h8.5v16h10.7v-4h8.5v47.9
		c-0.3,4.7-5,8.3-14.1,10.5c-0.9-1-1.9-1.2-3-0.9l-5.1,0.9l-1.3-0.6c10-2.5,15-5.6,15-9.4v-41.6h-10.7v16c0,9.1-1.3,15.9-3.8,20.2
		c-2.6,4.6-8,9.7-16.2,15.4H402c10.3-6.5,15-18,14.1-34.8v-16.8H405z"/>
	<path fill="#FFFFFF" d="M514.8,136h-9v-2.8h9v-13.7h8.5v13.7h8.1v2.8h-8.1v12.3h9v2.8h-9v4.3c0.3,6.1,4.1,11.2,11.5,15.4
		c-2,1.9-2.9,4.6-2.6,8c0,0.4-0.1,0.4-0.4,0c-5.4-3.4-8.7-9.3-9.8-17.7c-2,5.7-6.7,12.8-14.1,21.4c-1.4,1.7-2.7,3.4-3.8,5.1H502
		c8.5-11.4,12.8-23.5,12.8-36.5h-11.5v-2.8h11.5V136z M544.3,164.4h-8.5v-45h8.5v3.1h18.8v-3.1h8.5V157c-0.3,4.8-4,8-11.1,9.7v16
		c0,0.8,0.7,1.2,2.1,1.4h4.7c1.1-0.2,1.8-0.8,2.1-1.7l3-16.2h1.3l-0.4,10.8h2.6v6.3c-0.3,3.8-2.6,5.8-6.8,6h-7.7
		c-6.8,0.4-10-1.5-9.4-5.7V169c-3.7,4.6-12.2,10.7-25.6,18.5c-1.1,0.8-2.3,1.5-3.4,2.3h-2.6c19.7-10.8,29.3-23.6,29-38.5v-18.8h8.5
		v16.5c0,3.2-0.3,6.5-0.9,9.7c0,1,0,1.6,0,2h3.4v3.7c1.7-1.5,2.6-4,2.6-7.4v-31.6h-18.8V164.4z"/>
	<path fill="#FFFFFF" d="M642.6,173.6h-7.7V120h7.7v2.3h20.5V120h7.7v41c-0.3,5.7-3.7,10.6-10.3,14.8c4.6,3.2,9.1,4.8,13.7,4.8
		c-2.3,2.1-3,4.7-2.1,7.7l-0.4,0.3c-8.3-2.5-14-7.7-17.1-15.7c-3.7,4.8-10.3,10.4-19.7,16.8h-3.4c12.2-8.4,17.9-16.2,17.1-23.6
		v-35.3h7.7v35.3c-0.3,1.3-0.6,3-0.9,5.1v0.6l4.3,3.4c2.3-4,3.4-8.2,3.4-12.5v-37h-20.5V173.6z M684.4,175.3h-7.7v-49h7.7V175.3z
		 M691.3,180.7v-61.3h8.1v61.8c0.6,3.2-2.7,5.8-9.8,7.7c-0.3-1.3-1.6-1.6-3.8-0.9l-6.8,0.9l-0.4-0.9
		C688.1,185.8,692.4,183.3,691.3,180.7z"/>
</g>
<g>
	<rect x="104.2" y="285.9" fill="none" width="745.4" height="560.8"/>
	<path fill="#FFFFFF" d="M261.3,299.2l-11.9,0.4c-0.7,1.5-1.6,2.8-2.7,4.1c13.6,0,22.1-0.1,25.6-0.3v2.8c-4.4-0.2-9.3-0.3-14.8-0.3
		c4.3,4.1,9.9,6.7,16.9,7.9c-1.1,0.7-1.8,1.7-2.3,3.1c-7.8-2.3-13.9-6-18.1-11H245c-3.9,4.2-10.1,7.9-18.4,11.1
		c-0.7-1.3-1.7-2.2-2.8-2.8c7.3-1.7,13.1-4.5,17.5-8.3c-5.8,0-10.9,0.1-15.3,0.3v-2.8c4.5,0.2,10.3,0.3,17.5,0.3
		c1.2-1.4,2.1-2.7,2.8-4c-6.7,0.3-11.2,0.8-13.5,1.3c-0.1-1.1-0.6-2.2-1.3-3.2c1.2,0,2.2-0.3,3.2-0.7c0.9-0.4,2.8-1.7,5.5-3.7
		c2.8-2.1,4.8-3.9,6.3-5.7c1,1,1.9,1.7,2.7,1.9c0.7,0.3,1.1,0.5,1.1,0.8c0,0.3-0.3,0.4-0.9,0.5c-0.6,0.1-1.2,0.2-1.7,0.5
		c-0.5,0.2-1.4,0.8-2.6,1.8c-1.2,1-3.5,2.5-6.7,4.5l20.8-0.4c-1.8-1.4-3.9-2.8-6.3-4.1l2.5-2c4.7,3.2,8.7,6.3,11.9,9.1l-2.8,1.9
		C263.5,301.2,262.5,300.2,261.3,299.2z M262.9,316.2c0.9,1,1.7,1.7,2.6,2c0.3,0.2,0.5,0.3,0.5,0.5c0,0.2-0.2,0.3-0.7,0.4
		c-1.1,0.2-2.5,1-4.4,2.5c-5.9,4.6-15,7.8-27.4,9.7c-0.4-1.1-1.2-2.1-2.5-2.8c8.1-0.9,14.5-2.2,19.2-4
		C254.8,322.7,259.1,319.9,262.9,316.2z M257.3,312c0.8,1,1.6,1.6,2.4,1.9c0.4,0.2,0.6,0.3,0.6,0.5c0,0.2-0.3,0.3-0.9,0.3
		c-0.6,0-1.6,0.5-3,1.5c-4.4,3.1-11.2,6-20.3,8.6c-0.4-1.1-1.2-2-2.5-2.8C244.1,320.2,252,316.9,257.3,312z M251.9,307.1
		c0.5,0.9,1.3,1.5,2.4,2c0.4,0.2,0.6,0.4,0.6,0.6c0,0.2-0.3,0.3-1,0.3c-0.7,0-1.9,0.5-3.6,1.6c-2.3,1.4-4.5,2.6-6.5,3.4
		c-2,0.9-4.4,1.7-7.1,2.7c-0.5-1.1-1.3-1.9-2.5-2.4C241.6,313.9,247.5,311.2,251.9,307.1z"/>
	<path fill="#FFFFFF" d="M322.3,320c-4.8-0.3-10.7-0.4-17.6-0.4c-6.9,0-12.8,0.1-17.5,0.4v-3.2c3.4,0.3,9,0.4,16.9,0.4
		c7.9,0,14-0.2,18.1-0.5V320z M300.8,297.9c-0.2,4.1-0.3,7.1-0.4,9.1h17.9c5.8,0,10.1-0.2,13.2-0.6l-1.6,14.8
		c-0.3,2.4-0.9,4.2-1.9,5.4c-1,1.3-2.7,2.2-5,2.9c-2.3,0.7-5.7,1.3-10.3,1.8c0.1-1.5-0.7-2.8-2.4-4.1c2.3,0.2,4.1,0.2,5.5,0.2
		c3.1,0,5.5-0.5,7-1.4c1.5-0.9,2.6-2.7,3.3-5.2c0.6-2.5,1-6.3,1.2-11.4H310c-4.7,0-9.3,0.2-13.8,0.6c0.9-5.4,1.4-10.9,1.4-16.6
		c0-2.3-0.1-4.2-0.3-5.5c1.3,0.4,3,0.6,5.2,0.6c0.4,0,0.5,0.1,0.5,0.4s-0.2,0.6-0.6,0.9c-0.4,0.4-0.7,1.1-0.9,2.2
		c-0.2,1-0.4,2.2-0.5,3.5h17.1c6.7,0,12-0.2,16.1-0.5v3.3c-4.4-0.3-9.8-0.5-16.1-0.5H300.8z"/>
	<path fill="#FFFFFF" d="M383.8,317.8h-17.3c-2.8,0-5.3,0.1-7.4,0.3l5.9-23.3c-4.6,0-8.5,0.1-12,0.4V292c2.8,0.3,9.9,0.4,21.1,0.4
		c11.2,0,18.2-0.1,21-0.4v3.3c-3.2-0.3-7.9-0.4-14-0.4H368l-1.7,6.9h18.9c1.6,0,3-0.1,4-0.2c-0.4,1.4-0.7,3.4-1,6.1l-2.1,17.1
		c4,0,8-0.1,11.9-0.4v3.4c-3.2-0.3-11.2-0.4-23.9-0.4c-12.8,0-20.7,0.1-23.9,0.4v-3.4c4.6,0.3,9.1,0.4,13.4,0.4h19.5L383.8,317.8z
		 M365.7,304.2l-2.7,11.2h21.1l1.4-11.2H365.7z"/>
	<path fill="#FFFFFF" d="M420.5,306.4c-3.6,0-6.6,0.1-9,0.4v-3.1c2.4,0.3,6.5,0.4,12.2,0.4c5.7,0,9.8-0.1,12.2-0.4v3.1
		c-2.4-0.3-6.3-0.4-11.8-0.4c-1.9,4.6-4.2,9.5-7.1,14.8l14.6-1.7c-1.5-2.7-3.3-5.4-5.5-8.1l2.7-1.6c3.2,4.4,6,8.9,8.4,13.7L434,325
		c-0.3-1-0.7-2.1-1.3-3.3l-9.2,1.2c-4.5,0.6-7.9,1.2-10.4,2c-0.3-1.4-0.8-2.5-1.7-3.4c1-0.1,1.9-0.6,2.8-1.5c0.8-0.9,2-3.1,3.5-6.5
		C419.2,310.2,420.1,307.8,420.5,306.4z M434.4,296.1c-2.5-0.3-5.9-0.4-10.1-0.4c-4.2,0-7.6,0.1-10.1,0.4v-3.1
		c2.5,0.3,5.9,0.4,10.1,0.4c4.2,0,7.6-0.1,10.1-0.4V296.1z M447.8,300.5c-0.1,8.3-1,14.7-2.7,19.1c-1.7,4.5-4.8,8.5-9.4,12
		c-0.9-0.8-2.1-1.5-3.6-2.1c3.4-2,6-4.3,7.7-6.7c1.8-2.4,3-5.4,3.7-8.8c0.7-3.4,1-7.9,1.1-13.5c-3.7,0-6.7,0.1-9.1,0.4v-3.3
		c2.2,0.3,5.2,0.4,9.1,0.4c0-6-0.1-9.3-0.3-10c1.2,0.3,2.7,0.4,4.3,0.4c0.6,0,0.9,0.2,0.9,0.5c0,0.3-0.2,0.5-0.6,0.8
		c-0.4,0.3-0.7,0.9-0.8,1.9c-0.1,1-0.2,3.1-0.3,6.4c5.1,0,8.9-0.1,11.2-0.4l-0.8,26c-0.1,1.8-0.3,3.1-0.8,4
		c-0.5,0.9-1.4,1.5-2.8,1.9c-1.4,0.4-3.6,0.8-6.8,1.1c-0.2-1.5-0.8-2.8-1.8-3.9c2,0.2,3.7,0.3,5,0.3c1.3,0,2.2-0.2,2.8-0.6
		c0.6-0.4,1-1.5,1-3.2l0.8-22.6H447.8z"/>
	<path fill="#FFFFFF" d="M483.9,307v24.5h-3.6c0.3-2.2,0.4-4.7,0.4-7.4v-13.8c-1.4,1.3-3.3,2.8-5.5,4.5c-0.5-0.9-1.4-1.7-2.7-2.3
		c5.6-3.1,10.1-7.4,13.4-12.9c1.1,0.9,2,1.5,2.8,1.7c0.7,0.2,1.1,0.4,1.1,0.6c0,0.2-0.3,0.4-0.9,0.6
		C488.3,302.7,486.6,304.2,483.9,307z M485.5,288.2c0.9,1,1.8,1.6,2.7,1.9c0.8,0.3,1.2,0.5,1.2,0.7c0,0.2-0.3,0.4-0.9,0.5
		c-0.6,0.1-2.1,1.3-4.5,3.6c-2.4,2.3-4.9,4.3-7.5,6.1c-0.7-1-1.6-1.8-2.8-2.4C479,296,482.9,292.5,485.5,288.2z M514.7,311v4
		c4.2,0,7.2-0.1,9.2-0.3v2.9c-2.8-0.2-5.9-0.3-9.2-0.3v8.8c0,1.2-0.2,2.2-0.6,2.8c-0.4,0.6-1.2,1.1-2.5,1.5
		c-1.2,0.4-3.2,0.7-5.9,0.9c-0.1-1.4-0.8-2.7-2-3.8c1.9,0.2,3.3,0.3,4.4,0.3c1.1,0,1.9-0.1,2.4-0.4c0.5-0.3,0.8-0.9,0.8-1.9v-8.3
		h-15.7c-3.5,0-6.4,0.1-8.7,0.2v-2.9c1.9,0.2,4.8,0.3,8.7,0.3h15.7v-4h-13.2c-3.5,0-6.4,0.1-8.7,0.2v-2.8c1.9,0.2,4.8,0.3,8.7,0.3
		h14.4c3.8,0,6.7-0.1,8.7-0.3v2.8C519.3,311.1,517.1,311,514.7,311z M503.1,323.7l-2.6,2.3c-2.8-2.4-5.7-4.4-8.7-5.7l2.1-2.2
		C497.1,319.7,500.2,321.6,503.1,323.7z M518.5,305.8c-2.6-0.3-7-0.4-13-0.4s-10.4,0.1-13.1,0.4c0.3-1.1,0.4-2.3,0.4-3.7v-8.5
		c0-1.1-0.1-2.3-0.4-3.7c3.3,0.3,7.6,0.4,13,0.4c5.4,0,9.7-0.1,13.1-0.4c-0.2,1-0.3,2.2-0.3,3.7v8.5
		C518.2,303.6,518.3,304.8,518.5,305.8z M496.1,296.9h19v-4.2h-19V296.9z M515,299.1h-19v4.2h19V299.1z"/>
	<path fill="#FFFFFF" d="M560.6,307.9c-1.2,4.7-3.5,8.7-6.7,12.1c-3.2,3.3-8.2,6.5-14.9,9.6c-1-1.2-2.2-2.1-3.5-2.7
		c13.8-5,21.5-12.8,22.8-23.4c-8,0-14.6,0.2-20,0.5v-3.5c6.1,0.3,12.8,0.4,20.2,0.4c0-1.9,0.1-4.1,0.1-6.8c0-2.7,0-4.6-0.1-5.7
		c1.1,0.3,2.1,0.5,3.1,0.5l1.4,0c0.5,0,0.8,0.1,0.8,0.4c0,0.3-0.2,0.5-0.5,0.7c-0.3,0.2-0.6,0.5-0.8,0.9c-0.2,0.4-0.3,0.8-0.3,1
		c0,0.3,0,1.3,0,3.2c0,1.9-0.1,3.8-0.3,5.9c9.4,0,16.7-0.1,21.9-0.4v3.5c-5.8-0.3-13.1-0.5-21.9-0.5c1.7,5,4.6,9.5,8.6,13.4
		c4,3.9,8.9,7,14.7,9.3c-1.5,0.7-2.7,1.9-3.6,3.4C571.9,324.5,564.9,317.2,560.6,307.9z"/>
	<path fill="#FFFFFF" d="M620.5,320.8c-0.1,0.6-0.2,1.1-0.2,1.5c0,0.4,0,0.9,0.1,1.4c-11.1,2.1-17.7,3.6-19.9,4.6
		c-0.1-1.3-0.7-2.5-1.6-3.6C602.8,324.6,610.1,323.3,620.5,320.8z M610.7,305.4l-6.3,0.6c-1.5,0.1-2.8,0.4-3.7,0.8
		c-0.4-1.2-1-2.2-1.8-2.9c1.3-0.4,3-2,5.1-4.8c2-2.8,3.9-6.2,5.5-10.2c1.3,0.7,2.5,1.2,3.8,1.5c0.6,0.1,0.9,0.3,0.9,0.5
		c0,0.2-0.3,0.5-0.8,0.7c-0.6,0.3-3.8,4.4-9.6,12.1l8.7-0.5c1.7-2.2,2.9-4.3,3.4-6.3c1.3,0.9,2.4,1.4,3.2,1.6
		c0.8,0.2,1.2,0.4,1.2,0.7c0,0.3-0.2,0.5-0.7,0.7c-0.5,0.2-1,0.6-1.7,1.3c-0.7,0.7-2.2,2.4-4.5,5.1l-7.8,9.1
		c4.7-0.5,9.1-1.1,13.3-1.8c0,0.8,0.1,1.7,0.4,2.6l-13.1,1.7c-2.4,0.3-4.2,0.7-5.4,1.1c-0.3-1.4-0.7-2.4-1.3-3
		C601.5,315.5,605.2,312,610.7,305.4z M634.2,296.2v29.5c6.8,0,11.2-0.1,13.4-0.4v3.2c-2.2-0.3-7.1-0.4-14.6-0.4
		c-7.5,0-12.5,0.1-14.9,0.4v-3.2c2.3,0.2,6.5,0.3,12.7,0.4v-29.5c-5.2,0-8.9,0.1-11.1,0.4v-3.2c2.5,0.3,6.8,0.4,13,0.4
		c6.1,0,10.4-0.1,12.9-0.4v3.2C643.3,296.3,639.5,296.2,634.2,296.2z"/>
	<path fill="#FFFFFF" d="M673.7,296.8c-1.4,1.8-2.9,3.6-4.5,5.3c2.8,0.2,6.8,0.2,11.9,0.2c5.1,0,8.9-0.1,11.4-0.2
		c-0.3,1.4-0.5,2.9-0.5,4.7v4.5c0,1.6,0.2,3.2,0.6,4.7c-1.9-0.2-4.1-0.2-6.5-0.2h-13.4v7.8c0,0.8,0.2,1.4,0.6,1.8
		c0.4,0.4,1,0.7,2,0.9c0.9,0.2,2.8,0.3,5.7,0.4c2.9,0.1,6.3,0.1,10.3,0.1c4,0,7-0.1,8.9-0.4s3.3-0.8,4-1.5s1.3-2.1,1.6-4
		c0.9,0.8,2.2,1.3,3.8,1.8c-0.9,2.4-1.9,4-2.9,4.9c-1,0.9-2.6,1.4-4.8,1.7c-2.2,0.2-5.6,0.4-10.2,0.4s-8.4,0-11.5-0.1
		c-3.1-0.1-5.1-0.2-6.1-0.4c-1-0.2-1.9-0.4-2.6-0.8c-0.7-0.4-1.2-0.9-1.5-1.5c-0.3-0.7-0.5-1.6-0.5-2.8v-17.1c0-1.4-0.1-2.9-0.3-4.5
		c-1.9,2.1-3.7,3.9-5.6,5.4c-0.9-1-2.1-1.7-3.4-2.2c4-2.7,7.3-5.5,9.9-8.6c2.6-3.1,4.4-6,5.3-8.8c1.2,0.7,2.5,1.2,3.9,1.4
		c0.5,0.1,0.8,0.2,0.8,0.5c0,0.3-0.2,0.5-0.7,0.6c-0.4,0.2-0.8,0.4-1.2,0.8c-0.4,0.4-1.1,1.3-2.3,2.8h19.5c4.6,0,7.7-0.1,9.5-0.4
		c-0.2,1.2-0.3,3.5-0.4,6.8c0,3.3-0.1,6.5-0.2,9.4c-0.1,3-0.3,5-0.5,6.1s-0.7,2-1.3,2.7c-0.7,0.7-1.7,1.3-3,1.7
		c-1.4,0.4-3.4,0.8-6,1.2c-0.1-1.2-0.7-2.4-1.8-3.6c2.4,0,4.1,0,5.2-0.2c1.1-0.1,1.9-0.4,2.4-0.8c0.5-0.4,0.9-1,1.1-1.9
		c0.2-0.8,0.4-2.5,0.6-5.2c0.2-2.6,0.3-5.1,0.3-7.4c0-2.3,0-4.3-0.1-6.1H673.7z M688.8,313.5v-8.7h-16.1v8.7H688.8z"/>
	<path fill="#FFFFFF" d="M736.8,323.5c0,4.1-1.9,6.6-5.7,7.5v-2.1c1.2-0.3,2-0.8,2.5-1.5c0.5-0.7,0.7-1.9,0.7-3.5h-3.2v-5h5.7V323.5
		z"/>
	<path fill="#FFFFFF" d="M802.1,296.9c-6.3,0.1-11.1,0.2-14.3,0.4v-3.2c3.6,0.2,8.7,0.4,15.3,0.5c0.9-2.2,1.6-4.5,2-7.1
		c1,0.5,1.8,0.9,2.3,1c0.5,0.1,1.1,0.2,1.7,0.2c0.6,0,1,0.2,1,0.5c0,0.3-0.3,0.6-0.8,0.8c-0.7,0.4-1.7,1.9-2.9,4.6h16.7
		c2.5,0,5.6-0.2,9.2-0.5v3.2c-4.5-0.3-7.6-0.4-9.2-0.4h-17.8c-1.9,3.9-4,7.2-6.6,10v14.8c0,2.7,0.1,5.7,0.3,9.2h-3.9
		c0.2-4.1,0.3-7.2,0.3-9.2v-11.5c-2,1.9-4.7,4.1-8.2,6.6c-0.4-1.5-1.5-2.5-3.3-2.8C792.7,309.5,798.7,303.8,802.1,296.9z M818,309.7
		c5,0,8.9-0.2,11.6-0.5v3.2c-2.9-0.3-6.8-0.4-11.6-0.4v13c7.1,0,12.5-0.2,16.2-0.5v3.2c-4-0.3-9.7-0.4-16.9-0.4s-12.8,0.1-16.8,0.4
		v-3.2c3.4,0.3,8.1,0.4,14.1,0.5v-13c-4.2,0-8,0.2-11.5,0.6v-3.4c2.9,0.3,6.7,0.4,11.5,0.5c0-3.9-0.2-6.8-0.5-8.9
		c0.6,0.2,1.2,0.3,1.8,0.3c0.6,0.1,1.1,0.1,1.5,0.1l1.1,0c0.5,0,0.8,0.2,0.8,0.6c0,0.3-0.2,0.5-0.7,0.8c-0.4,0.2-0.7,1.1-0.7,2.6
		V309.7z"/>
	<path fill="#FFFFFF" d="M119,372.3c0,2.2,0,4.9-0.2,8c4.3-0.1,7.4-0.2,9.4-0.4v3c-1.6-0.2-4.8-0.3-9.6-0.3c0,1.3-0.1,2.5-0.3,3.6
		c4.2,3.1,7.6,5.7,10.3,7.9l-3,2.3c-2.2-2.4-4.7-5-7.7-7.6c-0.5,2.7-1.3,5-2.4,7.1c-1.1,2.1-3,4.5-5.8,7.1c-0.9-1-2-1.6-3.3-1.8
		c3.3-2.7,5.5-5.4,6.8-8.1c1.3-2.7,2-6.2,2.3-10.5c-4.4,0.1-7.5,0.2-9.3,0.3v-3c1.7,0.2,4.8,0.3,9.5,0.4c0.1-2.8,0.1-5.4,0.1-8
		c-3.2,0-5.7,0.1-7.5,0.3v-3c1.6,0.2,4.1,0.3,7.5,0.4c-0.1-4.7-0.3-7.6-0.7-8.8c1.5,0.5,3,0.7,4.6,0.7c0.5,0,0.8,0.1,0.8,0.4
		c0,0.2-0.2,0.5-0.6,0.7c-0.4,0.2-0.7,0.9-0.8,2c-0.1,1.1-0.2,2.8-0.2,5c3.4,0,6-0.1,7.8-0.4v3C124.7,372.4,122.1,372.3,119,372.3z
		 M138.4,371.5c1.2,0.3,2.7,0.4,4.6,0.4c0.3,0,0.4,0.1,0.4,0.3c0,0.2-0.1,0.3-0.3,0.5c-0.7,0.5-1.2,3.7-1.6,9.6
		c-0.2,3.5-0.8,6.5-1.8,8.9c-1,2.4-2.6,4.6-4.9,6.6c-2.3,2-5.7,4-10,6.1c-0.6-1.3-1.6-2.2-3-2.8c6.9-2.2,11.5-5.1,13.7-8.5
		c2.2-3.4,3.3-8.8,3.3-16C138.9,374.2,138.7,372.5,138.4,371.5z M151.9,367.9v12.3c0,3,0.2,5.5,0.5,7.5h-3.8v-20.9h-15.4v21.1h-3.7
		c0.3-2.4,0.5-4.9,0.5-7.5v-12.5c0-1.8-0.1-3.1-0.2-3.9c1.6,0.2,5.4,0.3,11.3,0.3s9.6-0.1,11.1-0.3
		C152,365.3,151.9,366.6,151.9,367.9z M157.8,396.5c-0.9,2.8-1.9,4.5-3,5.4c-1,0.8-2.8,1.2-5.4,1.2c-2.6,0-4.4-0.1-5.3-0.4
		c-0.9-0.2-1.6-0.7-1.9-1.4c-0.3-0.7-0.4-1.8-0.4-3.5v-8.5c0-1.1-0.1-2.5-0.4-4.2c1.3,0.4,2.6,0.6,3.8,0.7c0.4,0,0.7,0.1,0.7,0.2
		c0,0.1-0.1,0.3-0.4,0.5c-0.3,0.2-0.4,0.6-0.4,1.1v10.4c0,0.6,0.1,1.1,0.2,1.4c0.1,0.3,0.5,0.5,1,0.6c0.5,0.1,1.6,0.2,3.3,0.2
		c1.6,0,2.8-0.4,3.5-1.1c0.7-0.7,1.1-2.2,1-4.4C155.5,395.9,156.7,396.5,157.8,396.5z"/>
	<path fill="#FFFFFF" d="M192.7,378.9c-6.1,0-10.9,0.1-14.4,0.3v-3c3.7,0.2,9,0.3,15.9,0.3c6.9,0,12.2-0.1,15.9-0.3v3
		c-3.5-0.2-8.2-0.3-14.1-0.3v8c9.4,0,15.4-0.1,18-0.3v2.9c-2-0.2-8-0.3-18-0.3v9.5c2.7,0.3,5.6,0.5,8.7,0.5c3.2,0,7.8-0.2,14.1-0.6
		c-0.7,1.2-1.1,2.4-1.2,3.6c-2.4,0-4.6,0-6.5,0c-6.7,0-11.8-0.2-15.3-0.6c-3.5-0.4-6.5-1.2-8.9-2.3c-2.4-1.1-4.7-2.8-6.7-5
		c-2.2,3.7-4.9,6.9-8.3,9.5c-0.8-0.9-1.9-1.7-3.5-2.2c7.3-4.2,11.3-10.2,12-17.9c1.3,0.4,2.5,0.7,3.4,0.8c1,0.1,1.5,0.2,1.5,0.4
		s-0.2,0.4-0.6,0.6c-0.8,0.4-1.6,1.6-2.3,3.6c-0.3,0.9-0.6,1.7-1,2.5c2.8,3.4,6.5,5.6,11.2,6.5V378.9z M196.5,367
		c9.4,0,15.8-0.2,19.1-0.4v9.6h-3.3v-6.8h-37.1v6.9H172v-9.8c3.2,0.3,10.1,0.4,20.8,0.4c-1-1.7-2.4-3.3-4.2-4.8l3.7-1.6
		C193.8,362.1,195.2,364.2,196.5,367z"/>
	<path fill="#FFFFFF" d="M239.7,370.2c1.2-3.3,1.9-6.4,2.1-9.3c1.4,0.4,2.9,0.7,4.3,1c0.4,0.1,0.6,0.2,0.6,0.4
		c0,0.2-0.1,0.4-0.4,0.7c-1,0.9-2.1,3.3-3.5,7.2c4,0,7.3-0.1,10.1-0.4c-0.3,1.2-0.4,2.7-0.4,4.3v22.7c0,2.6,0.1,4.9,0.4,6.9h-3.7
		v-4.4h-11.6v4.7h-3.8c0.3-2.4,0.4-4.7,0.4-6.9v-23.1c0-1.5-0.1-2.9-0.4-4.3C235.4,370.1,237.3,370.2,239.7,370.2z M237.6,383.8
		h11.6v-11.1h-11.6V383.8z M249.2,386.1h-11.6v11h11.6V386.1z M261.9,372c-1.6,3.4-3.4,6.3-5.1,8.8c-1.1-0.6-2.2-1.1-3.4-1.4
		c2.4-3,4.1-5.8,5.2-8.5c1.1-2.7,2.1-5.9,3-9.7c1.4,0.6,2.8,1,4,1.1c0.5,0.1,0.8,0.2,0.8,0.4c0,0.2-0.2,0.5-0.7,0.8
		s-1.4,2.3-2.7,5.8h8.7c2.1,0,4.1-0.1,6.1-0.4c-0.2,1.4-0.3,3-0.4,4.7l-0.5,24.2c0,2.2-1.1,3.8-3.1,4.5c-2,0.8-5,1.1-8.9,1.1
		c-0.1-1.2-0.7-2.4-1.6-3.7c1.6,0.1,3.1,0.1,4.5,0.1s2.6-0.2,3.4-0.5c0.9-0.3,1.4-0.9,1.7-1.7c0.3-0.8,0.4-2.2,0.5-4l0.3-21.8H261.9
		z M268.7,390.2l-3.1,1.6c-2.2-4.5-4.2-8.1-6.2-10.6l3-1.8C264.6,382.3,266.6,385.9,268.7,390.2z"/>
	<path fill="#FFFFFF" d="M299.4,394.7v5.6h-3.7c0.3-1.8,0.4-4.1,0.4-6.8v-23.7c0-2.5-0.1-4.3-0.3-5.3c1.2,0.3,4.1,0.4,8.9,0.4
		c4.8,0,7.8-0.1,8.9-0.4c-0.2,0.8-0.3,2.6-0.3,5.3v23c0,2,0.1,4.1,0.4,6.3h-3.8v-4.4H299.4z M309.9,379v-11.6h-10.5V379H309.9z
		 M309.9,392.5v-11.3h-10.5v11.3H309.9z M331.9,372.4c0-6.2-0.2-10.1-0.6-11.8c0.9,0.2,2.4,0.3,4.3,0.3c0.6,0,0.9,0.1,0.9,0.4
		c0,0.3-0.2,0.5-0.6,0.7c-0.4,0.2-0.6,0.8-0.6,1.9v8.5c3.1,0,5.8-0.2,8.4-0.4v3.2c-2-0.2-4.8-0.3-8.4-0.3v23.6
		c0,1.5-0.3,2.6-0.8,3.4c-0.5,0.8-1.6,1.4-3.3,1.8c-1.6,0.4-4.2,0.6-7.5,0.6c0-1.5-0.7-2.8-2-4c2.4,0.3,4.4,0.5,5.9,0.5
		s2.6-0.3,3.3-0.8c0.7-0.5,1.1-1.5,1.1-3.1v-22h-7c-4,0-7.4,0.1-10.3,0.4V372c2.9,0.3,6.3,0.4,10.3,0.4H331.9z M328.4,388.7
		l-3.2,1.8c-1.8-3.3-4.4-6.4-7.7-9.4l2.8-1.6C323.7,382.9,326.4,386,328.4,388.7z"/>
	<path fill="#FFFFFF" d="M359.9,369.1c0.9,0.3,1.5,0.5,1.9,0.5c0.3,0,0.9,0.1,1.8,0.1c0.9,0,1.3,0.1,1.3,0.4s-0.3,0.5-0.8,0.9
		c-0.1,0.1-0.3,0.5-0.4,1.1c-0.1,0.6-0.2,1.3-0.2,2v30.3h-3.7c0.4-2.8,0.5-5,0.5-6.6v-22.7C360.2,373.1,360.1,371.1,359.9,369.1z
		 M372,367l-2.7,2.3c-1.7-2.2-4.3-4.4-7.8-6.5l2.1-2.1C367,362.8,369.8,364.9,372,367z M391,395.4c-2-0.2-5.6-0.3-10.7-0.3
		c-5.1,0-8.7,0.1-10.6,0.3c0.1-1.4,0.2-2.4,0.2-2.9V377c0-0.9-0.1-1.9-0.2-2.9c1.9,0.2,5.5,0.3,10.6,0.3s8.7-0.1,10.7-0.3
		c-0.1,0.8-0.2,1.8-0.2,2.9v15.5C390.8,393.6,390.9,394.6,391,395.4z M387.6,383.7v-7.1h-14.8v7.1H387.6z M372.9,386v7h14.8v-7
		H372.9z M401.5,364.5c-0.3,1.1-0.4,2.9-0.4,5.4v29c0,1.6-0.2,2.8-0.6,3.5c-0.4,0.7-1.2,1.3-2.3,1.5c-1.1,0.3-2.9,0.4-5.3,0.5
		c0.1-1.3-0.4-2.5-1.5-3.6c1.7,0.3,3,0.4,3.9,0.4c0.9,0,1.6-0.1,2-0.4c0.4-0.3,0.6-0.9,0.6-1.8v-31.7h-10.4c-3.9,0-7.3,0.1-10.1,0.3
		v-3c2.7,0.2,6.9,0.3,12.5,0.3C395.5,364.9,399.4,364.8,401.5,364.5z"/>
	<path fill="#FFFFFF" d="M442.1,370.6h-15.4v21.2c0,5,0,9,0.1,11.9h-4.2c0.4-3.6,0.7-7.4,0.7-11.2v-24.6c4.9,0.2,11.2,0.3,19,0.3
		c0-2.6-0.1-5.1-0.3-7.4c1.1,0.2,2,0.3,2.8,0.3l1.4-0.1c0.4,0,0.6,0.1,0.6,0.4c0,0.2-0.2,0.5-0.5,0.6c-0.2,0.2-0.4,0.6-0.5,1.3
		c-0.1,0.7-0.2,2.3-0.4,4.9c7.3,0,13.6-0.1,19-0.3c-0.3,1.8-0.4,5.2-0.4,10.1v19.2c0,1.5-0.3,2.7-0.8,3.4c-0.5,0.7-1.7,1.3-3.4,1.7
		c-1.7,0.4-4.5,0.5-8.2,0.5c0.2-1.3-0.2-2.5-1.2-3.4c1.7,0.1,3.2,0.1,4.7,0.1c1.5,0,2.7-0.2,3.8-0.5c1.1-0.3,1.6-1.1,1.6-2.4v-26
		h-15.1c-0.1,2.1-0.4,4.2-0.9,6.2c4.8,3.9,9.6,8.5,14.4,13.6l-3.3,2c-3.6-4.7-7.5-9-11.9-13.2c-1.9,5-6.1,10.1-12.7,15.4
		c-0.8-1.1-2-1.9-3.5-2.2C436.8,387.2,441.7,379.9,442.1,370.6z"/>
	<path fill="#FFFFFF" d="M497.1,368.1c-3,2.2-6.4,4.2-10.2,6.1c-0.5-0.8-1.4-1.6-2.8-2.2c3.7-1.3,7-2.9,9.9-4.9c2.9-2,5-4.1,6.3-6.2
		c1.1,0.8,2.2,1.4,3.3,1.7c0.4,0.1,0.6,0.3,0.6,0.5c0,0.2-0.2,0.4-0.6,0.5c-0.8,0.2-2,0.9-3.7,2.2h10.7c5.5,0,9.4-0.1,11.7-0.4
		c-4.6,5.1-9.3,9.1-14.2,12.1c-4.8,2.9-12.3,5.6-22.3,8c-0.4-1.2-1.3-2.2-2.6-3.1c6.6-0.6,12.9-2.2,18.7-4.7
		c-2.2-1.8-4.5-3.3-6.8-4.6l2.7-2.1c2.7,1.8,5,3.6,6.8,5.4c4.8-2.6,8.4-5.3,10.9-8.2H497.1z M508.6,384.4c-4.3,3.2-10.1,6.2-17.3,9
		c-0.7-1.1-1.7-2-3.2-2.7c5-1.1,9.8-3,14.5-5.7s8.3-5.7,10.8-8.9c1,0.9,2,1.5,3.2,1.9c0.4,0.2,0.7,0.4,0.7,0.6s-0.3,0.4-0.9,0.5
		c-1,0.2-2.6,1.2-4.8,2.9h5c4.9,0,8.8-0.1,11.8-0.3c-1.8,3.4-4.2,6.5-7,9.4c-2.9,2.9-5.9,5.2-9,6.8c-3.2,1.6-6.5,2.8-10,3.8
		c-3.5,0.9-8.8,1.8-15.8,2.5c-0.5-1.3-1.6-2.5-3.2-3.7c6.5,0,11.7-0.4,15.4-1.1c3.8-0.7,7.3-1.8,10.5-3.3c-1.6-1.9-3.6-3.7-6.2-5.3
		l2.8-2.2c2.2,1.7,4.2,3.8,6.1,6.1c2.1-1.2,4.2-2.8,6.3-4.8c2.1-2,3.7-3.9,4.8-5.6H508.6z"/>
	<path fill="#FFFFFF" d="M553.1,394.6c-1.9,3.5-4.1,6.6-6.7,9.2l-3.1-1.8c1.3-0.9,2.5-2.1,3.8-3.8c1.3-1.7,2.2-3.4,2.8-5.1
		L553.1,394.6z M566.7,369.5v5.5c9.8,0,15.5-0.1,17.1-0.4c-0.3,2.1-0.4,4.1-0.4,5.8v4.4c0,2.5,0.2,4.5,0.5,6.1h-4.2v-1.9h-26.3v2.5
		h-4.2c0.4-1.5,0.5-3.4,0.5-5.6v-5.5c0-3-0.1-4.9-0.4-5.8c2.3,0.3,6.9,0.4,13.7,0.4v-6.9c0-3.3-0.2-5.6-0.5-7.1
		c1.1,0.2,1.9,0.3,2.6,0.3c0.6,0,1.4,0,2.3-0.1c0.4,0,0.6,0.2,0.6,0.5c0,0.3-0.2,0.6-0.6,0.8c-0.4,0.2-0.6,1.1-0.6,2.7v1.9h11.5
		c4.3,0,7.8-0.1,10.5-0.4v3.3c-2.1-0.3-5.6-0.4-10.5-0.4H566.7z M579.7,386.6v-9.2h-26.3v9.2H579.7z M564.6,402.4l-3.6,1
		c-0.7-3.2-1.8-6-3.2-8.6l3-1.1C562.8,397.5,564.1,400.4,564.6,402.4z M577.3,401.5l-3.1,1.2c-1.3-2.9-3.1-5.6-5.4-8.2l2.7-1.7
		C573.8,395.6,575.7,398.5,577.3,401.5z M591.2,400.8l-3.1,1.9c-1.4-2.5-3.9-5.5-7.5-8.8l2.5-1.9
		C586.5,395.2,589.2,398.1,591.2,400.8z"/>
	<path fill="#FFFFFF" d="M621.7,368.1c-3,2.2-6.4,4.2-10.2,6.1c-0.5-0.8-1.4-1.6-2.8-2.2c3.7-1.3,7-2.9,9.9-4.9c2.9-2,5-4.1,6.3-6.2
		c1.1,0.8,2.2,1.4,3.3,1.7c0.4,0.1,0.6,0.3,0.6,0.5c0,0.2-0.2,0.4-0.6,0.5c-0.8,0.2-2,0.9-3.7,2.2h10.7c5.5,0,9.4-0.1,11.7-0.4
		c-4.6,5.1-9.3,9.1-14.2,12.1c-4.8,2.9-12.3,5.6-22.3,8c-0.4-1.2-1.3-2.2-2.6-3.1c6.6-0.6,12.9-2.2,18.7-4.7
		c-2.2-1.8-4.5-3.3-6.8-4.6l2.7-2.1c2.7,1.8,5,3.6,6.8,5.4c4.8-2.6,8.4-5.3,10.9-8.2H621.7z M633.3,384.4c-4.3,3.2-10.1,6.2-17.3,9
		c-0.7-1.1-1.7-2-3.2-2.7c5-1.1,9.8-3,14.5-5.7s8.3-5.7,10.8-8.9c1,0.9,2,1.5,3.2,1.9c0.4,0.2,0.7,0.4,0.7,0.6s-0.3,0.4-0.9,0.5
		c-1,0.2-2.6,1.2-4.8,2.9h5c4.9,0,8.8-0.1,11.8-0.3c-1.8,3.4-4.2,6.5-7,9.4c-2.9,2.9-5.9,5.2-9,6.8c-3.2,1.6-6.5,2.8-10,3.8
		c-3.5,0.9-8.8,1.8-15.8,2.5c-0.5-1.3-1.6-2.5-3.2-3.7c6.5,0,11.7-0.4,15.4-1.1c3.8-0.7,7.3-1.8,10.5-3.3c-1.6-1.9-3.6-3.7-6.2-5.3
		l2.8-2.2c2.2,1.7,4.2,3.8,6.1,6.1c2.1-1.2,4.2-2.8,6.3-4.8c2.1-2,3.7-3.9,4.8-5.6H633.3z"/>
	<path fill="#FFFFFF" d="M678,379.8v24.5h-3.6c0.3-2.2,0.4-4.7,0.4-7.4v-13.8c-1.4,1.3-3.3,2.8-5.5,4.5c-0.5-0.9-1.4-1.7-2.7-2.3
		c5.6-3.1,10.1-7.4,13.4-12.9c1.1,0.9,2,1.5,2.8,1.7c0.7,0.2,1.1,0.4,1.1,0.6c0,0.2-0.3,0.4-0.9,0.6
		C682.3,375.5,680.7,377,678,379.8z M679.5,361c0.9,1,1.8,1.6,2.7,1.9c0.8,0.3,1.2,0.5,1.2,0.7c0,0.2-0.3,0.4-0.9,0.5
		c-0.6,0.1-2.1,1.3-4.5,3.6c-2.4,2.3-4.9,4.3-7.5,6.1c-0.7-1-1.6-1.8-2.8-2.4C673,368.8,677,365.3,679.5,361z M708.7,383.8v4
		c4.2,0,7.2-0.1,9.2-0.3v2.9c-2.8-0.2-5.9-0.3-9.2-0.3v8.8c0,1.2-0.2,2.2-0.6,2.8c-0.4,0.6-1.2,1.1-2.5,1.5
		c-1.2,0.4-3.2,0.7-5.9,0.9c-0.1-1.4-0.8-2.7-2-3.8c1.9,0.2,3.3,0.3,4.4,0.3c1.1,0,1.9-0.1,2.4-0.4c0.5-0.3,0.8-0.9,0.8-1.9v-8.3
		h-15.7c-3.5,0-6.4,0.1-8.7,0.2v-2.9c1.9,0.2,4.8,0.3,8.7,0.3h15.7v-4h-13.2c-3.5,0-6.4,0.1-8.7,0.2v-2.8c1.9,0.2,4.8,0.3,8.7,0.3
		h14.4c3.8,0,6.7-0.1,8.7-0.3v2.8C713.3,383.9,711.1,383.8,708.7,383.8z M697.1,396.5l-2.6,2.3c-2.8-2.4-5.7-4.4-8.7-5.7l2.1-2.2
		C691.1,392.5,694.2,394.4,697.1,396.5z M712.5,378.6c-2.6-0.3-7-0.4-13-0.4s-10.4,0.1-13.1,0.4c0.3-1.1,0.4-2.3,0.4-3.7v-8.5
		c0-1.1-0.1-2.3-0.4-3.7c3.3,0.3,7.6,0.4,13,0.4c5.4,0,9.7-0.1,13.1-0.4c-0.2,1-0.3,2.2-0.3,3.7v8.5
		C712.2,376.4,712.3,377.7,712.5,378.6z M690.1,369.7h19v-4.2h-19V369.7z M709.1,371.9h-19v4.2h19V371.9z"/>
	<path fill="#FFFFFF" d="M743.9,396.3c0,4.1-1.9,6.6-5.7,7.5v-2.1c1.2-0.3,2-0.8,2.5-1.5c0.5-0.7,0.7-1.9,0.7-3.5h-3.2v-5h5.7V396.3
		z"/>
	<path fill="#FFFFFF" d="M815.8,378.4c-4.4,0-8,0.1-10.7,0.2v-2.3c-3,1.8-6.4,3.6-10.5,5.5c-0.5-1.3-1.5-2.2-3-2.8
		c7.7-2.4,13.7-5.6,17.9-9.4c4.3-3.8,6.7-7.1,7.3-9.8c1.2,1,2.4,1.7,3.6,1.9c0.4,0,0.5,0.2,0.5,0.4c0,0.2-0.2,0.4-0.6,0.5
		c-0.4,0.1-0.8,0.4-1.3,0.9c4,4,7.6,7.1,11,9.2s7.4,4,12,5.5c-1.1,0.6-1.9,1.5-2.5,2.6c-3.6-1.6-6.7-3.1-9.2-4.7v2.6
		c-2.8-0.2-6.5-0.2-11.1-0.2v6.3c7.3,0,12.8-0.1,16.3-0.4v3.1c-4.4-0.3-9.8-0.4-16.3-0.4v12.7h9.8c4.6,0,8.1-0.1,10.7-0.4v3.1
		c-5-0.2-12.5-0.3-22.4-0.3s-17.2,0.1-21.7,0.4v-3.2c2.6,0.3,6.2,0.4,10.8,0.4h9.5v-12.7c-7.7,0-13.4,0.1-17,0.4v-3.1
		c4.5,0.3,10.1,0.4,17,0.4V378.4z M811.8,396.5l-2.8,1.8c-2.1-2.8-4.4-5.3-7.1-7.5l2.2-1.7C806.8,391.4,809.4,393.9,811.8,396.5z
		 M805.9,375.9c2.5,0.1,6.5,0.2,12.1,0.2c5.5,0,9.5-0.1,12-0.2c-3.5-2.1-7.7-5.7-12.5-10.6C814.3,369.6,810.4,373.1,805.9,375.9z
		 M830.2,388.7c0.9,0.8,2,1.5,3.2,1.9c0.4,0.2,0.6,0.4,0.6,0.6s-0.2,0.4-0.7,0.5c-0.5,0.1-1.2,0.6-2.1,1.4c-0.9,0.8-2.6,2.5-5.1,5.2
		l-2.8-1.5c1.5-1.1,2.9-2.4,4.2-4C828.9,391.1,829.8,389.8,830.2,388.7z"/>
	<path fill="#FFFFFF" d="M121.3,453.6c2.1-1.7,3.6-3.5,4.2-5.3h-9.3c-1.6,2-3.6,4.2-6.1,6.4c-1.1-0.9-2.1-1.5-3.1-1.7
		c5.2-3.5,8.6-7.2,9.9-11.1c1.2,0.7,2.2,1.1,2.8,1.2c0.7,0.1,1,0.3,1,0.5c0,0.3-0.3,0.5-0.8,0.6c-0.5,0.1-1.3,0.8-2.3,2.1
		c7,0,11.1-0.1,12.3-0.3c-1.6,3.5-3.7,6.3-6.2,8.6c3.1,1.3,5.9,2.5,8.6,3.7l-1.8,2.4c-2.4-1.3-5.4-2.8-8.9-4.5
		c-2.6,1.8-5.7,3.5-9.1,4.9c0.9,0.2,3.6,0.2,8,0.2s7.2-0.1,8.5-0.2c-0.1,1.1-0.1,2.3-0.1,3.8v3.5c0,2.2,0.1,4.1,0.3,5.7h-3.3v-2.4
		h-10.3v3.1h-3.4c0.3-1.9,0.4-3.8,0.4-5.7v-4.2c0-1.6-0.1-2.8-0.2-3.7l-3.9,1.6c-0.5-1.1-1.3-2-2.5-2.5c4.9-1.1,9.3-2.9,13.1-5.3
		l-5.4-2.2l1.4-1.9L121.3,453.6z M119.8,439.2c-1-1.8-2.3-3.4-3.8-4.6l2.6-1.6c1.5,1.6,2.9,3.7,4.4,6.2c3.3,0,6.5-0.2,9.5-0.4
		c-0.3,1-0.4,2-0.4,2.9c0,1,0.1,2.2,0.3,3.8h-3.2v-4.1h-18.1v4.5h-3.2c0.2-1.4,0.3-2.7,0.3-3.9c0-1.2-0.1-2.3-0.3-3.2
		C110,439.1,113.9,439.2,119.8,439.2z M125.9,469.6v-6h-10.3v6H125.9z M142.2,450.4c0.9,0.2,1.8,0.3,2.6,0.3l1.4-0.1
		c0.3,0,0.5,0.2,0.5,0.5c0,0.1-0.1,0.3-0.3,0.4c-0.2,0.1-0.4,0.4-0.5,0.7c-0.2,0.4-0.3,0.7-0.3,1.1c0,6.7-0.8,11.7-2.5,14.9
		c-1.7,3.2-5.3,6.2-10.8,8.9c-0.7-1-1.6-1.8-2.8-2.3c3.9-1.4,6.7-3,8.6-4.6c1.8-1.6,3-3.9,3.7-6.7c0.6-2.8,1-5.1,1-7
		C142.6,454.5,142.4,452.5,142.2,450.4z M141.7,439.4c-3.9,0-6.8,0.1-8.7,0.4v-3c3.4,0.3,7.6,0.4,12.5,0.4c4.9,0,8.5-0.1,11-0.4v3
		c-2.6-0.3-6.4-0.4-11.6-0.4c-0.5,1.8-0.8,3.9-1,6.3c4.8,0,8.3-0.1,10.5-0.2c-0.1,1.6-0.2,3.6-0.2,5.9v8.1c0,1.6,0,3.6,0.1,6.1h-3.3
		v-17.7h-13.8v18.5h-3.2c0.1-2,0.2-4,0.2-6.2v-8.9c0-2.8-0.1-4.7-0.2-5.7c1.3,0.1,3.6,0.1,7.1,0.2
		C141.3,443.7,141.6,441.6,141.7,439.4z M156.8,474.4l-2.5,2c-2.3-2.7-5.6-5.4-9.9-8.1l1.7-1.9C150.4,469.2,153.9,471.9,156.8,474.4
		z"/>
	<path fill="#FFFFFF" d="M177,446.4c-1.5,2.2-3.2,4.3-5.1,6.2c-1.1-1-2.3-1.6-3.8-1.7c2-1.3,4.5-3.8,7.4-7.4
		c2.9-3.6,4.8-7.1,5.9-10.6c1.4,0.7,2.6,1.2,3.5,1.4c0.9,0.2,1.3,0.4,1.3,0.8c0,0.4-0.3,0.6-0.8,0.8c-0.6,0.2-1.1,0.6-1.7,1.2
		c-0.6,0.6-1.6,2-3.1,4.2v35.8h-4.1c0.4-3.4,0.6-6.7,0.6-9.9V446.4z M196.6,445.4h-2.2c-2.4,3.3-5.1,6.2-7.9,8.7
		c-0.8-1-2.2-1.7-4.2-2c3.4-1.6,6.5-4.4,9.5-8.3c3-3.9,4.6-7.4,4.8-10.5c0.8,0.5,1.5,0.8,2,0.9c0.5,0.2,1.2,0.2,1.9,0.2
		c0.7,0,1,0.2,1,0.6c0,0.4-0.3,0.7-0.9,0.9c-0.3,0.1-0.7,0.5-1,1c-0.4,0.5-0.9,1.5-1.7,2.9c-0.7,1.4-1.4,2.4-1.9,3.1h13.8
		c3.1,0,6-0.1,8.5-0.4v3.1c-3.4-0.3-6.2-0.4-8.5-0.4h-9.7v7.5h5.5c3.5,0,6.9-0.2,10.2-0.5v3.1c-3-0.3-6.3-0.4-10.2-0.4h-5.6v7.5h6.8
		c3.2,0,6.9-0.2,10.9-0.5v3.2c-3.5-0.3-7.1-0.4-10.8-0.4h-6.9v3.8c0,2.6,0.1,5.4,0.4,8.3h-4.5c0.3-3.4,0.5-6.1,0.5-8.3V445.4z"/>
	<path fill="#FFFFFF" d="M256.4,446c4,0,8.2-0.1,12.6-0.2c4.4-0.1,7.2-0.2,8.4-0.4c-0.4,1.1-0.7,2.6-0.9,4.6
		c-0.4,3.7-0.8,7.6-1.3,11.7c-0.5,4.1-0.9,6.6-1.1,7.6c-0.2,1-0.6,1.9-1.1,2.7c-0.5,0.7-1.2,1.3-2.1,1.7s-2,0.7-3.3,0.8
		c-1.3,0.2-3.1,0.3-5.4,0.5c-0.1-1.4-0.7-2.7-1.7-3.9c2.2,0.3,4,0.5,5.4,0.5c1.4,0,2.5-0.3,3.3-0.9c0.7-0.6,1.3-1.4,1.6-2.6
		c0.3-1.2,0.7-3.9,1.4-8.3c0.6-4.4,1-8.2,1.3-11.3h-17.2c-0.6,5-2.5,10-5.7,14.9c-3.2,4.9-7.5,9.1-12.8,12.6c-0.9-1-2.2-1.8-3.8-2.2
		c10.9-5.6,17.2-14.1,19-25.3H244c-4,0-7.1,0.1-9.2,0.3v-3.3c3.2,0.3,9.3,0.4,18.4,0.5c0.1-1.3,0.1-3.2,0.1-5.7c0-2.5-0.1-4.8-0.3-7
		c1.2,0.4,2.8,0.7,5,0.8c0.6,0,0.9,0.2,0.9,0.5c0,0.3-0.3,0.6-0.8,1C257.4,436.1,256.8,439.6,256.4,446z M248.7,442l-3.1,1.5
		c-2.3-3.5-4.5-6.1-6.6-7.6l2.5-1.9C244,436.1,246.4,438.7,248.7,442z M267.9,461l-2.4,2.1c-2.5-2.8-5.2-5.1-8.1-7l2-2
		C262.4,456,265.2,458.3,267.9,461z"/>
	<path fill="#FFFFFF" d="M300.6,448.3c-1.7,2.2-3.1,3.8-4.2,4.8c-0.9-0.9-2-1.4-3.3-1.7c2.9-2.3,5.5-5.1,7.7-8.5s3.6-6.7,4.2-9.8
		c1.2,0.7,2.3,1.1,3.3,1.3c1,0.1,1.5,0.4,1.5,0.7c0,0.3-0.2,0.6-0.7,0.7c-0.4,0.1-0.9,0.6-1.5,1.3c-0.6,0.7-1.1,1.6-1.5,2.5
		c-0.4,0.9-1.1,2.2-2.2,3.9V476H300c0.4-3.4,0.6-6.7,0.6-9.9V448.3z M310.1,468c-1-0.8-2.3-1.3-3.8-1.3c5.2-3.6,8.5-7.5,9.9-11.6
		c0.9,0.7,2,1.1,3.2,1.1c0.5,0,0.8,0.2,0.8,0.6c0,0.4-0.2,0.6-0.7,0.7c-0.5,0-1.2,0.8-2.2,2.3C315.6,462.4,313.2,465.1,310.1,468z
		 M317.9,443.4c-1.5,3.1-3.6,6.2-6.5,9.4c-1.1-0.8-2.4-1.1-3.9-1.1c2.5-2.1,4.6-4.5,6.3-7.2c1.6-2.7,3-6.2,4.2-10.4
		c1.3,0.5,2.5,0.8,3.6,0.9c0.5,0.1,0.8,0.3,0.8,0.7c0,0.3-0.2,0.5-0.7,0.7c-0.5,0.2-1.4,1.7-2.7,4.6c11.1,0.1,18.8-0.1,23.2-0.5
		l-4.4,10.1l-3.1-0.9l2.8-6.2H317.9z M323.2,448.2c1.5,0.2,2.8,0.3,3.8,0.3c1,0,1.5,0.1,1.5,0.2c0,0.2-0.2,0.4-0.7,0.7
		c-0.5,0.3-0.7,0.9-0.7,1.6v20.8c0,1-0.2,1.7-0.7,2.3c-0.5,0.5-1.4,0.9-2.9,1.2c-1.4,0.3-3.6,0.4-6.4,0.4c0-1.3-0.6-2.6-1.8-3.8
		c2.3,0.4,4,0.6,5.1,0.6c1.2,0,2-0.2,2.5-0.5c0.5-0.3,0.8-1,0.8-2v-13.3C323.8,452.4,323.6,449.5,323.2,448.2z M343.1,467.1l-3,1.8
		c-1.7-3.5-4.9-7.7-9.5-12.6l2.5-1.5C336.7,458.3,340,462.4,343.1,467.1z"/>
	<path fill="#FFFFFF" d="M364.3,443c1.2-3.3,1.9-6.4,2.1-9.3c1.4,0.4,2.9,0.7,4.3,1c0.4,0.1,0.6,0.2,0.6,0.4c0,0.2-0.1,0.4-0.4,0.7
		c-1,0.9-2.1,3.3-3.5,7.2c4,0,7.3-0.1,10.1-0.4c-0.3,1.2-0.4,2.7-0.4,4.3v22.7c0,2.6,0.1,4.9,0.4,6.9h-3.7v-4.4h-11.6v4.7h-3.8
		c0.3-2.4,0.4-4.7,0.4-6.9V447c0-1.5-0.1-2.9-0.4-4.3C360,442.9,361.9,443,364.3,443z M362.2,456.6h11.6v-11.1h-11.6V456.6z
		 M373.8,458.9h-11.6v11h11.6V458.9z M386.6,444.8c-1.6,3.4-3.4,6.3-5.1,8.8c-1.1-0.6-2.2-1.1-3.4-1.4c2.4-3,4.1-5.8,5.2-8.5
		c1.1-2.7,2.1-5.9,3-9.7c1.4,0.6,2.8,1,4,1.1c0.5,0.1,0.8,0.2,0.8,0.4c0,0.2-0.2,0.5-0.7,0.8s-1.4,2.3-2.7,5.8h8.7
		c2.1,0,4.1-0.1,6.1-0.4c-0.2,1.4-0.3,3-0.4,4.7l-0.5,24.2c0,2.2-1.1,3.8-3.1,4.5c-2,0.8-5,1.1-8.9,1.1c-0.1-1.2-0.7-2.4-1.6-3.7
		c1.6,0.1,3.1,0.1,4.5,0.1s2.6-0.2,3.4-0.5c0.9-0.3,1.4-0.9,1.7-1.7c0.3-0.8,0.4-2.2,0.5-4l0.3-21.8H386.6z M393.3,463l-3.1,1.6
		c-2.2-4.5-4.2-8.1-6.2-10.6l3-1.8C389.2,455.1,391.3,458.7,393.3,463z"/>
	<path fill="#FFFFFF" d="M429.2,444.8c3.4-0.1,5.8-0.2,7.3-0.4v3c-1.5-0.2-3.9-0.3-7.3-0.4v2.1c4.2,3.3,7,5.6,8.3,6.9l-2.9,2
		c-1.4-1.9-3.2-3.8-5.4-5.9v16.1c0,3.2,0.1,6.1,0.4,8.9h-3.9c0.3-2.8,0.4-5.8,0.4-8.9v-13.6c-1.6,4.4-3.8,8.4-6.4,12.1
		c-1.1-1-2.2-1.6-3.5-1.7c3.9-3.7,7.2-9.4,9.9-17.1v-0.9c-4,0.1-6.7,0.2-8.2,0.4v-3c1.5,0.2,4.2,0.3,8.2,0.4c0-5.6-0.2-9.2-0.5-11
		c1.4,0.3,2.8,0.4,4.1,0.4c0.6,0,0.9,0.1,0.9,0.3c0,0.2-0.2,0.5-0.7,1c-0.5,0.5-0.7,1.5-0.7,3V444.8z M447.8,442.9
		c-4.6,0-8.6,0.1-11.8,0.4v-3.1c3.6,0.3,7.7,0.4,12.2,0.4l0.4-2.6c0.2-1.1,0.3-1.9,0.3-2.4c0-0.6-0.1-1.1-0.2-1.6
		c1.6,0.4,2.9,0.7,4,0.7c0.6,0,0.9,0.2,0.9,0.6c0,0.3-0.2,0.5-0.5,0.7c-0.7,0.4-1.2,1.2-1.4,2.4l-0.4,2.2c6.4,0,11.5-0.2,15.1-0.4
		v3.1c-3-0.3-8.2-0.4-15.5-0.4l-0.8,4.3c4.3,0,8.3-0.1,12.2-0.2c-0.2,0.7-0.3,3.4-0.3,8.2v17c2.6-0.1,4.7-0.2,6.2-0.3v3.1
		c-3.3-0.3-9.1-0.4-17.5-0.4c-8.4,0-14.3,0.1-17.5,0.4v-3.1l6.7,0.3v-17.8c0-1.1-0.1-3.6-0.3-7.5c4.6,0.2,7.1,0.2,7.8,0.2
		L447.8,442.9z M458.6,453.6v-4.4h-15.8v4.4H458.6z M442.8,455.6v4.2h15.8v-4.2H442.8z M442.8,461.9v4.2h15.8v-4.2H442.8z
		 M442.8,468.2v4.1h15.8v-4.1H442.8z"/>
	<path fill="#FFFFFF" d="M491,444.2c2,0,3.7-0.1,5-0.4v3c-1.4-0.2-3.1-0.3-5-0.3v2.9c3,2.3,5.6,4.8,7.8,7.4l-2.9,2
		c-1.2-2.1-2.9-4.2-4.9-6.3v15.6c0,3.4,0.1,6.3,0.4,8.9h-3.9c0.3-2.6,0.4-5.6,0.4-8.9v-14.7c-1.5,4.5-3.4,8.4-5.5,11.8
		c-1.1-1.2-2.2-2-3.2-2.4c3.4-4.1,6.3-9.5,8.6-16.2c-2.8,0-4.9,0.1-6.5,0.4v-3c1.5,0.3,3.7,0.4,6.6,0.4c0-5.1-0.2-8.7-0.5-10.8
		c1.4,0.3,2.8,0.4,4.1,0.4c0.6,0,0.9,0.1,0.9,0.3c0,0.2-0.2,0.5-0.7,1c-0.5,0.5-0.7,1.5-0.7,3V444.2z M505.5,454.7
		c1.3-3.5,2.1-7.3,2.3-11.5h-4.2c-3.4,0-5.7,0.1-7,0.2v-2.8c1.5,0.2,3.8,0.3,7,0.3c3.2,0,5.7-0.1,7.6-0.3
		c-0.5,6.7-1.7,12.3-3.6,16.8c2.1,2.8,4.3,5.8,6.4,9.1l-2.9,1.7c-1.7-2.9-3.3-5.6-5-7.9c-2.3,4.1-5.7,7.8-10.2,11.2
		c-0.8-0.9-1.9-1.6-3.3-2c5.2-3,9.1-7,11.6-11.9c-2.2-3.1-4.6-5.9-7.2-8.4l2.4-1.6C501.4,449.7,503.5,452.1,505.5,454.7z M525.6,447
		v25.6c0,1.4-0.3,2.3-1,2.8c-0.6,0.5-1.6,0.9-2.8,1s-2.7,0.3-4.2,0.5c-0.1-1.4-0.7-2.6-1.9-3.8c1.9,0.3,3.3,0.4,4.2,0.4
		c0.9,0,1.5-0.1,1.9-0.3c0.4-0.2,0.6-0.7,0.6-1.4v-24.8c-5.3,0-8.7,0.1-10.2,0.4v-3c1.6,0.3,5,0.4,10.2,0.4c0-6-0.2-9.8-0.5-11.5
		c1,0.2,1.7,0.4,2.1,0.4c0.4,0,1,0.1,1.8,0.1c0.8,0,1.2,0.1,1.2,0.3s-0.2,0.4-0.5,0.6c-0.6,0.3-0.9,0.9-0.9,1.9v8.3
		c1.9,0,3.6-0.1,4.9-0.3v3C529.2,447.1,527.6,447,525.6,447z M520.5,460.8l-3,1.1c-1.2-3.3-3-6.6-5.3-10l2.7-1.2
		C517,453.6,518.8,457,520.5,460.8z"/>
	<path fill="#FFFFFF" d="M558.1,439.3H577c0-2.3-0.1-4.1-0.4-5.3c1.7,0.3,2.9,0.4,3.8,0.4c0.9,0,1.3,0.1,1.3,0.3s-0.1,0.4-0.3,0.5
		c-0.7,0.5-1.1,1.1-1.1,1.9v2.1c3,0,6-0.2,8.8-0.4v3.1c-2.6-0.2-5.5-0.3-8.8-0.3v14c3.7-0.1,7.7-0.2,11.8-0.4v3
		c-2.6-0.2-7-0.4-13.3-0.5c3.6,3.9,8.4,6.5,14.4,7.9c-1,1-1.8,2-2.3,3.2c-7-3.2-12.1-6.9-15.4-11.2h-15.1
		c-4.1,4.8-9.6,8.7-16.3,11.5c-0.4-1.1-1.1-2-2.2-2.7c6.5-2,11.4-4.9,14.8-8.7c-5.6,0.1-9.7,0.2-12.4,0.5v-3
		c3.3,0.2,6.9,0.4,10.7,0.4v-14c-2.8,0-5.7,0.1-8.6,0.4v-3.1c2.9,0.3,5.8,0.4,8.6,0.4c0-2.1-0.2-3.9-0.6-5.4
		c1.4,0.3,2.6,0.4,3.4,0.4c0.9,0,1.3,0.1,1.3,0.3c0,0.2-0.1,0.3-0.3,0.5c-0.4,0.3-0.6,1-0.6,1.9V439.3z M569.4,466.9v5.5
		c6.6,0,12.1-0.1,16.5-0.4v2.9c-4.6-0.3-10.6-0.4-18-0.4s-13.4,0.1-18,0.4v-2.9c4.4,0.3,9.8,0.4,16.3,0.4v-5.5
		c-4.9,0-8.7,0.1-11.4,0.4v-2.8c2.4,0.2,6.2,0.3,11.4,0.3v-1.4c0-1.8-0.1-3.4-0.4-4.7c1.4,0.2,2.8,0.3,4.2,0.3
		c0.5,0,0.7,0.1,0.7,0.2c0,0.1-0.1,0.3-0.4,0.5c-0.3,0.2-0.5,0.4-0.6,0.8c-0.1,0.4-0.2,0.7-0.2,1v3.3c4.3,0,7.9-0.1,10.7-0.3v2.8
		C576.8,467.1,573.3,466.9,569.4,466.9z M577,441.6h-18.9v3.3H577V441.6z M577,446.9h-18.9v3.5H577V446.9z M577,455.6v-3.4h-18.9
		v3.4H577z"/>
	<path fill="#FFFFFF" d="M628.9,451.3c-4.4,0-8,0.1-10.7,0.2v-2.3c-3,1.8-6.4,3.6-10.5,5.5c-0.5-1.3-1.5-2.2-3-2.8
		c7.7-2.4,13.7-5.6,17.9-9.4c4.3-3.8,6.7-7.1,7.3-9.8c1.2,1,2.4,1.7,3.6,1.9c0.4,0,0.5,0.2,0.5,0.4c0,0.2-0.2,0.4-0.6,0.5
		c-0.4,0.1-0.8,0.4-1.3,0.9c4,4,7.6,7.1,11,9.2s7.4,4,12,5.5c-1.1,0.6-1.9,1.5-2.5,2.6c-3.6-1.6-6.7-3.1-9.2-4.7v2.6
		c-2.8-0.2-6.5-0.2-11.1-0.2v6.3c7.3,0,12.8-0.1,16.3-0.4v3.1c-4.4-0.3-9.8-0.4-16.3-0.4v12.7h9.8c4.6,0,8.1-0.1,10.7-0.4v3.1
		c-5-0.2-12.5-0.3-22.4-0.3s-17.2,0.1-21.7,0.4v-3.2c2.6,0.3,6.2,0.4,10.8,0.4h9.5v-12.7c-7.7,0-13.4,0.1-17,0.4v-3.1
		c4.5,0.3,10.1,0.4,17,0.4V451.3z M624.9,469.3l-2.8,1.8c-2.1-2.8-4.4-5.3-7.1-7.5l2.2-1.7C619.9,464.2,622.4,466.7,624.9,469.3z
		 M619,448.7c2.5,0.1,6.5,0.2,12.1,0.2c5.5,0,9.5-0.1,12-0.2c-3.5-2.1-7.7-5.7-12.5-10.6C627.4,442.4,623.5,445.9,619,448.7z
		 M643.3,461.5c0.9,0.8,2,1.5,3.2,1.9c0.4,0.2,0.6,0.4,0.6,0.6s-0.2,0.4-0.7,0.5c-0.5,0.1-1.2,0.6-2.1,1.4c-0.9,0.8-2.6,2.5-5.1,5.2
		l-2.8-1.5c1.5-1.1,2.9-2.4,4.2-4C642,463.9,642.9,462.6,643.3,461.5z"/>
	<path fill="#FFFFFF" d="M681.6,469.1c0,4.1-1.9,6.6-5.7,7.5v-2.1c1.2-0.3,2-0.8,2.5-1.5c0.5-0.7,0.7-1.9,0.7-3.5h-3.2v-5h5.7V469.1
		z"/>
	<path fill="#FFFFFF" d="M740.8,444.8c3.4-0.1,5.8-0.2,7.3-0.4v3c-1.5-0.2-3.9-0.3-7.3-0.4v2.1c4.2,3.3,7,5.6,8.3,6.9l-2.9,2
		c-1.4-1.9-3.2-3.8-5.4-5.9v16.1c0,3.2,0.1,6.1,0.4,8.9h-3.9c0.3-2.8,0.4-5.8,0.4-8.9v-13.6c-1.6,4.4-3.8,8.4-6.4,12.1
		c-1.1-1-2.2-1.6-3.5-1.7c3.9-3.7,7.2-9.4,9.9-17.1v-0.9c-4,0.1-6.7,0.2-8.2,0.4v-3c1.5,0.2,4.2,0.3,8.2,0.4c0-5.6-0.2-9.2-0.5-11
		c1.4,0.3,2.8,0.4,4.1,0.4c0.6,0,0.9,0.1,0.9,0.3c0,0.2-0.2,0.5-0.7,1c-0.5,0.5-0.7,1.5-0.7,3V444.8z M759.3,442.9
		c-4.6,0-8.6,0.1-11.8,0.4v-3.1c3.6,0.3,7.7,0.4,12.2,0.4l0.4-2.6c0.2-1.1,0.3-1.9,0.3-2.4c0-0.6-0.1-1.1-0.2-1.6
		c1.6,0.4,2.9,0.7,4,0.7c0.6,0,0.9,0.2,0.9,0.6c0,0.3-0.2,0.5-0.5,0.7c-0.7,0.4-1.2,1.2-1.4,2.4l-0.4,2.2c6.4,0,11.5-0.2,15.1-0.4
		v3.1c-3-0.3-8.2-0.4-15.5-0.4l-0.8,4.3c4.3,0,8.3-0.1,12.2-0.2c-0.2,0.7-0.3,3.4-0.3,8.2v17c2.6-0.1,4.7-0.2,6.2-0.3v3.1
		c-3.3-0.3-9.1-0.4-17.5-0.4c-8.4,0-14.3,0.1-17.5,0.4v-3.1l6.7,0.3v-17.8c0-1.1-0.1-3.6-0.3-7.5c4.6,0.2,7.1,0.2,7.8,0.2
		L759.3,442.9z M770.2,453.6v-4.4h-15.8v4.4H770.2z M754.3,455.6v4.2h15.8v-4.2H754.3z M754.3,461.9v4.2h15.8v-4.2H754.3z
		 M754.3,468.2v4.1h15.8v-4.1H754.3z"/>
	<path fill="#FFFFFF" d="M802.5,444.2c2,0,3.7-0.1,5-0.4v3c-1.4-0.2-3.1-0.3-5-0.3v2.9c3,2.3,5.6,4.8,7.8,7.4l-2.9,2
		c-1.2-2.1-2.9-4.2-4.9-6.3v15.6c0,3.4,0.1,6.3,0.4,8.9H799c0.3-2.6,0.4-5.6,0.4-8.9v-14.7c-1.5,4.5-3.4,8.4-5.5,11.8
		c-1.1-1.2-2.2-2-3.2-2.4c3.4-4.1,6.3-9.5,8.6-16.2c-2.8,0-4.9,0.1-6.5,0.4v-3c1.5,0.3,3.7,0.4,6.6,0.4c0-5.1-0.2-8.7-0.5-10.8
		c1.4,0.3,2.8,0.4,4.1,0.4c0.6,0,0.9,0.1,0.9,0.3c0,0.2-0.2,0.5-0.7,1c-0.5,0.5-0.7,1.5-0.7,3V444.2z M817,454.7
		c1.3-3.5,2.1-7.3,2.3-11.5h-4.2c-3.4,0-5.7,0.1-7,0.2v-2.8c1.5,0.2,3.8,0.3,7,0.3c3.2,0,5.7-0.1,7.6-0.3
		c-0.5,6.7-1.7,12.3-3.6,16.8c2.1,2.8,4.3,5.8,6.4,9.1l-2.9,1.7c-1.7-2.9-3.3-5.6-5-7.9c-2.3,4.1-5.7,7.8-10.2,11.2
		c-0.8-0.9-1.9-1.6-3.3-2c5.2-3,9.1-7,11.6-11.9c-2.2-3.1-4.6-5.9-7.2-8.4l2.4-1.6C813,449.7,815,452.1,817,454.7z M837.1,447v25.6
		c0,1.4-0.3,2.3-1,2.8c-0.6,0.5-1.6,0.9-2.8,1s-2.7,0.3-4.2,0.5c-0.1-1.4-0.7-2.6-1.9-3.8c1.9,0.3,3.3,0.4,4.2,0.4
		c0.9,0,1.5-0.1,1.9-0.3c0.4-0.2,0.6-0.7,0.6-1.4v-24.8c-5.3,0-8.7,0.1-10.2,0.4v-3c1.6,0.3,5,0.4,10.2,0.4c0-6-0.2-9.8-0.5-11.5
		c1,0.2,1.7,0.4,2.1,0.4c0.4,0,1,0.1,1.8,0.1c0.8,0,1.2,0.1,1.2,0.3s-0.2,0.4-0.5,0.6c-0.6,0.3-0.9,0.9-0.9,1.9v8.3
		c1.9,0,3.6-0.1,4.9-0.3v3C840.7,447.1,839.1,447,837.1,447z M832,460.8l-3,1.1c-1.2-3.3-3-6.6-5.3-10l2.7-1.2
		C828.5,453.6,830.3,457,832,460.8z"/>
	<path fill="#FFFFFF" d="M117.9,541c0.8,0.1,2.9,1,6.5,2.8c2.4,1.2,7.2,1.9,14.2,1.9c5.1,0,11.4-0.3,19-1c-1.2,1-1.9,2.2-1.9,3.6
		c-6.1,0.3-11.4,0.4-15.8,0.4c-4.4,0-8-0.2-11-0.5c-2.9-0.4-5.3-1.1-7.3-2.3c-1.9-1.2-3.4-1.8-4.5-1.8c-1.1,0-2.2,0.3-3.3,1
		c-1.1,0.7-2.4,1.8-4,3.4c-0.7-1.2-1.6-2.1-2.9-2.6c3.6-2.8,6.1-4.4,7.7-4.8v-16.6c-4.3,0-7.1,0.1-8.3,0.2v-2.9
		c1.4,0.2,3.4,0.3,5.8,0.3c2.4,0,4.5-0.1,6.1-0.3c-0.3,1.6-0.5,3.5-0.5,5.6V541z M112.6,507.3c3.4,2.7,6.3,5.3,8.5,7.7l-2.8,2.1
		c-1.7-2.6-4.3-5.2-7.9-7.8L112.6,507.3z M140.4,523.2c6.6,0,11.7-0.2,15.2-0.5v3.1c-3.8-0.3-9.6-0.5-17.3-0.5
		c-7.7,0-13.5,0.2-17.3,0.5v-3.1c3.8,0.3,9.1,0.5,16.1,0.5v-7.4h-7.8c-0.6,1.4-1.8,3.3-3.4,5.7c-1-0.9-2.3-1.3-3.8-1.4
		c3.5-2.7,5.6-6.8,6.3-12.3c1.3,0.7,2.6,1.1,3.8,1.1c0.4,0,0.6,0.2,0.6,0.6c0,0.2-0.2,0.4-0.5,0.5c-0.3,0.1-0.6,0.5-0.9,1
		c-0.3,0.5-0.7,1.4-1.1,2.5h6.9c-0.1-3.5-0.2-6.1-0.4-7.7c1,0.2,1.8,0.3,2.5,0.3c1.6,0,2.5,0.1,2.5,0.4c0,0.3-0.1,0.5-0.4,0.7
		c-0.3,0.2-0.5,0.4-0.6,0.8c-0.1,0.3-0.2,0.7-0.2,1v4.7c6.4,0,10.4-0.1,12-0.3v2.9c-1.7-0.2-5.7-0.3-12-0.3V523.2z M130.6,540.4v2.3
		h-3.8c0.3-2.1,0.4-3.7,0.4-4.9v-5.5c0-1.2-0.1-2.4-0.3-3.7c1,0.2,2.1,0.3,3.3,0.3c1.2,0,4.5,0,9.9,0c5.4,0,9-0.1,10.7-0.3
		c-0.2,1.6-0.3,2.8-0.3,3.7v5.6c0,1.3,0.1,2.8,0.4,4.6H147v-2H130.6z M147,538.1v-7h-16.5v7H147z"/>
	<path fill="#FFFFFF" d="M183.3,515.9c3.3-0.1,5.8-0.2,7.6-0.4v3.2c-1.9-0.3-4.4-0.4-7.6-0.4v3.5c3.1,2.4,6.4,5.1,9.7,7.9l-2.6,2.3
		c-2.3-2.7-4.6-5.1-7.1-7.2v15.9c0,2.6,0.1,5.6,0.4,8.9h-4.1c0.3-3.3,0.4-6.3,0.4-8.9v-15.2c-2.2,5.1-5.2,10-9,14.5
		c-0.8-0.8-1.9-1.4-3.3-1.6c2.9-2.8,5.4-6,7.7-9.6c2.2-3.6,3.8-6.9,4.6-10v-0.3c-4,0-7.1,0.1-9.4,0.4v-3.2c2.3,0.3,5.4,0.4,9.4,0.4
		c0-4.7-0.2-8-0.5-9.7c1.5,0.3,2.9,0.4,4.3,0.4c0.6,0,0.9,0.1,0.9,0.3c0,0.2-0.2,0.5-0.7,1c-0.5,0.5-0.7,1.5-0.7,3V515.9z
		 M206.1,518.6c3.6,8.5,8.1,15.3,13.6,20.2c-1.4,0.5-2.5,1.2-3.2,2.1c-4.9-5.8-8.4-11.4-10.4-16.8v16.6c0,3.1,0.1,6,0.4,8.9h-4
		c0.3-3.3,0.4-6.3,0.4-8.9v-16.6c-2.6,6.2-6.3,12-11.2,17.3c-0.9-1.1-2.1-1.7-3.6-1.9c3.1-2.3,6-5.5,8.7-9.5c2.7-4,4.6-7.9,5.7-11.7
		c-4.1,0-7.4,0.1-9.9,0.4v-3.1c2.7,0.3,6.1,0.4,10.3,0.4c0-4.4-0.2-7.7-0.5-9.8c1.4,0.3,2.8,0.4,4.2,0.4c0.6,0,0.9,0.1,0.9,0.3
		s-0.2,0.5-0.7,1c-0.5,0.5-0.7,1.5-0.7,3v5c5.5,0,9.3-0.1,11.4-0.4v3.1c-2.2-0.3-6-0.4-11.4-0.4V518.6z"/>
	<path fill="#FFFFFF" d="M245.5,541.9c0,4.1-1.9,6.6-5.7,7.5v-2.1c1.2-0.3,2-0.8,2.5-1.5c0.5-0.7,0.7-1.9,0.7-3.5h-3.2v-5h5.7V541.9
		z"/>
	<path fill="#FFFFFF" d="M306.5,516.4c-4.2,0-8.2,0.2-11.9,0.5v-3.2c3.6,0.3,8.5,0.5,14.6,0.5c6.2,0,11.1-0.2,14.7-0.5v3.2
		c-3.1-0.2-5.4-0.4-7-0.4c-1.6,0-4.9-0.1-9.8-0.1c1.1,0.7,2,1.2,2.6,1.4c0.6,0.2,0.9,0.5,0.9,0.7s-0.3,0.4-0.8,0.5
		c-0.5,0.1-1.5,0.8-2.9,2.3c-1.4,1.5-2.9,3.1-4.5,4.8l9.9-0.4c1.6-1.9,2.9-3.9,3.8-6.1c1.2,0.9,2.3,1.6,3.3,2
		c0.4,0.2,0.5,0.3,0.5,0.6s-0.3,0.4-0.8,0.6c-0.5,0.1-1.4,0.8-2.6,2.2c-2.4,2.9-4.8,5.3-7.3,7.3c-2.5,2-5.6,4.2-9.3,6.6
		c-0.9-1-1.9-1.8-3.1-2.2c2.2-0.9,4.2-1.9,6-2.9c1.8-1,4.2-2.9,7.4-5.7l-7.6,0.5c-1.4,0.1-2.8,0.3-4,0.8c-0.1-1.2-0.5-2.2-1.2-3.1
		c1.5-0.5,3.2-1.7,4.9-3.5C304.1,520.9,305.5,518.8,306.5,516.4z M313.8,539c-3.3,3-8.5,6.1-15.5,9.4c-0.8-1.3-1.8-2.2-3-2.8
		c5.3-1.2,10.2-3.5,14.7-7c4.5-3.5,7.7-7.4,9.5-11.7c1.2,0.9,2.3,1.6,3.3,1.9c0.4,0.2,0.5,0.4,0.5,0.6c0,0.3-0.3,0.4-0.8,0.6
		c-0.5,0.1-1.4,0.9-2.5,2.2c-1.5,1.9-2.9,3.5-4.4,5c3.9,2.2,7.1,4.2,9.6,6l-2.9,2.6C320.3,543.3,317.4,541.1,313.8,539z
		 M314.5,511.3l-2.6,2c-2.1-1.9-4.8-3.8-8-5.7l1.9-2C309.3,507.6,312.2,509.5,314.5,511.3z M327,512.6c0.8,0.3,2.2,0.4,4.2,0.4
		c0.4,0,0.6,0.1,0.6,0.3c0,0.2-0.2,0.4-0.6,0.6c-0.4,0.2-0.6,0.6-0.6,1.3v15.6c0,2.3,0.1,4.8,0.4,7.5h-3.9c0.3-2.8,0.4-5.3,0.4-7.5
		v-11.8C327.5,516.1,327.3,514,327,512.6z M336.2,506.4c1.2,0.3,2.5,0.4,4,0.4c0.6,0,0.9,0.2,0.9,0.6c0,0.2-0.2,0.4-0.6,0.6
		c-0.4,0.2-0.6,0.6-0.6,1.2v34.5c0,1.5-0.2,2.5-0.5,3.3c-0.3,0.7-1.1,1.3-2.2,1.6c-1.1,0.4-3,0.7-5.6,1c0-1-0.2-1.7-0.5-2.3
		c-0.3-0.5-0.7-1-1.1-1.4c1.2,0.1,2.1,0.1,3,0.1c1.6,0,2.6-0.2,3.1-0.6c0.5-0.4,0.7-1.1,0.7-2.1v-29.3
		C336.7,511,336.5,508.4,336.2,506.4z"/>
	<path fill="#FFFFFF" d="M380.5,513.9h-8.3c-6,0-11,0.1-15,0.4V511c3.3,0.3,8.3,0.4,15,0.4h17.1c6.7,0,11.7-0.1,15-0.4v3.3
		c-4-0.3-9.1-0.4-15-0.4h-5.1c-0.8,1.5-1.5,2.7-2.2,3.7v24.8c0,2.6,0.1,5,0.4,7.1h-4.3c0.3-2.1,0.5-4.4,0.5-7.1v-20.1
		c-3.9,4.9-10.5,9.8-20,14.8c-0.5-1.2-1.6-2.2-3.2-3c6.8-3.1,12.2-6.2,16-9.3C375.4,521.7,378.4,518.1,380.5,513.9z M403.9,535
		l-3,2.4c-4.6-5-9.7-9.6-15.5-13.7l2.7-2.2C394.3,526,399.6,530.5,403.9,535z"/>
	<path fill="#FFFFFF" d="M429,533.7c-2.4,1.1-5,2.3-8,3.5c-0.4-1.1-1.2-2-2.5-2.7c5.2-1.3,9.5-3,12.8-5.1c3.3-2.1,5.9-3.8,7.6-5.2
		c1.8-1.4,2.9-2.9,3.5-4.5c1.1,0.7,2.2,1.3,3.5,1.9c0.4,0.2,0.7,0.3,0.7,0.6s-0.2,0.3-0.6,0.3c-0.4,0-0.8,0.1-1.2,0.3
		c5.8,5.7,13.2,9.2,22.2,10.7c-1.1,0.9-1.8,1.9-2.2,3.1c-3.3-1-6.1-2-8.4-3.1c-0.1,1.2-0.2,2.2-0.2,3.1v9.3c0,0.9,0.1,1.9,0.3,3
		h-3.8V546h-20.2v3.6h-3.8c0.3-1.5,0.4-2.7,0.4-3.5v-9.5C429.2,535.6,429.1,534.6,429,533.7z M442.2,511.6c-0.9-1.4-2.2-2.9-3.8-4.4
		l3.2-1.3c1.6,1.8,3,3.7,4.3,5.7c8.9,0,15.1-0.1,18.5-0.3v8.9H461V514H425v6.4h-3.3v-9.2C424,511.5,430.8,511.6,442.2,511.6z
		 M435.6,515.6c0.8,0.9,1.7,1.6,2.7,2c0.4,0.2,0.5,0.3,0.5,0.5c0,0.2-0.2,0.3-0.6,0.3c-0.7,0-1.7,0.6-3.1,1.6
		c-3.6,2.6-7,4.8-10.1,6.6c-0.4-1-1.3-1.8-2.5-2.4C428.7,521.6,433.1,518.7,435.6,515.6z M443,524.3c-5,4.1-9.3,7.1-13,8.9
		c2,0.1,5.9,0.2,11.9,0.2c6,0,10.5-0.1,13.7-0.2C451.6,531.2,447.4,528.3,443,524.3z M452.8,543.8v-8.1h-20.2v8.1H452.8z
		 M462.5,523.6l-2.2,2.2c-3.3-2.8-7.5-5.3-12.7-7.7l1.6-2.1C454.5,518.5,458.9,521,462.5,523.6z"/>
	<path fill="#FFFFFF" d="M498.5,539.6c-3.1,0.6-8.7,2-16.8,4.3c-0.4-1.2-1-2.4-1.9-3.6c4.3,0,10.5-1.2,18.6-3.5
		c-0.1,0.4-0.2,0.9-0.2,1.3C498.2,538.6,498.3,539.1,498.5,539.6z M491.1,521.9l-5.7,0.6c-1.9,0.2-3.3,0.4-4,0.6
		c0-1.3-0.5-2.3-1.4-3c2-0.9,3.8-2.4,5.4-4.8c1.6-2.3,3.5-5.5,5.5-9.4c0.9,0.4,2.2,0.9,3.8,1.5c0.5,0.2,0.7,0.4,0.7,0.7
		c0,0.3-0.3,0.5-0.8,0.6c-0.5,0.1-1.5,1-2.8,2.5c-1.3,1.5-3.6,4.4-6.7,8.7l7.4,0c1.5-2,2.5-3.7,3-5.3c1.1,0.9,2.3,1.6,3.5,2
		c0.4,0.2,0.7,0.4,0.7,0.6c0,0.3-0.3,0.5-0.8,0.6c-0.5,0.2-1.5,1-3,2.6c-1.4,1.6-4.5,5.2-9.1,11c4.3-0.2,7.7-0.5,10.1-0.7
		c0,0.8,0,1.6,0,2.4l-9.3,0.6c-1.8,0.2-3.5,0.4-4.9,0.8c-0.1-1-0.6-1.9-1.6-2.8c1.3-0.3,2.7-1.3,4.2-2.9
		C486.6,527.3,488.6,525,491.1,521.9z M515.1,544.3c-2.9,2-7.1,4-12.5,5.9c-0.5-1.3-1.6-2.1-3.3-2.5c5.4-1.2,9.9-2.8,13.6-4.9
		c-2.2-1.7-4.2-3.9-6-6.5c-1.9,3.6-5.6,7.8-11.3,12.5c-0.8-1.2-2.1-1.8-4-1.9c8-4.1,12.9-9.8,14.6-17.3c-3.8,0-6.6,0.2-8.6,0.4V527
		c2.5,0.3,5.6,0.4,9.1,0.4c0.2-1.2,0.4-2.5,0.5-3.9c-3.4,0-6,0.2-8,0.4V521c2.4,0.3,5.6,0.4,9.7,0.4h7c2.9-2.7,4.9-5.8,6-9.2
		c1.2,0.7,2.3,1.2,3.1,1.4c0.8,0.2,1.2,0.4,1.2,0.6s-0.3,0.4-0.8,0.6c-0.5,0.2-1.2,0.8-2,1.6s-2.2,2.5-4.2,5.1
		c3.4,0,6.3-0.2,8.5-0.4v2.9c-2.3-0.3-5.7-0.4-10.2-0.4h-7.2c-0.1,1.1-0.3,2.4-0.6,3.9h9.6c4.4,0,7.8-0.1,10.2-0.4v2.9
		c-2.4-0.3-5.8-0.4-10.2-0.4h-10c-0.3,1-0.5,2-0.9,2.9c8.9,0,14.3-0.1,16.1-0.2c-1.9,4.4-4.4,7.9-7.4,10.4c2.9,1.5,7.2,2.8,13,3.8
		c-1.3,0.9-2.2,1.9-2.6,2.9C522.4,547.9,518.2,546.2,515.1,544.3z M525.3,507.6c0.8,1,1.8,1.9,2.8,2.5c0.3,0.2,0.4,0.3,0.4,0.6
		s-0.1,0.4-0.4,0.5c-0.2,0.1-0.7,0.2-1.3,0c-0.6-0.1-1.3-0.2-2.2-0.2c-0.9,0-2.2,0.1-3.9,0.3c-4,0.5-10.8,1-20.3,1.6
		c-0.1-1-0.9-2-2.5-2.9c2,0.2,4.7,0.2,8.1,0.2c3.4,0,7.1-0.3,11-0.8C521,509,523.7,508.4,525.3,507.6z M507.7,518.7l-2.6,1.4
		c-0.8-1.6-2-3.1-3.8-4.3l2.2-1.4C505.1,515.7,506.5,517.2,507.7,518.7z M514.9,541.3c2.7-2,4.5-4.3,5.4-6.9h-11.8
		C510.5,537.4,512.6,539.7,514.9,541.3z M515.7,518.6l-2.7,1c-0.7-2.1-1.7-3.8-3.3-5.2l2.6-1.2C513.7,514.6,514.9,516.4,515.7,518.6
		z"/>
	<path fill="#FFFFFF" d="M557,541.9c0,4.1-1.9,6.6-5.7,7.5v-2.1c1.2-0.3,2-0.8,2.5-1.5c0.5-0.7,0.7-1.9,0.7-3.5h-3.2v-5h5.7V541.9z"
		/>
	<path fill="#FFFFFF" d="M616.1,517.6c3.4-0.1,5.8-0.2,7.3-0.4v3c-1.5-0.2-3.9-0.3-7.3-0.4v2.1c4.2,3.3,7,5.6,8.3,6.9l-2.9,2
		c-1.4-1.9-3.2-3.8-5.4-5.9v16.1c0,3.2,0.1,6.1,0.4,8.9h-3.9c0.3-2.8,0.4-5.8,0.4-8.9v-13.6c-1.6,4.4-3.8,8.4-6.4,12.1
		c-1.1-1-2.2-1.6-3.5-1.7c3.9-3.7,7.2-9.4,9.9-17.1v-0.9c-4,0.1-6.7,0.2-8.2,0.4v-3c1.5,0.2,4.2,0.3,8.2,0.4c0-5.6-0.2-9.2-0.5-11
		c1.4,0.3,2.8,0.4,4.1,0.4c0.6,0,0.9,0.1,0.9,0.3c0,0.2-0.2,0.5-0.7,1s-0.7,1.5-0.7,3V517.6z M634.7,515.7c-4.6,0-8.6,0.1-11.8,0.4
		V513c3.6,0.3,7.7,0.4,12.2,0.4l0.4-2.6c0.2-1.1,0.3-1.9,0.3-2.4c0-0.6-0.1-1.1-0.2-1.6c1.6,0.4,2.9,0.7,4,0.7
		c0.6,0,0.9,0.2,0.9,0.6c0,0.3-0.2,0.5-0.5,0.7c-0.7,0.4-1.2,1.2-1.4,2.4l-0.4,2.2c6.4,0,11.5-0.2,15.1-0.4v3.1
		c-3-0.3-8.2-0.4-15.5-0.4l-0.8,4.3c4.3,0,8.3-0.1,12.2-0.2c-0.2,0.7-0.3,3.4-0.3,8.2v17c2.6-0.1,4.7-0.2,6.2-0.3v3.1
		c-3.3-0.3-9.1-0.4-17.5-0.4c-8.4,0-14.3,0.1-17.5,0.4v-3.1l6.7,0.3v-17.8c0-1.1-0.1-3.6-0.3-7.5c4.6,0.2,7.1,0.2,7.8,0.2
		L634.7,515.7z M645.5,526.4v-4.4h-15.8v4.4H645.5z M629.7,528.4v4.2h15.8v-4.2H629.7z M629.7,534.7v4.2h15.8v-4.2H629.7z
		 M629.7,541v4.1h15.8V541H629.7z"/>
	<path fill="#FFFFFF" d="M677.9,517c2,0,3.7-0.1,5-0.4v3c-1.4-0.2-3.1-0.3-5-0.3v2.9c3,2.3,5.6,4.8,7.8,7.4l-2.9,2
		c-1.2-2.1-2.9-4.2-4.9-6.3v15.6c0,3.4,0.1,6.3,0.4,8.9h-3.9c0.3-2.6,0.4-5.6,0.4-8.9v-14.7c-1.5,4.5-3.4,8.4-5.5,11.8
		c-1.1-1.2-2.2-2-3.2-2.4c3.4-4.1,6.3-9.5,8.6-16.2c-2.8,0-4.9,0.1-6.5,0.4v-3c1.5,0.3,3.7,0.4,6.6,0.4c0-5.1-0.2-8.7-0.5-10.8
		c1.4,0.3,2.8,0.4,4.1,0.4c0.6,0,0.9,0.1,0.9,0.3s-0.2,0.5-0.7,1c-0.5,0.5-0.7,1.5-0.7,3V517z M692.4,527.5
		c1.3-3.5,2.1-7.3,2.3-11.5h-4.2c-3.4,0-5.7,0.1-7,0.2v-2.8c1.5,0.2,3.8,0.3,7,0.3c3.2,0,5.7-0.1,7.6-0.3
		c-0.5,6.7-1.7,12.3-3.6,16.8c2.1,2.8,4.3,5.8,6.4,9.1l-2.9,1.7c-1.7-2.9-3.3-5.6-5-7.9c-2.3,4.1-5.7,7.8-10.2,11.2
		c-0.8-0.9-1.9-1.6-3.3-2c5.2-3,9.1-7,11.6-11.9c-2.2-3.1-4.6-5.9-7.2-8.4l2.4-1.6C688.4,522.5,690.4,524.9,692.4,527.5z
		 M712.5,519.8v25.6c0,1.4-0.3,2.3-1,2.8c-0.6,0.5-1.6,0.9-2.8,1c-1.3,0.2-2.7,0.3-4.2,0.5c-0.1-1.4-0.7-2.6-1.9-3.8
		c1.9,0.3,3.3,0.4,4.2,0.4c0.9,0,1.5-0.1,1.9-0.3c0.4-0.2,0.6-0.7,0.6-1.4v-24.8c-5.3,0-8.7,0.1-10.2,0.4v-3c1.6,0.3,5,0.4,10.2,0.4
		c0-6-0.2-9.8-0.5-11.5c1,0.2,1.7,0.4,2.1,0.4c0.4,0,1,0.1,1.8,0.1c0.8,0,1.2,0.1,1.2,0.3s-0.2,0.4-0.5,0.6
		c-0.6,0.3-0.9,0.9-0.9,1.9v8.3c1.9,0,3.6-0.1,4.9-0.3v3C716.1,519.9,714.5,519.8,712.5,519.8z M707.4,533.7l-3,1.1
		c-1.2-3.3-3-6.6-5.3-10l2.7-1.2C703.9,526.4,705.7,529.8,707.4,533.7z"/>
	<path fill="#FFFFFF" d="M758.7,531.4h-8.3c-0.2,5.3-1.2,9.1-3,11.4s-6.1,4.6-13,7.1c-0.5-1.2-1.4-2.2-2.7-2.8
		c4.6-1.2,7.9-2.4,10-3.5c2.1-1.1,3.6-2.6,4.3-4.4c0.8-1.8,1.1-4.3,1.1-7.7c-5.3,0-9.5,0.1-12.6,0.3v-3c4.2,0.3,10.9,0.4,20,0.4
		s15.7-0.1,19.9-0.4v3c-3.2-0.2-7.3-0.3-12.4-0.3v11.1c0,1.5,0.5,2.4,1.5,2.7c1,0.3,2.9,0.5,5.7,0.5c2.8,0,4.5-0.3,5.2-1
		c0.7-0.7,1.1-1.9,1.4-3.7c0.8,0.9,1.9,1.5,3.3,1.9c-0.5,1.7-1.1,2.9-1.8,3.6c-0.6,0.7-1.6,1.2-3,1.5s-3.6,0.4-6.6,0.4
		s-5.1-0.1-6.3-0.4c-1.2-0.3-2-0.7-2.3-1.2c-0.3-0.6-0.5-1.5-0.5-2.7V531.4z M753.5,512.5c-1.1-1.5-2.5-3.1-4.2-4.8l3.2-1.7
		c1.6,2,3.1,4.2,4.4,6.5c8.7,0,14.8-0.1,18.1-0.3v9.1l-3.4,0V515H737v6.4h-3.3v-9.2C735.9,512.4,742.5,512.5,753.5,512.5z
		 M767.9,523.5c-2.8-0.3-7.3-0.4-13.6-0.4c-6.2,0-10.8,0.1-13.6,0.4v-2.9c3.5,0.3,8.3,0.4,14.2,0.4s10.3-0.1,13-0.4V523.5z"/>
	<path fill="#FFFFFF" d="M800.5,527.1c0,5.6-0.4,9.9-1,13c-0.6,3.1-1.7,6-3.4,8.7c-1-1-2.3-1.6-3.9-1.9c1.9-2.3,3.2-5,3.9-8
		c0.7-3.1,1.1-6.8,1.1-11.2c0-4.4-0.1-8.8-0.3-13.3c2.5,0.3,10,0.5,22.6,0.5c-0.3-4.3-0.7-7.1-1-8.5c1.4,0.3,2.8,0.5,4.1,0.5
		c0.7,0,1,0.2,1,0.4c0,0.3-0.2,0.5-0.5,0.8c-0.3,0.3-0.5,1.1-0.5,2.4s0.1,2.8,0.2,4.4c9,0,14.5-0.1,16.3-0.4v3.3
		c-2.9-0.2-8.3-0.3-16.1-0.3c0.4,5.8,1.4,10.9,3.1,15.4c2.9-3.8,4.8-8,5.9-12.8c1.4,0.8,2.5,1.2,3.4,1.4c0.9,0.2,1.3,0.4,1.3,0.7
		s-0.3,0.6-1,0.8c-0.6,0.3-2.2,2.8-4.6,7.5c-0.8,1.6-2.1,3.5-3.8,5.6c1.4,3,2.9,5.3,4.5,7s2.7,2.5,3.3,2.5c0.6,0,1-0.5,1.3-1.4
		c0.3-0.9,0.6-2.2,0.9-4c0.8,0.9,2,1.6,3.6,1.9c-0.8,2.5-1.6,4.3-2.4,5.5s-1.7,1.8-2.6,1.8c-1.3,0-3.1-1.1-5.4-3.3
		c-2.3-2.2-4.2-4.6-5.6-7.2c-3.6,4-7.4,7.4-11.2,10.2c-0.9-1-2.1-1.7-3.6-2.2c4.5-2.3,9-6,13.4-11.1c-2.2-5.8-3.5-12-4-18.5h-19.3
		c0,1.7,0.1,4.1,0.1,7.2h6.6c3.3,0,5.9-0.2,7.8-0.5l-1.1,15.5c-0.1,1.6-0.7,2.8-1.8,3.5c-1.1,0.7-2.9,1.1-5.2,1.1
		c-0.9,0-1.9,0-3.1-0.1c0-1.2-0.4-2.4-1.1-3.6c2.4,0.4,4.2,0.7,5.2,0.7c1,0,1.7-0.1,2.2-0.4c0.4-0.3,0.7-0.9,0.8-1.8l0.9-11.9H800.5
		z M835.9,512.4l-2.7,2.1c-1.4-1.8-3.6-3.7-6.5-5.8l2.6-1.9C832,508.7,834.2,510.5,835.9,512.4z"/>
	<path fill="#FFFFFF" d="M131.4,584.2c-5,5.7-12.3,10.9-21.9,15.6c-0.7-1.3-1.7-2.2-3.1-2.8c5.3-1.5,10.5-4.1,15.5-7.9
		c5-3.8,8.1-7.2,9-10.4c1.2,0.9,2.3,1.4,3.6,1.7c0.6,0.1,0.9,0.3,0.9,0.5c0,0.3-0.2,0.4-0.7,0.5c-0.4,0.1-1,0.4-1.6,0.9
		c3.8,3.9,7.5,6.9,11.1,9c3.6,2.1,7.7,3.7,12.1,4.7c-1.1,0.7-1.8,1.6-2.2,2.9C145.8,596.2,138.2,591.3,131.4,584.2z M145,619
		c-10.5,0.3-17.8,0.6-21.9,0.8c-4.1,0.2-7.1,0.6-9,1.3c-0.2-1.1-0.7-2.2-1.5-3.3c1.6-0.5,3.1-1.2,4.3-2.1c1.3-0.9,3-2.5,5.3-4.7
		s3.9-4,4.9-5.5c-7.3,0-13.1,0.2-17.2,0.4v-3.2c4.9,0.3,12.1,0.4,21.4,0.4s16.5-0.1,21.4-0.4v3.2c-4.2-0.3-12.1-0.4-23.8-0.4
		c0.5,0.4,1.1,0.8,1.8,1.2c0.7,0.4,1,0.7,1,1s-0.3,0.4-0.8,0.4c-0.6,0-1.7,0.8-3.6,2.3c-1.8,1.5-4.4,3.8-7.8,7l23.1-0.7
		c-1.7-1.7-3.9-3.4-6.4-5.2l2.5-2c4.5,3.5,8.6,7.1,12.3,10.8l-3,2L145,619z M143.8,598.4c-2.8-0.3-6.9-0.5-12.4-0.5
		c-5.4,0-9.6,0.2-12.4,0.5v-3.4c3,0.3,7.1,0.5,12.5,0.5s9.5-0.2,12.4-0.5V598.4z"/>
	<path fill="#FFFFFF" d="M176.8,591.7c-3.4,0-6.1,0.1-8,0.4v-3c1.9,0.3,4.5,0.4,8,0.4c-0.1-5.2-0.3-8.5-0.7-10.2
		c0.4,0.1,0.8,0.1,1.3,0.2c0.5,0.1,1.4,0.1,2.6,0.1c1.2,0,1.8,0.1,1.8,0.3s-0.3,0.5-0.9,0.9c-0.6,0.4-0.9,1-0.9,1.8v6.8
		c2.9,0,5.2-0.1,7.1-0.4v3c-1.9-0.3-4.3-0.4-7.1-0.4v9.2l4.5-2.2c0.1,0.4,0.4,0.9,0.7,1.4c0.3,0.5,0.5,0.9,0.5,1l-5.7,2.6v14.5
		c0,1.2-0.2,2-0.5,2.6c-0.4,0.6-1.1,1-2.2,1.3c-1.1,0.3-2.9,0.6-5.3,0.8c0-0.7-0.1-1.3-0.2-1.7c-0.2-0.4-0.5-1-1.1-1.6
		c1.1,0,2,0,2.9,0c0.9,0,1.6-0.1,2-0.2c0.5-0.2,0.8-0.4,1-0.9c0.1-0.4,0.2-1.1,0.2-2v-11.3c-2.2,1-4.3,2-6.4,3.1
		c-0.1-0.9-0.7-2-1.7-3.2c3.1-0.8,5.8-1.7,8.1-2.7V591.7z M205,613.8c2.1,1.3,4.1,2.4,6.1,3.2c2,0.9,4.7,1.6,8.1,2.3
		c-1.1,0.6-1.9,1.6-2.4,3c-5.5-1.9-10.1-4.1-14-6.8c-3.6,2.6-8.8,5-15.6,7.2c-0.5-1.3-1.5-2.2-3-2.8c5.9-0.8,11.3-2.9,16.3-6.1
		c-2.9-2.3-5.4-5.5-7.7-9.5c-1.2,0.1-2.2,0.3-2.8,0.4v-2.8c3.1,0.2,7,0.2,11.9,0.2c4.9,0,8.7-0.1,11.6-0.2
		C211.1,607,208.2,610.9,205,613.8z M185.3,582.4c2.3,0.3,5.2,0.5,8.5,0.5c3.3,0,7.3-0.2,11.8-0.6c4.6-0.4,7.5-1,8.8-1.8
		c0.5,1.2,1.2,2.1,1.9,2.8c0.2,0.2,0.3,0.4,0.3,0.6s-0.2,0.3-0.6,0.3c-0.1,0-0.3,0-0.4,0c-0.4-0.1-1.3-0.1-2.6-0.1
		c-1.3,0-3.3,0.1-5.7,0.4c-6.4,0.7-13.2,1.1-20.2,1.3C186.8,584.3,186.3,583.2,185.3,582.4z M205.4,595c2.8-3,4.8-6,6-8.8
		c1.3,0.8,2.3,1.3,2.8,1.5c0.6,0.2,0.9,0.4,0.9,0.6s-0.3,0.4-0.8,0.6c-0.5,0.2-1.2,0.7-2,1.5c-0.8,0.8-2,2.3-3.6,4.5
		c3.1-0.1,6.1-0.2,9.1-0.3v7.2h-3.2v-4.7h-25.1v4.9h-3v-7.4C188.3,594.9,194.6,595,205.4,595z M189.5,588.7l2.2-1.3
		c2.1,1.8,3.8,3.4,4.9,5l-2.5,1.6C193.2,592.2,191.6,590.5,189.5,588.7z M195.8,604.2c2,3.5,4.3,6.2,6.9,8.1c2.7-2.2,4.7-4.9,6-8.1
		H195.8z M198.5,587.3l2.1-1.2c1.8,1.8,3.3,3.7,4.5,5.7l-2.5,1.3C202,591.7,200.6,589.7,198.5,587.3z"/>
	<path fill="#FFFFFF" d="M256.8,592.1l10.6-7.6h-13.3c-6.9,0-11.6,0.1-14.3,0.3v-2.8c3.2,0.3,8.7,0.4,16.5,0.4
		c7.8,0,13.4-0.1,16.8-0.4v2.6c-0.4,0-1,0.3-1.8,0.7c-0.8,0.5-2.1,1.4-4.1,2.7l-7.9,5.7c0.9,0.6,1.8,1.2,2.6,1.9l-2.2,1.9
		c9,0,15.9-0.1,20.7-0.4l-4.2,9.5l-3.4-0.9l2.7-6h-16.5v17.7c0,1.4-0.3,2.4-0.8,3.1s-1.6,1.2-3.2,1.5c-1.6,0.3-4,0.4-7.3,0.4
		c0.1-1,0-1.8-0.3-2.4c-0.3-0.6-0.8-1.2-1.5-1.8c3,0.5,5.1,0.8,6.3,0.8c1.2,0,2-0.2,2.5-0.5c0.5-0.3,0.7-1,0.7-2v-16.9
		c-11.8,0-19.3,0.1-22.4,0.4v-3c3.5,0.3,7.1,0.4,10.8,0.4h15c-3.2-2.8-7.3-5.5-12.2-8.2l1.9-2C251.1,588.7,253.8,590.3,256.8,592.1z
		"/>
	<path fill="#FFFFFF" d="M302,589.6c-1.9,1.8-3.8,3.4-5.8,4.7c-0.7-0.8-1.7-1.4-3-1.9c3.1-1.6,6-3.8,8.7-6.9c2.7-3,4.3-5.3,4.9-7
		c0.9,0.8,2,1.4,3.1,1.8c0.5,0.2,0.7,0.4,0.7,0.7c0,0.3-0.3,0.5-1,0.7c-0.6,0.2-2.1,1.6-4.3,4.2v20.6h-3.8c0.4-2.2,0.6-3.9,0.6-5.2
		V589.6z M303.8,609.9c-1.8,4.1-3.9,7.6-6.3,10.4l-3.3-1.3c3-2.5,5.1-5.9,6.3-10.2L303.8,609.9z M316.8,587.9
		c-1.8,2.2-3.7,4.3-5.8,6.2c-0.8-0.7-2-1.3-3.6-1.7c2.5-1.5,4.7-3.4,6.7-5.7c2-2.4,3.4-4.8,4.2-7.2c1,0.6,2.2,1.1,3.6,1.5
		c0.6,0.2,0.9,0.4,0.9,0.7c0,0.3-0.4,0.6-1.2,0.8c-0.3,0.1-0.7,0.3-1.1,0.7c-0.4,0.4-1.1,1.2-2,2.3c10.7,0,18.6-0.1,23.8-0.3l-4.2,8
		l-3.1-1l2.3-4.3H316.8z M334.1,615.8c-0.6,1.5-1.3,2.6-2.1,3.5s-1.8,1.5-3,1.9c-1.2,0.3-3.9,0.5-8,0.5c-4.1,0-6.9,0-8.5-0.1
		c-1.6-0.1-2.8-0.4-3.6-1c-0.8-0.6-1.2-1.3-1.2-2.2v-6.5c0-1.4-0.1-2.3-0.2-2.8c0.9,0.1,1.7,0.2,2.4,0.2l1.6,0
		c0.4,0,0.7,0.1,0.7,0.4s-0.2,0.5-0.6,0.8c-0.4,0.3-0.6,0.8-0.6,1.5v5.1c0,0.6,0.3,1,0.8,1.3c0.6,0.3,1.9,0.5,4,0.6
		c2.1,0.1,3.7,0.1,4.9,0.1c3,0,5.4-0.2,7-0.7c1.7-0.5,2.7-1.8,3.1-4.1C331.9,615.3,333,615.8,334.1,615.8z M311.7,604.4
		c-0.7-0.8-1.7-1.4-3-1.8c4.3-2.7,7.2-5.9,8.6-9.5c0.9,0.7,1.8,1.2,2.5,1.3c0.8,0.2,1.2,0.4,1.2,0.6c0,0.3-0.3,0.5-1,0.8
		c-0.7,0.3-1.6,1.1-2.8,2.6C315.3,600.7,313.5,602.7,311.7,604.4z M325.1,613.2l-2.8,1.9c-2-2.9-4.4-5.2-7.3-6.7l2.1-1.9
		C319.6,608.1,322.2,610.3,325.1,613.2z M324.1,590.6c1.5,0.2,2.8,0.3,3.7,0.3c1,0,1.4,0.1,1.4,0.2c0,0.2-0.2,0.4-0.7,0.7
		c-0.5,0.3-0.7,0.9-0.7,1.6v8.3c0,1.3-0.2,2.2-0.5,2.8c-0.4,0.6-1.1,1-2.2,1.3c-1.1,0.3-2.9,0.5-5.4,0.6c0-1.5-0.4-2.6-1.1-3.3
		c1.6,0.2,2.8,0.3,3.7,0.3c0.9,0,1.5-0.1,1.8-0.5c0.3-0.3,0.5-0.8,0.5-1.6v-5.9C324.6,593.5,324.5,591.8,324.1,590.6z M341.7,601.1
		l-2.6,2c-2.2-2.8-4.9-5.5-8.1-8l2.1-1.7C336.3,595.7,339.2,598.3,341.7,601.1z M343.7,615.6l-2.7,1.9c-2-2.8-5.1-5.7-9.3-8.6
		l2.4-1.9C337,609,340.2,611.9,343.7,615.6z"/>
	<path fill="#FFFFFF" d="M376.2,588.5h-2.3c-4.6,0-8.3,0.1-11.3,0.3v-3c3,0.2,6.8,0.3,11.3,0.3h3.1c0.9-2.7,1.4-5.1,1.6-7.4
		c1.3,0.3,2.8,0.6,4.3,0.7c0.7,0.1,1.1,0.2,1.1,0.5c0,0.3-0.2,0.6-0.6,0.8c-0.4,0.3-0.8,0.7-1.1,1.4c-0.4,0.7-0.9,2-1.7,3.9h7.9
		c4.6,0,8.3-0.1,11.3-0.3v3c-3-0.2-6.8-0.3-11.3-0.3h-8.9l-2.7,6.8h11.4c8.7,0,14.4-0.1,16.9-0.3v2.9c-2.5-0.2-8.1-0.3-16.9-0.3H376
		l-2.4,6.1h14c4.3,0,7.7-0.1,10.4-0.4v2.7c-0.9,0-2.5,0.9-4.9,2.7c-2.4,1.8-5.7,4.5-9.8,8c3.8,1.5,7.2,3,10.2,4.5l-2.1,2.5
		c-7.7-4-16.2-7.6-25.3-10.8l1.4-2.1c3.9,1.3,8.2,2.9,12.8,4.8l11.5-9.5h-12.7c-4,0-7.1,0.3-9.3,0.9c-0.5-1.1-1.1-1.9-1.9-2.5
		c0.9-0.4,1.6-1.1,2.3-2.1c0.7-1,1.4-2.5,2.3-4.6c-7.1,0-12.2,0.1-15.4,0.3V595c3.3,0.2,8.7,0.3,16.3,0.3
		C374.9,591.9,375.8,589.6,376.2,588.5z"/>
	<path fill="#FFFFFF" d="M463.4,590.5c-1.6-0.2-5.3-0.3-11.1-0.3h-24.9c0.1,9-0.3,15.6-1.1,19.8c-0.8,4.3-2.3,8-4.3,11.2
		c-1.2-0.9-2.6-1.2-4.2-1.1c2-2.3,3.4-4.6,4.2-6.9s1.4-5.2,1.7-8.8c0.3-3.6,0.4-7,0.4-10.1c0-3.2-0.2-7.5-0.5-12.9
		c1.3,0.3,7.9,0.4,19.8,0.4c11.9,0,18.6-0.1,20-0.4c-0.2,1.6-0.3,3.2-0.3,5S463.2,589.4,463.4,590.5z M459.8,587.9v-4.1h-32.4v4.1
		H459.8z M445.4,595.2c-4,0.2-8.5,0.3-13.4,0.4c0.1-1.1-0.4-2.1-1.4-2.9c2.3,0.3,5.5,0.5,9.5,0.5c4,0,7.9-0.2,11.6-0.5
		c3.7-0.4,6.4-0.9,7.9-1.5c0.8,0.9,1.5,1.7,2.2,2.3c0.2,0.2,0.3,0.4,0.3,0.6c0,0.2-0.1,0.3-0.4,0.3c-0.3,0-0.5,0-0.7-0.1
		c-0.2,0-0.6-0.1-1.2-0.1s-1.7,0.1-3.5,0.3c-1.8,0.2-4.3,0.3-7.7,0.5v2.8c5.6,0,9.8-0.1,12.5-0.2c-0.1,1.6-0.2,3-0.2,4.3
		c0,1.3,0.1,2.5,0.2,3.6c-3.3-0.1-7.5-0.1-12.5-0.1v2.5c9.5,0,15.4-0.1,17.5-0.3c-0.2,1.5-0.3,3.2-0.3,5.3v5.3
		c0,1.2-0.2,2.1-0.6,2.7c-0.4,0.6-1.2,1-2.5,1.2c-1.3,0.3-3.3,0.5-6.1,0.5c0-1.3-0.5-2.4-1.5-3.2c1.8,0.2,3.3,0.3,4.4,0.3
		c1.2,0,1.9-0.2,2.4-0.6c0.4-0.4,0.6-1.2,0.6-2.3v-6.9h-13.9v3.9l6.3-0.5l-1.5-1.8l2.3-1.2c2.1,2.5,3.8,4.7,4.9,6.7l-2.7,1.2
		c-0.5-1.1-1.1-2.2-1.6-3c-10,0.9-16.5,1.7-19.5,2.3c-0.1-1-0.5-2.1-1.3-3.1c2.6,0.1,5.9,0,9.8-0.2v-4.2h-11.9v12.6h-3.4
		c0.2-2.1,0.3-3.9,0.3-5.4v-4.2c0-1.3-0.1-3.1-0.2-5.3c3.1,0.2,8.2,0.3,15.2,0.3v-2.5c-5.2,0-9.2,0.1-12.1,0.2
		c0.2-1.1,0.3-2.5,0.3-4c0-1.5-0.1-2.8-0.3-4c2.7,0.2,6.7,0.2,12.1,0.2V595.2z M445.4,603.4v-3.7h-8.6v3.7H445.4z M448.7,599.8v3.7
		h9.2v-3.7H448.7z"/>
	<path fill="#FFFFFF" d="M488.9,588.7c1.2-3.3,1.9-6.4,2.1-9.3c1.4,0.4,2.9,0.7,4.3,1c0.4,0.1,0.6,0.2,0.6,0.4
		c0,0.2-0.1,0.4-0.4,0.7c-1,0.9-2.2,3.3-3.5,7.2c4,0,7.3-0.1,10.1-0.4c-0.3,1.2-0.4,2.7-0.4,4.3v22.7c0,2.6,0.1,4.9,0.4,6.9h-3.7
		v-4.4h-11.6v4.7H483c0.3-2.4,0.4-4.7,0.4-6.9v-23.1c0-1.5-0.1-2.9-0.4-4.3C484.6,588.5,486.5,588.6,488.9,588.7z M486.8,602.2h11.6
		v-11.1h-11.6V602.2z M498.4,604.6h-11.6v11h11.6V604.6z M511.2,590.5c-1.6,3.4-3.4,6.3-5.1,8.8c-1.1-0.6-2.2-1.1-3.4-1.4
		c2.4-3,4.1-5.8,5.2-8.5c1.1-2.7,2.1-5.9,3-9.7c1.4,0.6,2.8,1,4,1.1c0.5,0.1,0.8,0.2,0.8,0.4c0,0.2-0.2,0.5-0.7,0.8
		s-1.4,2.3-2.7,5.8h8.7c2.1,0,4.1-0.1,6.1-0.4c-0.2,1.4-0.3,3-0.4,4.7l-0.5,24.2c0,2.2-1.1,3.8-3.1,4.5c-2,0.8-5,1.1-8.9,1.1
		c-0.1-1.2-0.7-2.4-1.6-3.7c1.6,0.1,3.1,0.1,4.5,0.1s2.6-0.2,3.4-0.5c0.9-0.3,1.4-0.9,1.7-1.7c0.3-0.8,0.4-2.2,0.5-4l0.3-21.8H511.2
		z M517.9,608.6l-3.1,1.6c-2.2-4.5-4.2-8.1-6.2-10.6l3-1.8C513.8,600.8,515.9,604.4,517.9,608.6z"/>
	<path fill="#FFFFFF" d="M560,581.2c1.4,0.6,2.5,1,3.3,1.1c0.8,0.1,1.2,0.2,1.2,0.5c0,0.2-0.2,0.5-0.7,0.8c-0.5,0.3-1,0.8-1.5,1.5
		c-0.5,0.7-0.9,1.3-1.3,2c-2,4.1-4.1,7.4-6.1,9.9c-2,2.5-4.3,4.9-6.8,7.2c-0.8-0.9-2.1-1.6-3.7-2.2c4-2.4,7.5-5.7,10.2-9.9
		C557.4,587.9,559.2,584.3,560,581.2z M580.8,617c-7.6,0.3-13.7,0.6-18.2,0.9c-4.5,0.3-7.9,0.8-10.2,1.5c-0.4-1.6-1.2-2.9-2.2-4
		c0.9-0.2,1.8-0.6,2.5-1.1c0.7-0.5,2-1.8,3.9-3.9c1.9-2.1,3.6-4.4,5.3-6.9s2.9-4.9,3.7-7.1c1.6,0.8,3,1.3,4.2,1.6
		c0.5,0.2,0.8,0.3,0.8,0.5c0,0.2-0.3,0.4-0.8,0.5c-0.7,0.2-1.8,1.3-3.3,3.3c-3.4,4.7-6.9,9.1-10.3,13.2l22.6-1
		c-1.9-2.4-4.1-4.8-6.7-7.3l2.9-1.7c5.6,6,9.6,10.9,11.9,14.4l-3.3,1.6C582.9,620.1,582,618.6,580.8,617z M593,601
		c-1.5,0.7-2.7,1.6-3.7,2.8c-7.8-6.3-12.8-13.6-15-21.9l3.1-0.7c1.1,4.7,3.2,8.9,6.4,12.5S590.1,599.8,593,601z"/>
	<path fill="#FFFFFF" d="M613.4,617.8V607c0-1.5-0.1-2.9-0.3-4.3c3.6,0.3,9.2,0.4,16.8,0.4s13.2-0.1,16.8-0.4
		c-0.1,1.4-0.2,2.8-0.2,4.3v10.8c3,0,5.8-0.1,8.5-0.4v3.1c-3-0.3-11.2-0.4-24.8-0.4s-21.8,0.1-24.8,0.4v-3.1
		C607.9,617.7,610.6,617.8,613.4,617.8z M621.6,591.7c1.2,1,2.1,1.7,2.7,2c0.6,0.3,0.9,0.6,0.9,0.8c0,0.3-0.3,0.4-1,0.5
		c-0.7,0.1-1.9,0.6-3.9,1.8c-1.9,1.1-5.7,3.5-11.4,7.3c-0.6-1.1-1.6-2-3-2.5c2.7-0.9,5.6-2.3,8.7-4.2
		C617.7,595.4,620,593.5,621.6,591.7z M633.7,588.3c3.1-3.2,5.4-6.3,6.8-9.2c1.1,0.9,2.1,1.4,3,1.5c0.9,0.1,1.3,0.4,1.3,0.8
		s-0.3,0.7-0.9,0.9c-0.6,0.2-1.4,0.7-2.3,1.5c-0.9,0.8-2.4,2.3-4.5,4.6c6.9,0,11.9-0.2,15-0.5v3c-2.6-0.3-9.9-0.5-22-0.5
		c-12.1,0-19.5,0.2-22.1,0.5v-3c3.5,0.3,6.7,0.5,9.8,0.5H633.7z M624.7,585.8l-2.7,1.7c-1.7-2.1-4.1-4.2-7-6.2l2.3-1.8
		C619.9,581.4,622.4,583.5,624.7,585.8z M623.2,605.4h-6.6v12.4h6.6V605.4z M632.9,605.4h-6.7v12.4h6.7V605.4z M651.8,600.9
		l-2.4,2.4c-4.3-3.3-9.5-6.3-15.7-9.1l1.9-2.3C641.9,595.1,647.3,598.1,651.8,600.9z M643.2,617.8v-12.4h-7.1v12.4H643.2z"/>
	<path fill="#FFFFFF" d="M679.8,599.6c1,0.2,1.9,0.2,2.8,0.2l1.4,0c0.4,0,0.7,0.1,0.7,0.3c0,0.2-0.1,0.5-0.4,0.7
		c-0.5,0.5-0.8,1.6-0.9,3.2c-0.3,4-1.5,7.4-3.7,10.2c-2.2,2.8-5.2,5.4-9,7.8c-0.4-1.3-1.6-2.1-3.7-2.5c3.8-1.3,6.9-3.3,9.4-6.1
		c2.5-2.7,3.7-6.1,3.7-10.1C680.3,602,680.1,600.8,679.8,599.6z M693.6,598.8v7.3c0,1.9,0.1,3.5,0.2,4.7h-3.5v-13.3h-17.2V611h-3.5
		c0.2-1.1,0.3-2.7,0.3-4.7v-7.5c0-1.6-0.1-2.9-0.2-3.8c2.1,0.2,5.9,0.3,11.3,0.3c5.4,0,9.6-0.1,12.7-0.3
		C693.6,595.9,693.6,597.1,693.6,598.8z M691.5,592.5c-3.6-0.1-7.2-0.1-10.6-0.1c-3.4,0-6.7,0.1-9.9,0.2c0.3-1.4,0.4-3.2,0.4-5.4
		s-0.1-3.9-0.3-5c3.2,0.2,6.6,0.2,10.2,0.2c3.7,0,7.1-0.1,10.2-0.2c-0.1,1.6-0.2,3.5-0.2,5.7C691.4,590.1,691.4,591.6,691.5,592.5z
		 M688.3,590.1v-5.7h-13.6v5.7H688.3z M693,616.3l-2.2,2.1c-2.3-2-5.1-3.7-8.4-5.3l1.8-2.1C687.4,612.6,690.4,614.4,693,616.3z
		 M704.8,592.3c-0.1,7.5-1,13.6-2.5,18.2c-1.5,4.6-3.9,8.8-7.2,12.4c-0.9-1-2.2-1.5-4.1-1.8c3.8-3.1,6.5-6.8,8-11
		c1.5-4.2,2.4-10.2,2.6-17.8c-3.1,0.1-5.5,0.2-7.2,0.4v-3.1c1.6,0.3,4,0.4,7.2,0.4c0.1-5.1-0.2-8.7-0.9-10.9c1,0.2,1.9,0.3,2.7,0.3
		l2.2-0.1c0.6,0,0.9,0.1,0.9,0.4s-0.2,0.5-0.6,0.8s-0.7,1-0.8,2.2c-0.2,1.3-0.3,3.7-0.3,7.2c4.9,0,8.3-0.1,10.1-0.4l-0.8,27.3
		c0,1.3-0.3,2.3-0.7,3c-0.5,0.7-1.4,1.1-2.8,1.4c-1.4,0.3-3.7,0.5-6.7,0.5c0.1-1,0.1-1.7-0.1-2.2c-0.2-0.5-0.6-1-1.2-1.5
		c2.3,0.4,4,0.6,5.2,0.6c1.2,0,2-0.2,2.5-0.6c0.5-0.4,0.8-1.2,0.8-2.4l0.7-23.4H704.8z"/>
	<path fill="#FFFFFF" d="M745.5,592.6c-0.9-1.1-2.4-2.4-4.4-3.7l2-1.9c2.3,1.6,4.1,3.1,5.5,4.6l-1.4,0.9H760c1.7-1.8,3-3.8,3.8-6
		c1.1,0.8,2,1.2,2.8,1.4c0.8,0.1,1.2,0.4,1.2,0.7c0,0.3-0.4,0.6-1.1,0.9c-0.8,0.2-1.9,1.3-3.5,3.1c6,0,10.9-0.1,14.5-0.4v2.9
		c-3.1-0.3-10.9-0.4-23.5-0.4c-12.6,0-20.4,0.1-23.6,0.4v-2.9C733.4,592.4,738.3,592.5,745.5,592.6z M756.2,614.7
		c0,3.5,0.1,6.3,0.3,8.5h-4c0.2-1.5,0.3-4.3,0.3-8.5c-9.3,0-16.4,0.2-21.5,0.5v-3.1c5.1,0.3,12.3,0.5,21.5,0.5v-3.2
		c-8.3,0-13.1,0.1-14.4,0.4c0.1-2.8,0.2-5.1,0.2-6.7c0-1.6-0.1-3.7-0.2-6.4c1.7,0.3,7.1,0.5,16.1,0.5c9,0,14.3-0.2,15.8-0.5
		c-0.1,3.1-0.2,5.6-0.2,7.4c0,1.8,0.1,3.7,0.4,5.6c-1.5-0.3-6.3-0.4-14.3-0.4v3.2c9,0,16-0.2,21-0.5v3.1
		C772.2,614.9,765.2,614.7,756.2,614.7z M756.9,584.4c6.8,0,12.5-0.1,16.8-0.4v2.8c-3.9-0.3-10.2-0.4-19.1-0.4s-15.3,0.1-19.2,0.4
		V584c3.7,0.3,9.7,0.4,18,0.4c-0.9-1.4-2.2-2.7-4-4.1l3.1-1.7C754.1,580.1,755.6,582,756.9,584.4z M766.6,602.3v-3h-24.7v3H766.6z
		 M741.9,604.3v3.1h24.7v-3.1H741.9z"/>
	<path fill="#FFFFFF" d="M806.2,614.7c0,4.1-1.9,6.6-5.7,7.5v-2.1c1.2-0.3,2-0.8,2.5-1.5c0.5-0.7,0.7-1.9,0.7-3.5h-3.2v-5h5.7V614.7
		z"/>
	<path fill="#FFFFFF" d="M120.5,670.5l-2.2,2.7c-3.1-2.3-6.4-4.1-10-5.5l1.8-2.7C113.4,666.6,116.9,668.4,120.5,670.5z M122,677.9
		c-2.3,3.6-5.4,9.2-9.3,16.9c-1.1-0.9-2.4-1.6-3.7-2.1c3.8-4.9,7-10.5,9.8-16.8C119.7,676.8,120.8,677.5,122,677.9z M123,659.5
		l-2.3,2.7c-2.4-1.9-5.7-3.8-9.8-5.7l2-2.6C116.6,655.6,120,657.5,123,659.5z M137.2,658.1c-7,0.6-10.7,0.9-11.3,0.9
		c-0.1-0.8-0.5-1.8-1.4-2.8c6.1,0.1,11.9-0.2,17.2-1c5.3-0.8,8.6-1.5,9.8-2.2c0.5,1,1.3,1.9,2.3,2.8c0.3,0.3,0.4,0.5,0.4,0.8
		c0,0.3-0.2,0.4-0.5,0.4c-0.1,0-0.3,0-0.4-0.1c-0.4-0.2-1.3-0.3-2.5-0.3s-2.4,0.1-3.3,0.3c-1,0.2-3.2,0.5-6.6,0.8v8.7
		c7,0,12.2-0.1,15.4-0.4v3c-3.7-0.3-8.8-0.4-15.4-0.4v8c5.2,0,9-0.2,11.3-0.4c-0.3,1.2-0.4,2.6-0.4,4.3v7.9c0,1.9,0.1,3.9,0.4,5.8
		h-3.7v-3h-18.5v3.7H126c0.3-2,0.4-4,0.4-5.8v-8.6c0-2-0.1-3.4-0.3-4.3c2.3,0.3,6,0.4,11.1,0.4v-8c-6,0-11.1,0.1-15.1,0.4v-2.9
		c3.2,0.3,8.2,0.4,15.1,0.4V658.1z M129.8,689.1h18.5v-10.1h-18.5V689.1z"/>
	<path fill="#FFFFFF" d="M178.4,670.4c-3.6,0-6.6,0.1-9,0.4v-3.1c2.4,0.3,6.5,0.4,12.2,0.4c5.7,0,9.8-0.1,12.2-0.4v3.1
		c-2.4-0.3-6.3-0.4-11.8-0.4c-1.9,4.6-4.2,9.5-7.1,14.8l14.6-1.7c-1.5-2.7-3.3-5.4-5.5-8.1l2.7-1.6c3.2,4.4,6,8.9,8.4,13.7l-3.2,1.5
		c-0.3-1-0.7-2.1-1.3-3.3l-9.2,1.2c-4.5,0.6-7.9,1.2-10.4,2c-0.3-1.4-0.8-2.5-1.7-3.4c1-0.1,1.9-0.6,2.8-1.5c0.8-1,2-3.1,3.5-6.5
		C177.1,674.2,178,671.8,178.4,670.4z M192.3,660.2c-2.5-0.3-5.9-0.4-10.1-0.4c-4.2,0-7.6,0.1-10.1,0.4v-3.1
		c2.5,0.3,5.9,0.4,10.1,0.4c4.2,0,7.6-0.1,10.1-0.4V660.2z M205.7,664.5c-0.1,8.3-1,14.7-2.7,19.1c-1.7,4.5-4.8,8.5-9.4,12
		c-0.9-0.8-2.1-1.5-3.6-2.1c3.4-2,6-4.3,7.7-6.7c1.8-2.4,3-5.4,3.7-8.8c0.7-3.4,1-7.9,1.1-13.5c-3.7,0-6.7,0.1-9.1,0.4v-3.3
		c2.2,0.3,5.2,0.4,9.1,0.4c0-6-0.1-9.3-0.3-10c1.2,0.3,2.7,0.4,4.3,0.4c0.6,0,0.9,0.2,0.9,0.5c0,0.3-0.2,0.5-0.6,0.8
		c-0.4,0.3-0.7,0.9-0.8,1.9c-0.1,1-0.2,3.1-0.3,6.4c5.1,0,8.9-0.1,11.2-0.4l-0.8,26c-0.1,1.8-0.3,3.1-0.8,4
		c-0.5,0.9-1.4,1.5-2.8,1.9c-1.4,0.4-3.6,0.8-6.8,1.1c-0.2-1.5-0.8-2.8-1.8-3.9c2,0.2,3.7,0.3,5,0.3c1.3,0,2.2-0.2,2.8-0.6
		c0.6-0.4,1-1.5,1-3.2l0.8-22.6H205.7z"/>
	<path fill="#FFFFFF" d="M237.1,685.9v5.6h-3.7c0.3-1.8,0.4-4.1,0.4-6.8V661c0-2.5-0.1-4.3-0.3-5.3c1.2,0.3,4.1,0.4,8.9,0.4
		c4.8,0,7.8-0.1,8.9-0.4c-0.2,0.8-0.3,2.6-0.3,5.3v23c0,2,0.1,4.1,0.4,6.3h-3.8v-4.4H237.1z M247.6,670.2v-11.6h-10.5v11.6H247.6z
		 M247.6,683.7v-11.3h-10.5v11.3H247.6z M269.6,663.6c0-6.2-0.2-10.1-0.6-11.8c0.9,0.2,2.4,0.3,4.3,0.3c0.6,0,0.9,0.1,0.9,0.4
		c0,0.3-0.2,0.5-0.6,0.7c-0.4,0.2-0.6,0.8-0.6,1.9v8.5c3.1,0,5.8-0.2,8.4-0.4v3.2c-2-0.2-4.8-0.3-8.4-0.3v23.6
		c0,1.5-0.3,2.6-0.8,3.4c-0.5,0.8-1.6,1.4-3.3,1.8c-1.6,0.4-4.2,0.6-7.5,0.6c0-1.5-0.7-2.8-2-4c2.4,0.3,4.4,0.5,5.9,0.5
		s2.6-0.3,3.3-0.8c0.7-0.5,1.1-1.5,1.1-3.1v-22h-7c-4,0-7.4,0.1-10.3,0.4v-3.2c2.9,0.3,6.3,0.4,10.3,0.4H269.6z M266,679.9l-3.2,1.8
		c-1.8-3.3-4.4-6.4-7.7-9.4l2.8-1.6C261.4,674.2,264.1,677.2,266,679.9z"/>
	<path fill="#FFFFFF" d="M297.6,660.4c0.9,0.3,1.5,0.5,1.9,0.5c0.3,0,0.9,0.1,1.8,0.1c0.9,0,1.3,0.1,1.3,0.4s-0.3,0.5-0.8,0.9
		c-0.1,0.1-0.3,0.5-0.4,1.1c-0.1,0.6-0.2,1.3-0.2,2v30.3h-3.7c0.4-2.8,0.5-5,0.5-6.6v-22.7C297.9,664.3,297.8,662.3,297.6,660.4z
		 M309.7,658.2l-2.7,2.3c-1.7-2.2-4.3-4.4-7.8-6.5l2.1-2.1C304.6,654,307.5,656.1,309.7,658.2z M328.7,686.7
		c-2-0.2-5.6-0.3-10.7-0.3c-5.1,0-8.7,0.1-10.6,0.3c0.1-1.4,0.2-2.4,0.2-2.9v-15.5c0-1-0.1-1.9-0.2-2.9c1.9,0.2,5.5,0.3,10.6,0.3
		s8.7-0.1,10.7-0.3c-0.1,0.8-0.2,1.8-0.2,2.9v15.5C328.5,684.9,328.6,685.9,328.7,686.7z M325.3,674.9v-7.1h-14.8v7.1H325.3z
		 M310.6,677.2v7h14.8v-7H310.6z M339.2,655.8c-0.3,1.1-0.4,2.9-0.4,5.4v29c0,1.6-0.2,2.8-0.6,3.5c-0.4,0.7-1.2,1.3-2.3,1.5
		c-1.1,0.3-2.9,0.4-5.3,0.5c0.1-1.3-0.4-2.5-1.5-3.6c1.7,0.3,3,0.4,3.9,0.4c0.9,0,1.6-0.1,2-0.4c0.4-0.3,0.6-0.9,0.6-1.8v-31.7
		h-10.4c-3.9,0-7.3,0.1-10.1,0.3v-3c2.7,0.2,6.9,0.3,12.5,0.3C333.2,656.1,337.1,656,339.2,655.8z"/>
	<path fill="#FFFFFF" d="M369.6,668.6h-5.1V664h5.1V668.6z M369.6,687.9h-5.1v-4.6h5.1V687.9z"/>
	<path fill="#FFFFFF" d="M435.8,653l3.2,1.8l-10.6,14c1.5-0.4,2.9-0.7,4.3-0.7c2.9,0,5.5,1,7.7,3c2.2,2,3.3,4.4,3.3,7.3
		c0,2.9-1.2,5.4-3.6,7.4c-2.4,2-5.3,3-8.7,3c-3.4,0-6.2-1-8.5-3c-2.3-2-3.4-4.5-3.4-7.4c0-1.4,0.3-2.8,0.9-4.3
		c0.6-1.5,1.8-3.3,3.6-5.6L435.8,653z M439.7,678.3c0-2-0.8-3.7-2.4-5.1c-1.6-1.4-3.6-2.1-5.8-2.1c-2.3,0-4.2,0.7-5.8,2.1
		c-1.6,1.4-2.4,3.1-2.4,5.1c0,2,0.8,3.7,2.4,5.1c1.6,1.4,3.6,2.1,5.8,2.1c2.3,0,4.2-0.7,5.8-2.1C438.9,682,439.7,680.3,439.7,678.3z
		"/>
	<path fill="#FFFFFF" d="M494.2,678.9h-25.4c-0.4,6.4-3.1,11.9-8.1,16.6c-0.8-1.1-2-1.8-3.7-2c3-1.8,5.1-4.2,6.4-7.3
		c1.3-3.1,1.9-7.2,1.9-12.3v-12.8c0-3.1-0.1-5.2-0.2-6.3c3.5,0.2,9,0.2,16.4,0.2c7.4,0,12.9-0.1,16.4-0.2c-0.1,2.1-0.2,4.2-0.2,6.3
		v28.6c0,1.6-0.2,2.8-0.7,3.5s-1.5,1.2-3.1,1.4c-1.6,0.3-4.1,0.4-7.7,0.4c0.1-0.3,0.1-0.7,0.1-1c0-1.1-0.6-2.1-1.8-3
		c2.8,0.4,4.8,0.6,6.1,0.6s2.2-0.2,2.8-0.6s0.8-1.1,0.8-2.2V678.9z M468.9,665.9h25.4v-8.5h-25.4V665.9z M494.2,668.2h-25.4v8.4
		h25.4V668.2z"/>
	<path fill="#FFFFFF" d="M526.1,653.8h7.7v34.1h-3.9v-30.8h-6.2L526.1,653.8z"/>
	<path fill="#FFFFFF" d="M580.8,653.8v3.2h-14l-2,9.3c1.7-0.4,3.4-0.7,4.9-0.7c3.4,0,6.3,1.1,8.6,3.2c2.3,2.1,3.4,4.8,3.4,8
		c0,3.4-1.2,6.2-3.7,8.5c-2.5,2.3-5.8,3.4-9.9,3.4c-3.1,0-5.8-0.8-8-2.4c-2.2-1.6-3.5-3.9-4-6.7h4c0.5,1.9,1.5,3.4,3,4.4
		c1.5,1,3.2,1.5,5.2,1.5c2.6,0,4.8-0.8,6.7-2.5c1.9-1.7,2.8-3.8,2.8-6.3c0-2.3-0.8-4.2-2.5-5.6c-1.6-1.5-3.9-2.2-6.7-2.2
		c-2.5,0-5.3,0.6-8.5,1.8l3.7-16.9H580.8z"/>
	<path fill="#FFFFFF" d="M606.3,688.9v5.1h-4.4c0.6-2.4,0.9-4.8,0.9-7.2v-26.4c0-1.7-0.1-3.2-0.4-4.6c5.2,0.2,10.9,0.2,17.2,0.2
		s12.1-0.1,17.2-0.2c-0.6,1.3-0.9,2.8-0.9,4.5v24.9c0,3.9,0.2,6.6,0.6,8.1h-4.2v-4.4H606.3z M606.3,671.4h25.9v-12.9h-25.9V671.4z
		 M632.2,673.7h-25.9v12.8h25.9V673.7z"/>
	<path fill="#FFFFFF" d="M655.9,673.7h14.6v2.8h-14.6V673.7z"/>
	<path fill="#FFFFFF" d="M700,653l3.2,1.8l-10.6,14c1.5-0.4,2.9-0.7,4.3-0.7c2.9,0,5.5,1,7.7,3c2.2,2,3.3,4.4,3.3,7.3
		c0,2.9-1.2,5.4-3.6,7.4s-5.3,3-8.7,3c-3.4,0-6.2-1-8.5-3c-2.3-2-3.4-4.5-3.4-7.4c0-1.4,0.3-2.8,0.9-4.3c0.6-1.5,1.8-3.3,3.6-5.6
		L700,653z M703.9,678.3c0-2-0.8-3.7-2.4-5.1c-1.6-1.4-3.6-2.1-5.8-2.1c-2.3,0-4.2,0.7-5.8,2.1c-1.6,1.4-2.4,3.1-2.4,5.1
		c0,2,0.8,3.7,2.4,5.1c1.6,1.4,3.6,2.1,5.8,2.1s4.2-0.7,5.8-2.1C703.1,682,703.9,680.3,703.9,678.3z"/>
	<path fill="#FFFFFF" d="M758.4,678.9H733c-0.4,6.4-3.1,11.9-8.1,16.6c-0.8-1.1-2-1.8-3.7-2c3-1.8,5.1-4.2,6.4-7.3s1.9-7.2,1.9-12.3
		v-12.8c0-3.1-0.1-5.2-0.2-6.3c3.5,0.2,9,0.2,16.5,0.2s12.9-0.1,16.4-0.2c-0.1,2.1-0.2,4.2-0.2,6.3v28.6c0,1.6-0.2,2.8-0.7,3.5
		c-0.5,0.7-1.5,1.2-3.1,1.4c-1.6,0.3-4.1,0.4-7.7,0.4c0.1-0.3,0.1-0.7,0.1-1c0-1.1-0.6-2.1-1.8-3c2.8,0.4,4.8,0.6,6.1,0.6
		c1.3,0,2.2-0.2,2.8-0.6s0.8-1.1,0.8-2.2V678.9z M733,665.9h25.4v-8.5H733V665.9z M758.4,668.2H733v8.4h25.4V668.2z"/>
	<path fill="#FFFFFF" d="M790.3,653.8h7.7v34.1h-3.9v-30.8h-6.2L790.3,653.8z"/>
	<path fill="#FFFFFF" d="M822,653.8h24.9l-21,34.9l-3.2-1.4l18.1-30.3H822V653.8z"/>
	<path fill="#FFFFFF" d="M118.7,761.7v5.1h-4.4c0.6-2.4,0.9-4.8,0.9-7.2v-26.4c0-1.7-0.1-3.2-0.4-4.6c5.2,0.2,10.9,0.2,17.2,0.2
		c6.3,0,12.1-0.1,17.2-0.2c-0.6,1.3-0.9,2.8-0.9,4.5V758c0,3.9,0.2,6.6,0.6,8.1h-4.2v-4.4H118.7z M118.7,744.2h25.9v-12.9h-25.9
		V744.2z M144.6,746.5h-25.9v12.8h25.9V746.5z"/>
	<path fill="#FFFFFF" d="M183.2,760.3c0,4.1-1.9,6.6-5.7,7.5v-2.1c1.2-0.3,2-0.8,2.5-1.5c0.5-0.7,0.7-1.9,0.7-3.5h-3.2v-5h5.7V760.3
		z"/>
	<path fill="#FFFFFF" d="M236.4,735.4c-0.4,4.5-1,8.9-1.7,13.1l-3.6-0.5c0.7-2,1.2-3.9,1.5-5.7c0.3-1.8,0.4-4.2,0.3-7.3L236.4,735.4
		z M238.6,725.1c1.1,0.2,2.2,0.3,3.4,0.3c1.2,0,1.9,0.1,1.9,0.4c0,0.3-0.3,0.6-0.8,1c-0.5,0.4-0.8,1.1-0.8,2.2v31.6
		c0,2.2,0.2,4.8,0.5,7.9h-4.3c0.4-3.1,0.5-5.7,0.5-7.9v-29.2C239.2,728.8,239,726.7,238.6,725.1z M250.3,743.3l-3.3,1.1
		c-1-4.1-2.1-7.2-3.5-9.4l2.8-1.2C247.7,736.6,249.1,739.8,250.3,743.3z M262.2,749.1c-0.7,4.1-2.2,7.6-4.4,10.6
		c-2.2,3-5.5,5.8-9.8,8.6c-0.9-1-2.1-1.8-3.6-2.3c4.5-2.2,7.8-4.6,10.1-7.2c2.2-2.6,3.7-5.8,4.4-9.6c-4.7,0.1-8.6,0.2-11.6,0.5v-3.2
		c3.1,0.3,7.1,0.4,11.9,0.5c0.4-3.7,0.6-7.2,0.7-10.5c-4.8,0-8.1,0.1-10.1,0.2v-3c2.2,0.3,5.5,0.5,10.1,0.5c0-2.4-0.2-5.3-0.5-8.8
		c1,0.2,1.8,0.3,2.5,0.3c1.8,0,2.7,0.1,2.7,0.4s-0.2,0.5-0.7,0.8c-0.3,0.2-0.4,0.8-0.6,1.8c-0.1,1-0.2,2.9-0.2,5.6
		c5.6,0,9.7-0.2,12.4-0.5l-0.9,13.3c2.7-0.1,4.8-0.2,6.3-0.5v3.2c-3.2-0.3-8.3-0.5-15.3-0.5c3.6,7.2,8.9,12.3,16,15.3
		c-1.3,0.8-2.3,1.8-3,2.9c-7.3-4.6-12.5-10.7-15.7-18.2H262.2z M263.1,736.3c-0.1,3.4-0.3,6.9-0.6,10.5h8.9l0.6-10.5H263.1z"/>
	<path fill="#FFFFFF" d="M316.7,733.5c-9.1,0-15,0.1-17.5,0.3v-3.1c2.8,0.3,8.7,0.5,17.5,0.5c0-3.4-0.1-5.6-0.3-6.7
		c1.6,0.3,2.9,0.5,3.9,0.5c1,0,1.4,0.1,1.4,0.3s-0.3,0.6-0.8,1c-0.5,0.5-0.8,1.2-0.8,2v2.8c8.6,0,14.4-0.2,17.3-0.5v3.1
		c-2.7-0.2-8.4-0.3-17.3-0.3v11.9c9.1,0,15.9-0.2,20.6-0.5v3.1c-3.5-0.2-9.2-0.3-17.1-0.3c3.2,3.4,6.2,6,9.2,7.9
		c3,1.9,6.4,3.4,10.4,4.5c-1.2,0.9-2,1.9-2.5,3.1c-5.2-2.5-9.2-4.9-12.2-7.2c-3-2.3-5.5-5.1-7.6-8.3H320v12.8c0,2.6,0.1,5.2,0.3,7.9
		h-4c0.3-2.6,0.4-5.3,0.4-7.9v-12.8h-0.7c-2.2,3.3-4.9,6.3-8,8.8c-3.1,2.5-7,5-11.9,7.4c-0.5-1-1.5-2-3.1-2.8
		c3.8-1.1,7.5-2.9,11.1-5.4c3.6-2.5,6.5-5.1,8.7-8c-7.6,0-13.2,0.1-16.9,0.3v-3.1c4.6,0.3,11.4,0.5,20.6,0.5V733.5z M311.6,742.2
		l-2.5,1.6c-1.9-2.4-4.3-4.6-7.1-6.7l2-1.7C306.9,737.5,309.4,739.7,311.6,742.2z M331.5,734.8c1.1,0.8,2.1,1.3,3,1.5
		c0.4,0.1,0.6,0.2,0.6,0.5c0,0.2-0.2,0.4-0.7,0.5c-0.5,0.2-1.3,0.8-2.4,2.1c-1.1,1.2-2.7,2.8-4.8,4.8l-2.4-1.5
		C327.9,740.1,330.2,737.5,331.5,734.8z"/>
	<path fill="#FFFFFF" d="M393.1,736l-11.9,0.4c-0.7,1.5-1.6,2.8-2.7,4.1c13.6,0,22.1-0.1,25.6-0.3v2.8c-4.4-0.2-9.3-0.3-14.8-0.3
		c4.3,4.1,9.9,6.7,16.9,7.9c-1.1,0.7-1.8,1.7-2.3,3.1c-7.8-2.3-13.9-6-18.1-11h-9.1c-3.9,4.2-10.1,7.9-18.4,11.1
		c-0.7-1.3-1.7-2.2-2.8-2.8c7.3-1.7,13.1-4.5,17.5-8.3c-5.8,0-10.9,0.1-15.3,0.3v-2.8c4.5,0.2,10.3,0.3,17.5,0.3
		c1.2-1.4,2.1-2.7,2.8-4c-6.7,0.3-11.2,0.8-13.5,1.3c-0.1-1.1-0.6-2.2-1.3-3.2c1.2,0,2.2-0.3,3.2-0.7c0.9-0.4,2.8-1.7,5.5-3.7
		c2.8-2.1,4.8-3.9,6.3-5.7c1,1,1.9,1.7,2.7,1.9c0.7,0.3,1.1,0.5,1.1,0.8c0,0.3-0.3,0.4-0.9,0.5c-0.6,0.1-1.2,0.2-1.7,0.5
		c-0.5,0.2-1.4,0.8-2.6,1.8c-1.2,1-3.5,2.5-6.7,4.5l20.8-0.4c-1.8-1.4-3.9-2.8-6.3-4.1l2.5-2c4.7,3.2,8.7,6.3,11.9,9.1l-2.8,1.9
		C395.2,738.1,394.2,737.1,393.1,736z M394.6,753c0.9,1,1.7,1.7,2.6,2c0.3,0.2,0.5,0.3,0.5,0.5c0,0.2-0.2,0.3-0.7,0.4
		c-1.1,0.2-2.5,1-4.4,2.5c-5.9,4.6-15,7.8-27.4,9.7c-0.4-1.1-1.2-2.1-2.5-2.8c8.1-0.9,14.5-2.2,19.2-4
		C386.5,759.6,390.8,756.8,394.6,753z M389,748.8c0.8,1,1.6,1.6,2.4,1.9c0.4,0.2,0.6,0.3,0.6,0.5s-0.3,0.3-0.9,0.3
		c-0.6,0-1.6,0.5-3,1.5c-4.4,3.1-11.2,6-20.3,8.6c-0.4-1.1-1.2-2-2.5-2.8C375.8,757.1,383.7,753.7,389,748.8z M383.7,744
		c0.5,0.9,1.3,1.5,2.4,2c0.4,0.2,0.6,0.4,0.6,0.6c0,0.2-0.3,0.3-1,0.3c-0.7,0-1.9,0.5-3.6,1.6c-2.3,1.4-4.5,2.6-6.5,3.4
		c-2,0.9-4.4,1.7-7.1,2.7c-0.5-1.1-1.3-1.9-2.5-2.4C373.3,750.8,379.2,748,383.7,744z"/>
	<path fill="#FFFFFF" d="M454,756.8c-4.8-0.3-10.7-0.4-17.6-0.4c-6.9,0-12.8,0.1-17.5,0.4v-3.2c3.4,0.3,9,0.4,16.9,0.4
		c7.9,0,14-0.2,18.1-0.5V756.8z M432.5,734.7c-0.2,4.1-0.3,7.1-0.4,9.1H450c5.8,0,10.1-0.2,13.2-0.6l-1.6,14.8
		c-0.3,2.4-0.9,4.2-1.9,5.4c-1,1.3-2.7,2.2-5,2.9c-2.3,0.7-5.7,1.3-10.3,1.8c0.1-1.5-0.7-2.8-2.4-4.1c2.3,0.2,4.1,0.2,5.5,0.2
		c3.1,0,5.5-0.5,7-1.4c1.5-0.9,2.6-2.7,3.3-5.2c0.6-2.5,1-6.3,1.2-11.4h-17.2c-4.7,0-9.3,0.2-13.8,0.6c0.9-5.4,1.4-10.9,1.4-16.6
		c0-2.3-0.1-4.2-0.3-5.5c1.3,0.4,3,0.6,5.2,0.6c0.4,0,0.5,0.1,0.5,0.4s-0.2,0.6-0.6,0.9c-0.4,0.4-0.7,1.1-0.9,2.2
		c-0.2,1-0.4,2.2-0.5,3.5h17.1c6.7,0,12-0.2,16.1-0.5v3.3c-4.4-0.3-9.8-0.5-16.1-0.5H432.5z"/>
	<path fill="#FFFFFF" d="M486.3,754.5v5.4h-3.4c0.3-1.9,0.4-3.8,0.4-5.7V735c0-2.2-0.1-4.1-0.3-5.7c1.5,0.2,3.9,0.2,7.2,0.2
		c3.2,0,5.6-0.1,7-0.2c-0.2,1.3-0.3,3.2-0.3,5.7v18.3c0,1.7,0.1,3.5,0.2,5.5h-3.3v-4.2H486.3z M493.7,752v-20.1h-7.4V752H493.7z
		 M523.2,748h-18.4v12c0,1.3,0.1,2.2,0.4,2.7c0.3,0.5,0.9,0.9,1.8,1c0.9,0.2,2.6,0.3,4.9,0.3c5,0,8.3-0.2,10.2-0.5
		c1.8-0.3,3-0.8,3.5-1.5c0.5-0.7,0.8-2.1,0.7-4.2c1.1,1,2.3,1.6,3.8,1.9c-0.2,2-0.8,3.5-1.6,4.4c-0.9,1-2.4,1.6-4.6,2
		c-2.2,0.4-5.5,0.5-10,0.5c-4.5,0-7.5-0.1-9-0.4c-1.5-0.3-2.4-0.7-2.8-1.4c-0.4-0.7-0.6-1.9-0.6-3.8v-26.4c0-1.8-0.1-4-0.4-6.5
		c2.8,0.3,7,0.5,12.7,0.5c5.7,0,9.9-0.2,12.7-0.6c-0.1,1.5-0.2,3.7-0.2,6.5v9.8c0,1.9,0.1,4.1,0.3,6.5h-3.6V748z M512.5,745.6v-14.7
		h-7.7v14.7H512.5z M515.6,730.9v14.7h7.6v-14.7H515.6z"/>
	<path fill="#FFFFFF" d="M556.1,760.2h-4.2v-3.9h4.2V760.2z M555.9,737.8l-0.7,14.3h-2.4l-0.7-14.3v-10.7h3.8V737.8z"/>
</g>
<g>
</g>
<g>
</g>
<g>
</g>
<g>
</g>
<g>
</g>
<g>
</g>
<g>
</g>
<g>
</g>
<g>
</g>
<g>
</g>
<g>
</g>
<g>
</g>
<g>
</g>
<g>
</g>
<g>
</g>
</svg>
