<?xml version="1.0" encoding="utf-8"?>
<!-- Generator: Adobe Illustrator 18.0.0, SVG Export Plug-In . SVG Version: 6.00 Build 0)  -->
<!DOCTYPE svg PUBLIC "-//W3C//DTD SVG 1.1//EN" "http://www.w3.org/Graphics/SVG/1.1/DTD/svg11.dtd">
<svg version="1.1" id="图层_1" xmlns="http://www.w3.org/2000/svg" xmlns:xlink="http://www.w3.org/1999/xlink" x="0px" y="0px"
	 viewBox="0 0 520 260" enable-background="new 0 0 520 260" xml:space="preserve">
<g>
	<path fill="#231815" d="M82.2,26.8v-0.5c1.1-0.3,1.7-1.1,1.7-2.4v-3.4h2.1v2.9C85.9,25.1,84.7,26.3,82.2,26.8z M82.4,17.3h5.5V8.2
		h-4.7V7.3h16.1v0.9h-5v6.5l3.9-4.7l1,0.5l-5,5.6v1.2h5.6v0.9h-9.3c1,1.1,2.1,2.2,3.1,3.3c-0.3,0.7-0.7,1.5-1.1,2.3h-0.1
		c-0.8-1.3-1.6-2.9-2.3-4.9c-0.1-0.3-0.2-0.5-0.2-0.7h-7.7V17.3z M85.8,15.7h-0.1c-1.2-2-1.9-4-2.3-6h0.1c1.4,1.3,2.6,2.5,3.6,3.7
		C86.8,14.2,86.4,15,85.8,15.7z M87.4,26v-6.3h2.1v6.1c0,0.2,0.2,0.3,0.5,0.3h4c0.3,0,0.6-0.2,0.7-0.5l0.1-0.1l0.8-3.1H96L95.8,25
		h0.5v1.1c-0.1,1-0.6,1.6-1.7,1.6h-5.3C88,27.6,87.4,27.1,87.4,26z M90,8.2v9.1h2.4V8.2H90z M95.9,19.6l0.1-0.1
		c0.8,0.9,1.9,2.1,3.2,3.7c0.3,0.4,0.6,0.6,0.8,0.8c-0.2,0.8-0.5,1.5-0.9,2.2H99C97.5,24.1,96.4,21.9,95.9,19.6z"/>
	<path fill="#231815" d="M124.4,14.8h-2V6h2.2v8.6c1.4-1.1,2.3-2.3,2.7-3.6h2.1c-0.1-0.1-0.3-0.2-0.4-0.4c-1.2-1.6-2-2.6-2.2-3.1
		l0.1-0.1c1.2,0.7,3,1.9,5.6,3.6c0,0.1,0,0.2,0,0.4c0,1.4,0,2.2,0,2.2c-0.2,0.1-1.1-0.7-2.7-2.2c-0.9,2.2-3.7,4.2-8.4,5.8h2v2h5
		v-1.3h2.2v7.6c-0.1,1.3-1.3,2.2-3.8,2.7c0-0.4-0.3-0.4-0.9-0.3l-1.6,0.2l-0.1-0.3c3.2-0.7,4.6-1.5,4.2-2.5v-5.3h-5
		c0.2,3-2.3,5.7-7.4,8.2h-0.8c4.1-2.1,6.1-4.8,6-8.2h-4.3v-0.9h4.3v-1.9l-5.4,2.1h-1.4C117.4,18.4,120.8,16.9,124.4,14.8z M116,14.8
		h-0.6c1.8-2.4,2.7-4.7,2.7-6.8h2.5c-0.3,1.7-1.6,3.7-3.9,6.2C116.3,14.5,116.1,14.7,116,14.8z"/>
	<path fill="#231815" d="M148,23.1V15h-2.7v-0.9h2.7V8h-2.7V7.1h7.2V8h-2.5v6.1h2.5V15h-2.5v7.2c0.8-0.4,1.7-1.1,2.9-2l0.1,0.1
		c-2.3,2.9-4.9,4.7-7.8,5.4c0.1-0.8-0.1-1.5-0.4-2.2C146,23.6,147.1,23.5,148,23.1z M156.5,8h-3.3V7.1h9.5V8h-3.9
		c-0.3,1.4-0.6,2.8-0.8,4.1h0.4v16.1h-2.1V16.9c-1.5,3.1-3,5.7-4.3,7.8h-0.8C154,20.6,155.8,15,156.5,8z M159.2,12.9h0.1
		c0,0.2,0.1,0.7,0.2,1.3c0.8,3.8,2,6.3,3.4,7.5c-0.6,1-0.6,2.1-0.2,3.3v0.1C160.3,22.8,159.1,18.7,159.2,12.9z"/>
	<path fill="#231815" d="M181.6,8.7h5.1c-0.3-0.6-0.7-1.5-0.9-2.6l0.1-0.1c0.8,0.5,1.7,1,2.5,1.5c-0.1,0.1-0.1,0.2-0.2,0.4
		c-0.3,0.5-0.6,0.7-0.7,0.8h5.4v0.9H190l0.5,0.4l-2,2.9h4.3v0.9h-12v-0.2h-1.2v9.5c1.2-0.5,2.1-1.3,2.5-2.3v-6.3h2.1v0.7h5.2v-0.7
		h2.1v7.4h-2.1v3.7c-0.1,0.9,0.2,1.3,0.9,1.3h0.7c0.6,0.1,1-0.2,1-0.9l0.5-3.3h0.3v3.1h0.4v1.3c0.1,0.9-0.6,1.3-2.1,1.3h-1.7
		c-1.7,0.1-2.5-0.6-2.3-2.1v-4.5h2.1v-0.7h-5.2v0.7h1.9c0.1,2.2-1.9,4.4-6.2,6.7H179c2-1.4,3.3-2.4,3.8-3.1c0.7-0.8,1-2,1-3.4h-1.7
		v-0.4c-1,2.1-3.2,3.6-6.8,4.6c0.3-0.7,0.2-1.5-0.4-2.4c1,0.1,1.9,0,2.7-0.2V13.6h-2.3v-0.9h2.3V6.4h2.1v6.3h1.4v0.2h3.5
		c-0.6-1-1-2.1-1.3-3.2h-1.8V8.7z M185.5,12.9h2.1l1.9-3.2h-5.6c1.4,1.3,2.2,1.9,2.4,2.1C185.9,12.2,185.7,12.6,185.5,12.9z
		 M184.2,20.2h5.2v-4.1h-5.2v1.4h4.6v0.9h-4.6V20.2z"/>
	<path fill="#231815" d="M215.5,8.7h-7V7.6h15.9v1.1h-6.6v7.4h5.6v1.1h-5.6v8.9h7v1.1h-17.6v-1.1h2.9V12.5h2.3v13.6h3.1V8.7z"/>
	<path fill="#231815" d="M239.1,10.5V9.4h5.1V9.3c0.2-1.4,0.3-2.4,0.3-2.9h2.7c-0.1,0.6-0.2,1.3-0.4,2.2c-0.1,0.2-0.1,0.5-0.2,0.9
		h9.9v1.1h-10.2c-0.8,2-1.6,3.5-2.4,4.7v13.4h-2.3V18.1l-2.3,2.5h-0.6c1.2-1.7,2.2-3.2,2.9-4.5v-2.3h1.2c0-0.1,0.1-0.3,0.2-0.4
		c0.4-1.1,0.7-2.1,0.9-2.8H239.1z M245.1,17.7h4.1v-6.1h2.3v6.1h4.1v1.1h-4.1V27h4.8v1.1h-12V27h5v-8.2h-4.1V17.7z"/>
	<path fill="#231815" d="M270.1,27.9h-0.6c1.3-1.6,2-3.1,2.1-4.6v-1.1h2.1C273.7,23.9,272.5,25.8,270.1,27.9z M273.2,13.2h-1.9V6.4
		h1.9v0.5h5.4V6.4h1.9v6.8h-1.9v-0.7h-3.5c0.8,0.4,1.3,0.7,1.7,0.9c-0.1,0.6-0.3,1.1-0.4,1.4h5.2v0.9h-11.8v-0.9h6
		c-0.1,0-0.1-0.1-0.2-0.2c-0.6-0.8-0.9-1.5-1-2.2h-1.2V13.2z M274.9,26.1v-5.5h-1.4v0.7h-1.9v-4.9h1.9V17h4.8v-0.5h1.9v4.9h-1.9
		v-0.7h-1.4v5.1c0,1.3-0.8,2.1-2.4,2.5c-0.1-0.2-0.2-0.2-0.4-0.2l-1.3,0.1l-0.1-0.3C274.1,27.6,274.9,27,274.9,26.1z M278.6,7.8
		h-5.4v1.6h4.6v0.9h-4.6v1.3h5.4V7.8z M273.4,19.7h4.8v-1.8h-4.8V19.7z M278,22h0.1c0.5,1.2,1.5,2.1,3,2.7c-0.3,0.7-0.5,1.5-0.4,2.4
		C278.6,25.9,277.7,24.2,278,22z M285,19.9v-1.8h2.7c0.1,3.1-2.1,6.4-6.6,10.2h-1C283.4,25.5,285,22.7,285,19.9z M284.4,12.3h2.5
		c-0.3,2.2-1.7,4.6-4.1,7.1c-0.6,0.6-1,1-1.2,1.3h-0.8c1.7-2,2.6-3.4,2.9-4.2C284,15.6,284.3,14.2,284.4,12.3z M284.2,6.4h2.5
		c-0.5,2.7-2.1,5.3-4.8,7.7h-0.6C283.2,11.9,284.1,9.3,284.2,6.4z"/>
	<path fill="#231815" d="M301,8.4h1.9v0.9h1.7V8.4h1.9v13.8h-1.9v-1.4h-1.7v2.7H301V8.4z M302.8,19.9h1.7v-9.7h-1.7V19.9z M307,8.5
		h1.9v1.1h1.8c0.2-0.2,0.3-0.6,0.4-1.1c0.1-0.4,0.1-1.3,0.1-2.5h2.3c0,1.4-0.7,2.6-2.1,3.6h3.9V8.7h1.9v16.8
		c0.2,1.4-0.9,2.4-3.4,2.9c0.1-0.2,0-0.3-0.5-0.2l-1.1,0.1v-0.3c2.3-0.7,3.4-1.5,3.2-2.4V10.5h-6.4v17.9H307V8.5z M311.3,24.4h-1.7
		V12.7h1.7v0.9h1.4v-0.9h1.7v10.8h-1.7v-1.6h-1.4V24.4z M311.3,21h1.4v-6.5h-1.4V21z"/>
	<path fill="#231815" d="M336.6,12.3v3.6c2.4-2.2,3.7-5.4,3.9-9.7h2.7c-0.2,1.4-0.6,2.8-1.2,4.1h4.8V9.3h2.1V13
		c-0.7-0.5-1.4-0.1-2.1,1.2v-2.9h-5.2c-1,1.6-2.3,3.1-4,4.8h-0.9v9.1c1.8-2.1,2.7-5.2,2.7-9.2h2.1c-0.1,3.3-1.5,6.4-4,9.3h-0.7v3
		h-2.1V14.1l-2.1,2.7h-0.6c2.1-2.8,3.2-6.3,3.5-10.6h2.5c-0.5,2.2-1.2,4.2-2.1,6.1H336.6z M342.6,25.4V12.9h2.1v12.6
		c0.3,1.6-1,2.5-3.7,3c0.1-0.3-0.3-0.3-1-0.1l-1,0.2l-0.1-0.4C341.7,27.4,343,26.5,342.6,25.4z M346.3,15.2h0.4c0,3.7,1,5.9,3.1,6.8
		c-0.4,0.7-0.6,1.7-0.6,3.1c-0.1,0.1-0.1,0.2-0.1,0.3c-0.1,0-0.1-0.1-0.2-0.2C346.5,23.6,345.7,20.2,346.3,15.2z"/>
	<path fill="#231815" d="M373.2,6.2h2.5c-0.1,2-0.5,3.7-1,5h3.3V10h2.1v15.5c-0.1,1.2-1,2.1-2.9,2.7c-0.1-0.2-0.4-0.3-0.7-0.3
		l-1.2,0.3l-0.2-0.2c1.9-0.6,2.9-1.4,3-2.3V12.1h-3.7c-0.6,1-1.4,2.2-2.5,3.6h-0.4v11.1h-2.1v-1.2H366v1.9h-2.1V10.3h2.1v0.9h0.5
		c0.6-0.9,0.8-2.5,0.7-4.9h2.3c0,1.7-0.8,3.4-2.5,4.9h2.3v-0.9h2.1v5.2C372.6,13.4,373.3,10.3,373.2,6.2z M366,24.8h3.3V12.1H366V17
		h2.3v0.9H366V24.8z M373,15.6l0.1-0.1c1.3,1.5,2.2,2.7,2.8,3.7c-0.3,1-0.7,1.9-1.2,2.5C373.8,20,373.3,18,373,15.6z"/>
	<path fill="#231815" d="M399.7,11.6h4V6.8h2.2v4.9h6.6v1h-6.6v5.3h5.8v1h-5.8v8h7v1h-17v-1h7.8v-8h-6.1v-1h6.1v-5.3h-4.4
		c-0.9,1.5-1.9,2.7-2.9,3.7h-1c1.9-1.7,2.8-4.5,2.7-8.4h2.7C400.7,8.8,400.4,10,399.7,11.6z"/>
	<path fill="#231815" d="M425.8,11.3l0.2-0.1c0.5,0.7,1.4,1.7,2.9,3.2c-0.3,1.1-0.7,2.1-1.2,2.8C426.7,14.7,426.1,12.8,425.8,11.3z
		 M436.3,8.5h-4.6V8.4c2.7-0.4,5.6-1,8.8-1.8c0.2,0.2,0.9,0.7,2.1,1.5v0.1c-1.9,0.2-3.3,0.3-4.2,0.3V13h5.2v0.9h-5.2V15
		c-0.1,1.4-0.8,2.7-2.3,3.8h3.7v-0.9h2.1v10.3h-2.1v-1.4h-5.2v1.4h-2.1V17.9h2.1v0.9h1.2c0.3-0.7,0.4-1.3,0.4-2v-2.9h-5l-2.7,9.5
		c1.1,1.8,1.6,2.7,1.6,2.7c-0.4,0.7-1,1.3-1.8,1.9c-1.1-3.5-1.9-6.2-2.3-8h0.1c0.1,0.1,0.2,0.4,0.4,0.7c0.3,0.5,0.6,0.9,0.8,1.2
		l4.7-11.7l0.2,0.1l-0.8,2.7h4.8V8.5z M427.2,6.5l0.2-0.1c1.7,1.4,2.8,2.4,3.4,3c-0.1,0.1-0.1,0.2-0.1,0.4c-0.5,1.3-0.8,2-0.9,2.1
		c-0.3-0.5-1.1-2-2.3-4.6C427.3,6.9,427.2,6.7,427.2,6.5z M434.7,19.7v6.2h5.2v-6.2H434.7z"/>
	<path fill="#231815" d="M163.2,33.8h2.5c-0.3,2.2-1.1,4.3-2.3,6.1h1.2v15.9h-2.1V41.4c-0.6,0.9-1.2,1.8-1.9,2.7h-0.6
		C161.9,41.3,163,37.9,163.2,33.8z M167.4,46.2h5.8v-0.7h2.1c0.1,2.8-0.8,4.9-2.7,6.4c1.2,0.8,3,1.4,5.2,1.8c-0.8,0.6-1.1,1.4-1,2.3
		c-1.8-0.6-3.6-1.6-5.5-3.1c-1.4,0.9-3.1,1.8-5.1,2.7h-1c2.3-1.3,4.1-2.4,5.4-3.3c-1.3-1.6-2.1-3.3-2.3-5.2h-0.8V46.2z M175.9,45.9
		v-1.8h-8.3v1.4h-2.1v-3.2h2.1v0.9h8.3v-0.7h2.1v2.9C177.2,45,176.6,45.1,175.9,45.9z M167,35.6v-0.9h7.2V34h2.1v7.7h-2.1V41h-7.4
		v-0.9h7.4v-1.8h-7v-0.9h7v-1.8H167z M173.2,47.1h-4.6c0.5,1.6,1.4,3,2.9,4C172.5,49.9,173,48.6,173.2,47.1z"/>
	<path fill="#231815" d="M194.1,34.2h2.3c-0.3,1.3-0.6,2.5-1,3.8h2.1v-0.9h1.7v3.4c-0.2-0.1-0.4-0.1-0.5-0.1h-0.1
		c-0.1,0.1-0.4,0.4-0.9,1.2l-0.1,0.2v-2.9H195c-0.8,1.7-1.7,3.1-2.6,4H192C193.3,40.9,193.9,38,194.1,34.2z M194.3,53.1V41h2.1v11.5
		c0.5-0.2,1.3-0.8,2.4-1.8c0.1-0.2,0.3-0.3,0.4-0.4l0.1,0.1c-1.1,2.3-3.1,4-6,4.9c0.1-0.7-0.1-1.3-0.6-2
		C193.2,53.3,193.7,53.3,194.3,53.1z M199.7,38h2.1v0.9h1.6V34h2.1v4.9h1.6V38h2.1v10.8h-2.1v-1.3h-1.6v5.7c0.5,0,1.1-0.2,1.8-0.6
		c-0.2-1.5-0.2-2.5,0.1-3.1h0.1c0,0.1,0,0.2,0,0.4c0.7,2.2,1.6,3.5,2.7,4c-0.3,0.3-0.5,0.9-0.6,1.9c0,0.2,0,0.4,0,0.5l-0.1,0.1
		c-0.7-0.5-1.3-1.6-2-3.1c-1.6,1.3-4.3,2.3-8.3,3c0.1-0.8-0.1-1.6-0.6-2.3c1.4,0.2,3,0.2,4.9,0v-6.2h-1.6v1.8h-2.1V38z M201.7,39.8
		v6.8h1.6v-6.8H201.7z M206.9,46.6v-6.8h-1.6v6.8H206.9z"/>
	<path fill="#231815" d="M223.7,48.9V48h6.6v-2.2h2.2V48h6.5v0.9h-6.4c0.8,2.6,3.2,4.1,7.2,4.6c-0.6,0.5-0.8,1.3-0.6,2.2
		c0,0.1-0.1,0.2-0.2,0.2c-3.7-1.2-5.9-3.1-6.8-5.8c-0.8,2.4-3.5,4.3-8.1,5.7h-1.4c4.7-1.8,7.2-4.1,7.7-6.9H223.7z M223.9,38.1v-0.9
		h5.6c-1.1-1.2-1.9-2.3-2.5-3.2l0.1-0.1c0.9,0.3,2,0.8,3.4,1.5c0,0.1-0.1,0.7-0.4,1.6c0,0.1,0,0.1,0,0.2h2.5l3.3-3.4l0.8,0.6
		l-2.9,2.8h5.4v0.9h-6.7v2.3h5.7v0.9h-5.7v2.7h7.3V45h-17v-0.9h7.4v-2.7h-5.8v-0.9h5.8v-2.3H223.9z"/>
	<path fill="#231815" d="M258.4,33.6h2.1l-0.6,5.8h1.9v-1.3h2.1v5.6h3.7v-3.4h-1l4.7-4.7H264v-1.1h8.1l0.4-0.5h0.2v1.6
		c-0.4,0.2-0.9,0.5-1.3,1.1c0-0.1,0,0-0.1,0.1l-3.3,3.1h1.7v3.8h3.9v1.1h-3.9v8.7c0.2,0.9-1.1,1.7-3.8,2.5c-0.1-0.4-0.2-0.6-0.5-0.4
		l-1.3,0.4l-0.1-0.3c2.8-0.8,4.1-1.6,3.7-2.2v-8.7h-3.7c-0.3,2.1-0.9,3.9-1.8,5.3c1.3,0.9,2.1,1.5,2.4,1.9c-0.1,0.4-0.3,1-0.6,1.7
		c-0.9-0.9-1.8-1.8-2.6-2.6c-0.8,0.9-2,2-3.4,3.4c-0.4,0.4-0.8,0.9-1.2,1.3h-0.8c1.3-1.3,2.8-3.1,4.6-5.5c-0.2-0.1-0.4-0.2-0.7-0.4
		c-0.3-0.2-0.5-0.4-0.6-0.5l-0.1,0.6h-2.1l1-9.7h-2.1v-0.9h2.1C258.1,37.5,258.3,35.6,258.4,33.6z M261.8,44.4v-4.1h-1.9l-0.8,8.3
		c0.8,0.4,1.3,0.7,1.7,0.8C261.4,48.1,261.8,46.4,261.8,44.4z"/>
	<path fill="#231815" d="M295.1,33.8h2.5c-0.1,2-0.5,3.7-1,5h3.3v-1.3h2.1v15.5c-0.1,1.2-1,2.1-2.9,2.7c-0.1-0.2-0.4-0.3-0.7-0.3
		l-1.2,0.3l-0.2-0.2c1.9-0.6,2.9-1.4,3-2.3V39.8h-3.7c-0.6,1-1.4,2.2-2.5,3.6h-0.4v11.1h-2.1v-1.2h-3.3v1.9h-2.1V38h2.1v0.9h0.5
		c0.6-0.9,0.8-2.5,0.7-4.9h2.3c0,1.7-0.8,3.4-2.5,4.9h2.3V38h2.1v5.2C294.5,41,295.1,37.9,295.1,33.8z M287.8,52.4h3.3V39.8h-3.3
		v4.9h2.3v0.9h-2.3V52.4z M294.9,43.2l0.1-0.1c1.3,1.5,2.2,2.7,2.8,3.7c-0.3,1-0.7,1.9-1.2,2.5C295.7,47.6,295.1,45.6,294.9,43.2z"
		/>
	<path fill="#231815" d="M319.9,50.7v-8.1h-2.7v-0.9h2.7v-6.1h-2.7v-0.9h7.2v0.9H322v6.1h2.5v0.9H322v7.2c0.8-0.4,1.7-1.1,2.9-2
		l0.1,0.1c-2.3,2.9-4.9,4.7-7.8,5.4c0.1-0.8-0.1-1.5-0.4-2.2C317.9,51.2,318.9,51.1,319.9,50.7z M328.4,35.6h-3.3v-0.9h9.5v0.9h-3.9
		c-0.3,1.4-0.6,2.8-0.8,4.1h0.4v16.1h-2.1V44.5c-1.5,3.1-3,5.7-4.3,7.8H323C325.8,48.2,327.6,42.6,328.4,35.6z M331.1,40.5h0.1
		c0,0.2,0.1,0.7,0.2,1.3c0.8,3.8,2,6.3,3.4,7.5c-0.6,1-0.6,2.1-0.2,3.3v0.1C332.2,50.4,331,46.3,331.1,40.5z"/>
	<path fill="#231815" d="M353.4,36.3h5.1c-0.3-0.6-0.7-1.5-0.9-2.6l0.1-0.1c0.8,0.5,1.7,1,2.5,1.5c-0.1,0.1-0.1,0.2-0.2,0.4
		c-0.3,0.5-0.6,0.7-0.7,0.8h5.4v0.9h-2.7l0.5,0.4l-2,2.9h4.3v0.9h-12v-0.2h-1.2v9.5c1.2-0.5,2.1-1.3,2.5-2.3v-6.3h2.1v0.7h5.2v-0.7
		h2.1v7.4h-2.1v3.7c-0.1,0.9,0.2,1.3,0.9,1.3h0.7c0.6,0.1,1-0.2,1-0.9l0.5-3.3h0.3v3.1h0.4v1.3c0.1,0.9-0.6,1.3-2.1,1.3h-1.7
		c-1.7,0.1-2.5-0.6-2.3-2.1v-4.5h2.1v-0.7h-5.2v0.7h1.9c0.1,2.2-1.9,4.4-6.2,6.7h-0.9c2-1.4,3.3-2.4,3.8-3.1c0.7-0.8,1-2,1-3.4h-1.7
		v-0.4c-1,2.1-3.2,3.6-6.8,4.6c0.3-0.7,0.2-1.5-0.4-2.4c1,0.1,1.9,0,2.7-0.2V41.2h-2.3v-0.9h2.3V34h2.1v6.3h1.4v0.2h3.5
		c-0.6-1-1-2.1-1.3-3.2h-1.8V36.3z M357.4,40.5h2.1l1.9-3.2h-5.6c1.4,1.3,2.2,1.9,2.4,2.1C357.8,39.8,357.6,40.2,357.4,40.5z
		 M356.1,47.8h5.2v-4.1h-5.2v1.4h4.6V46h-4.6V47.8z"/>
</g>
<g>
	<path fill="#231815" d="M22.5,91c0-2.5-0.1-4-0.2-4.5c0.6,0.2,1.2,0.2,1.7,0.2l0.6,0c0.3,0,0.4,0.1,0.4,0.2c0,0.2-0.1,0.3-0.3,0.4
		c-0.4,0.2-0.6,0.8-0.6,1.7V91c4.6,0,7.6-0.1,8.9-0.2c-0.1,0.6-0.2,1.4-0.2,2.3v11.3c0,1.1,0.1,2.2,0.2,3.2h-1.7v-1.5H15.2v2.2h-1.8
		c0.1-0.8,0.2-1.8,0.2-3.2v-12c0-1-0.1-1.8-0.2-2.3C14.8,91,17.8,91,22.5,91z M22.5,97.9v-5.6h-7.3v5.6H22.5z M22.5,104.8v-5.6h-7.3
		v5.6H22.5z M24.2,92.3v5.6h7.2v-5.6H24.2z M24.2,99.2v5.6h7.2v-5.6H24.2z"/>
	<path fill="#231815" d="M56.2,99c3.4,0,6.2,0,8.4-0.1v1.5c-2.1-0.1-4.8-0.1-8.1-0.1c0.5,1.7,1.2,3.1,2,4.2c0.8,1.2,1.6,2,2.4,2.5
		c0.8,0.5,1.5,0.8,2,0.8c0.9,0,1.4-0.9,1.5-2.7c0.5,0.6,1.1,0.9,1.8,0.9c-0.3,1.2-0.6,2-1,2.6c-0.4,0.6-1,0.8-1.7,0.8
		c-0.7,0-1.6-0.3-2.7-0.8c-1.1-0.5-2.2-1.5-3.3-3c-1.1-1.5-1.9-3.3-2.5-5.5H47v6.5c2.3-0.9,4.2-1.8,5.6-2.7c0,0.1,0,0.3,0,0.4
		c0,0.5,0.1,0.9,0.3,1.3l-4.8,2.2c-1.6,0.7-2.5,1.2-3,1.5c-0.2-0.6-0.6-1.1-1.1-1.5c0.5-0.3,0.8-0.7,1-1.2s0.3-1.2,0.3-2.1V91.2
		c0-1-0.1-1.9-0.2-2.7c1.1,0.1,3.9,0.2,8.5,0.2s7.7-0.1,9.2-0.2c-0.1,0.8-0.2,1.7-0.2,2.8V93c0,0.7,0.1,1.4,0.2,2.2
		c-0.9-0.1-3.4-0.2-7.3-0.2C55.8,96.6,55.9,97.9,56.2,99z M47,93.9h14.1v-3.9H47V93.9z M47,99h7.7c-0.3-1.3-0.5-2.6-0.6-3.9H47V99z"
		/>
	<path fill="#231815" d="M79.5,93h5.9v-2.9c0-1.6-0.1-2.7-0.2-3.3c0.8,0.2,1.6,0.2,2.4,0.2c0.2,0,0.3,0,0.3,0.1
		c0,0.1-0.1,0.2-0.2,0.3c-0.4,0.3-0.5,1-0.5,1.9V93c3.3,0,6.1,0,8.3-0.1v1.6c-2.2-0.1-5-0.1-8.3-0.1v4.9c3.7,0,6-0.1,7.2-0.2v1.6
		c-1.2-0.1-3.5-0.2-7.2-0.2v6c4.9,0,8.4-0.1,10.6-0.2v1.9c-2.4-0.2-6.3-0.2-11.7-0.2c-5.4,0-9.4,0.1-11.8,0.2v-1.9
		c2.8,0.2,6.5,0.2,11.1,0.2v-6c-3.7,0-6,0.1-7,0.2V99c1.3,0.1,3.6,0.2,7,0.2v-4.9h-6.5c-0.9,1.9-2,3.6-3.1,5.1
		c-0.5-0.5-1-0.8-1.6-0.9c2.3-2.1,3.9-5.4,5-9.9c0.5,0.3,1.2,0.5,1.9,0.7c0.3,0.1,0.4,0.2,0.4,0.3s-0.1,0.2-0.4,0.3
		C80.8,90.1,80.2,91.1,79.5,93z"/>
	<path fill="#231815" d="M110.5,91.5c0.7,0.1,1.4,0.2,2.2,0.2c0.2,0,0.3,0.1,0.3,0.2c0,0.1-0.1,0.3-0.3,0.4
		c-0.2,0.2-0.4,1.4-0.4,3.7c0,3.1-0.5,5.7-1.4,7.6s-2.4,3.7-4.6,5.3c-0.4-0.5-1-0.9-1.6-1.1c2-1.1,3.5-2.5,4.6-4.3
		c1-1.7,1.5-4.4,1.5-7.8C110.8,93.5,110.7,92.1,110.5,91.5z M116.8,101.9H115v-12h-6.9v12.6h-1.8c0.2-1.5,0.3-3,0.3-4.6v-5.7
		c0-1.4,0-2.6-0.1-3.7c1,0.1,2.7,0.2,5.2,0.2s4.2-0.1,5.1-0.2c-0.1,1.3-0.2,2.5-0.2,3.7v5.1C116.6,99,116.7,100.5,116.8,101.9z
		 M117.7,107.3l-1.4,1.1c-1.2-1.6-2.7-3-4.6-4.3l1.1-1.1C114.7,104.4,116.3,105.8,117.7,107.3z M124.4,93.9c-3.3,0-5.7,0-7.1,0.1
		v-1.6c1.6,0.1,4,0.2,7.1,0.2c0-3.1-0.1-5.1-0.2-6c0.5,0.1,0.8,0.2,1,0.2c0.2,0,0.5,0,0.9,0c0.4,0,0.6,0,0.6,0.1
		c0,0.1-0.1,0.2-0.2,0.3c-0.3,0.2-0.4,0.5-0.4,1v4.3c1.1,0,2.3-0.1,3.6-0.2V94c-1.4-0.1-2.6-0.1-3.6-0.1v12.8c0,0.6-0.1,1.1-0.3,1.4
		s-0.6,0.6-1.2,0.7c-0.6,0.2-1.6,0.3-2.9,0.5c0-0.8-0.3-1.4-0.9-2.1c1,0.2,1.8,0.3,2.3,0.3c0.5,0,0.9-0.1,1.1-0.3
		c0.2-0.2,0.3-0.6,0.3-1.2v-9.2c-1.7,3.1-4,6-6.9,8.8c-0.4-0.5-1-0.9-1.8-1.1c1.5-1,3-2.4,4.7-4.3s3-3.9,4.1-5.9V93.9z"/>
	<path fill="#231815" d="M147.7,89.4c-0.2-0.6-0.7-1.2-1.4-1.9l1.9-0.7c0.4,0.7,0.8,1.6,1.2,2.6c4.9,0,8.2-0.1,9.8-0.2v4.4h-1.7
		v-3.1h-18.3v3.3h-1.7v-4.6C139,89.3,142.5,89.4,147.7,89.4z M141.3,107.8v1.5h-1.7c0.1-0.8,0.2-1.8,0.2-3.2v-3.6
		c0-0.9-0.1-1.6-0.2-2.3c2,0.1,5,0.2,9,0.2c4,0,7-0.1,9-0.2c-0.1,0.6-0.2,1.4-0.2,2.3v3.1c0,1.3,0.1,2.3,0.2,3.2h-1.7v-0.9H141.3z
		 M155.9,91.8v1.5c-1.6-0.1-4.1-0.2-7.5-0.2s-5.8,0.1-7.5,0.2v-1.5c1.6,0.1,4.1,0.2,7.5,0.2S154.3,92,155.9,91.8z M141.3,103.6h6.5
		v-2.1h-6.5V103.6z M147.8,104.7h-6.5v2.1h6.5V104.7z M155.1,99c-1.2-0.1-3.5-0.1-6.8-0.1c-3.3,0-5.5,0-6.6,0.1
		c0.1-0.7,0.2-1.4,0.2-2.1c0-0.7-0.1-1.5-0.2-2.3c1,0.1,3.3,0.1,6.7,0.1c3.5,0,5.7,0,6.7-0.1c-0.1,1.1-0.1,1.9-0.1,2.5
		C155,97.6,155,98.3,155.1,99z M153.4,97.8v-2h-10.1v2H153.4z M149.4,103.6h6.5v-2.1h-6.5V103.6z M155.9,104.7h-6.5v2.1h6.5V104.7z"
		/>
	<path fill="#231815" d="M171.7,98.2c-0.8,2.2-1.8,4.3-3.2,6.2c-0.4-0.5-0.9-0.9-1.6-1.1c1.9-1.8,3.5-4.5,4.7-8.1v-0.1
		c-1.6,0-2.9,0.1-3.9,0.2v-1.6c1,0.1,2.3,0.2,3.9,0.2v-3.5c-1,0.1-2,0.2-2.9,0.3c-0.1-0.6-0.3-1-0.9-1.4c3.2,0,5.8-0.5,7.9-1.4
		c0.2,0.5,0.5,0.9,0.7,1.2c0.2,0.2,0.4,0.4,0.4,0.5c0,0.1,0,0.1-0.1,0.1s-0.2,0-0.3-0.1c-0.1,0-0.3-0.1-0.6-0.1s-0.8,0.1-1.3,0.2
		c-0.5,0.1-1,0.2-1.5,0.3V94c1.4,0,2.6-0.1,3.6-0.2v1.6c-1-0.1-2.2-0.2-3.6-0.2v1.1c1.5,1.1,2.7,2.2,3.7,3.3l-1.2,1.1
		c-0.7-1.1-1.5-2.1-2.4-3.1v7.5c0,1.1,0.1,2.5,0.2,4.2h-1.9c0.1-1.6,0.2-3,0.2-4.2V98.2z M181.1,106c-1,0.9-2.2,1.7-3.6,2.6
		c-0.4-0.5-0.9-0.8-1.6-0.9c2.1-1.2,3.8-2.4,5.2-3.6v-8.2c0-1.5-0.1-2.6-0.2-3.3c0.8,0.1,1.5,0.2,2.1,0.2c0.2,0,0.3,0,0.3,0.1
		s-0.1,0.2-0.3,0.3c-0.3,0.2-0.5,0.8-0.5,1.8v7.6c2.7-3.1,4.4-7.7,4.9-14.1c0.6,0.2,1.2,0.4,1.7,0.5c0.5,0.1,0.8,0.1,0.8,0.3
		s-0.1,0.2-0.3,0.4c-0.2,0.1-0.4,0.5-0.6,1c-0.2,0.5-0.4,1.5-0.7,2.8c-0.6,2.7-1.3,4.9-2.2,6.7c-0.9,1.8-2.1,3.3-3.5,4.7v1.5
		c0,0.3,0.1,0.5,0.4,0.7c0.3,0.1,1.1,0.2,2.3,0.2s2.1-0.1,2.5-0.4s0.6-0.9,0.6-1.8c0-0.2,0-0.5,0-0.8c0.4,0.6,1,0.9,1.8,1.1
		c-0.1,1.3-0.5,2.1-1.1,2.6c-0.6,0.4-2.1,0.7-4.4,0.7c-1.2,0-2.1-0.1-2.7-0.2s-0.8-0.6-0.8-1.4V106z M178.1,94.9
		c0.5,0.1,1.1,0.2,1.7,0.2c0.2,0,0.2,0,0.2,0.1c0,0.1-0.1,0.2-0.2,0.2c-0.3,0.2-0.5,0.8-0.6,1.7c-0.2,1.9-0.6,3.8-1.1,5.7
		c-0.4-0.2-0.9-0.3-1.5-0.3C177.4,100.3,177.9,97.8,178.1,94.9z M185.6,91.5l-1.4,0.8c-0.8-1.6-1.9-3.1-3.2-4.5l1.2-0.8
		C183.4,88.3,184.6,89.8,185.6,91.5z M192.3,102.6l-1.4,0.9c-0.8-1.6-1.9-3.2-3.3-4.8l1.2-0.8C190.1,99.3,191.3,100.9,192.3,102.6z"
		/>
	<path fill="#231815" d="M207.6,99.6c0.1,0.1,0.3,0.2,0.6,0.2c0.3,0,1.2,0.1,2.8,0.1c1.6,0,2.7-0.1,3.5-0.2c0.8-0.1,1.3-0.4,1.5-0.7
		c0.3-0.4,0.4-1,0.5-2c0.5,0.4,1.1,0.7,1.7,0.9c-0.3,1.2-0.6,2-1.1,2.4c-0.5,0.4-1.3,0.6-2.5,0.7c-1.2,0.1-2.5,0.1-4.1,0.1
		c-1.6,0-2.6-0.1-3.2-0.2c-0.6-0.1-0.9-0.3-1.1-0.7c-1.7,0.7-3.6,1.3-5.9,1.8c-0.2-0.6-0.6-1-1.2-1.4c2.1-0.2,4.4-0.8,6.9-1.6v-3.2
		c0-1.2-0.1-1.9-0.2-2.3c0.2,0.1,0.9,0.1,2,0.1c0.2,0,0.3,0,0.3,0.1c0,0.1-0.1,0.2-0.3,0.3s-0.3,0.4-0.3,0.8v3.5
		c3.6-1.7,6.1-3.9,7.5-6.5c0.6,0.4,1,0.6,1.4,0.8c0.3,0.2,0.5,0.3,0.5,0.4c0,0.1-0.1,0.2-0.3,0.2c-0.5,0.1-1.2,0.7-2.2,1.7
		C212.7,96.9,210.4,98.4,207.6,99.6z M201.4,99.1l-1.5-0.9c1.7-1.5,2.7-3,3.2-4.4l1.5,0.8C203.8,95.9,202.8,97.4,201.4,99.1z
		 M211.8,89.6c5,0,8.4-0.1,10-0.2v4.9h-1.6v-3.5h-18.5v3.8h-1.6v-5.1c1.4,0.1,4.9,0.2,10.2,0.2c-0.4-0.7-0.9-1.4-1.6-2.1l1.5-0.7
		C210.8,87.5,211.3,88.4,211.8,89.6z M218.3,108.1h-11c-2.2,0-3.9,0.1-5.2,0.2c0.1-0.6,0.1-1.2,0.1-1.9v-1.5c0-0.8,0-1.5-0.1-2
		c0.4,0.1,0.9,0.1,1.4,0.1l0.7,0c0.2,0,0.2,0,0.2,0.1s-0.1,0.1-0.2,0.2c-0.3,0.2-0.5,0.6-0.5,1v2.7h6.5v-3c0-0.8-0.1-1.5-0.2-2
		c0.5,0,0.9,0.1,1.2,0.1l0.8,0c0.2,0,0.3,0,0.3,0.1c0,0.1,0,0.2-0.1,0.3c-0.3,0.3-0.5,0.7-0.5,1.1v3.5h6.5v-2.6c0-1-0.1-1.6-0.2-2.1
		c0.6,0.1,1.1,0.1,1.5,0.1l0.5,0c0.1,0,0.2,0,0.2,0.1c0,0.1,0,0.1-0.1,0.2c-0.2,0.2-0.3,0.6-0.3,1.2v3.5c0,0.4,0,1,0.1,1.8h-1.6
		V108.1z M212.2,94.1l-1.1,1c-1.2-1.2-2.4-2.2-3.7-3l0.9-0.9C209.6,91.9,210.9,92.9,212.2,94.1z M222.2,98.5l-1.3,0.9
		c-1.1-1.6-2.4-3-4.1-4.2l1.1-1C219.7,95.6,221.1,97,222.2,98.5z"/>
	<path fill="#231815" d="M234.2,97.5c0,2.9-0.2,5.1-0.5,6.7s-0.8,3.1-1.6,4.5c-0.5-0.5-1.1-0.8-1.9-1c0.9-1.2,1.5-2.6,1.9-4.2
		c0.4-1.6,0.5-3.5,0.5-5.8s-0.1-4.6-0.2-6.9c1.2,0.2,4.9,0.2,11,0.2c-0.2-2.2-0.3-3.7-0.5-4.4c0.7,0.2,1.4,0.3,2,0.3
		c0.3,0,0.5,0.1,0.5,0.2c0,0.1-0.1,0.3-0.2,0.4c-0.2,0.1-0.2,0.6-0.2,1.2s0,1.4,0.1,2.3c4.4,0,7-0.1,7.9-0.2v1.7
		c-1.4-0.1-4-0.2-7.8-0.2c0.2,3,0.7,5.7,1.5,8c1.4-2,2.3-4.2,2.9-6.6c0.7,0.4,1.2,0.6,1.7,0.7c0.4,0.1,0.6,0.2,0.6,0.4
		s-0.2,0.3-0.5,0.4c-0.3,0.1-1,1.4-2.2,3.9c-0.4,0.9-1,1.8-1.8,2.9c0.7,1.5,1.4,2.8,2.2,3.6c0.8,0.9,1.3,1.3,1.6,1.3
		c0.3,0,0.5-0.2,0.6-0.7c0.2-0.5,0.3-1.2,0.5-2.1c0.4,0.5,1,0.8,1.7,1c-0.4,1.3-0.8,2.2-1.2,2.9c-0.4,0.6-0.8,0.9-1.3,0.9
		c-0.6,0-1.5-0.6-2.6-1.7c-1.1-1.1-2-2.4-2.7-3.7c-1.8,2.1-3.6,3.8-5.4,5.3c-0.4-0.5-1-0.9-1.7-1.2c2.2-1.2,4.4-3.1,6.5-5.7
		c-1.1-3-1.7-6.2-2-9.6h-9.3c0,0.9,0,2.1,0,3.7h3.2c1.6,0,2.9-0.1,3.8-0.2l-0.5,8c-0.1,0.9-0.3,1.5-0.9,1.8
		c-0.5,0.4-1.4,0.6-2.5,0.6c-0.4,0-0.9,0-1.5-0.1c0-0.6-0.2-1.3-0.5-1.8c1.2,0.2,2,0.3,2.5,0.3c0.5,0,0.8-0.1,1-0.2
		c0.2-0.1,0.3-0.5,0.4-0.9l0.5-6.2H234.2z M251.3,89.9L250,91c-0.7-0.9-1.7-1.9-3.2-3l1.2-1C249.4,88,250.5,88.9,251.3,89.9z"/>
	<path fill="#231815" d="M274.6,105.8c2.5-4.9,3.9-8.7,4.3-11.5c0.8,0.5,1.4,0.7,1.8,0.8s0.6,0.1,0.6,0.3c0,0.1-0.1,0.3-0.4,0.5
		s-0.7,0.9-1.2,2l-3.6,7.9c4.4,0,7.2-0.1,8.6-0.2v1.8c-1.3-0.2-5.1-0.3-11.4-0.3c-6.3,0-10.1,0.1-11.4,0.3v-1.8
		c2.7,0.2,5.5,0.3,8.4,0.3L274.6,105.8z M274.3,91.5c4.5,0,7.5-0.1,8.8-0.2V93c-1.3-0.2-4.6-0.3-9.8-0.3s-8.4,0.1-9.7,0.3v-1.7
		c1.7,0.2,4.7,0.2,9,0.2c-0.4-1.2-1.2-2.6-2.2-4.2l1.6-0.8C273,88.3,273.7,89.9,274.3,91.5z M271.9,103.9l-1.6,0.6
		c-0.8-2.5-2.2-5.4-4-8.6l1.3-0.7C269.2,98.2,270.6,101.1,271.9,103.9z"/>
	<path fill="#231815" d="M296.6,91.7c0.6-1.7,0.9-3.3,1-4.8c0.7,0.2,1.4,0.4,2.1,0.5c0.2,0,0.3,0.1,0.3,0.2c0,0.1-0.1,0.2-0.2,0.4
		c-0.5,0.4-1,1.7-1.7,3.7c1.9,0,3.6-0.1,4.9-0.2c-0.1,0.6-0.2,1.4-0.2,2.2v11.8c0,1.3,0.1,2.5,0.2,3.6h-1.8v-2.3h-5.6v2.5h-1.9
		c0.1-1.2,0.2-2.4,0.2-3.6v-12c0-0.8-0.1-1.5-0.2-2.2C294.5,91.6,295.5,91.7,296.6,91.7z M295.6,98.7h5.6V93h-5.6V98.7z M301.2,99.9
		h-5.6v5.7h5.6V99.9z M307.4,92.6c-0.8,1.8-1.6,3.3-2.5,4.6c-0.5-0.3-1.1-0.6-1.6-0.7c1.2-1.5,2-3,2.5-4.4c0.5-1.4,1-3.1,1.4-5
		c0.7,0.3,1.3,0.5,1.9,0.6c0.2,0,0.4,0.1,0.4,0.2s-0.1,0.3-0.4,0.4c-0.2,0.2-0.7,1.2-1.3,3h4.2c1,0,2-0.1,2.9-0.2
		c-0.1,0.7-0.2,1.5-0.2,2.4l-0.3,12.6c0,1.2-0.5,1.9-1.5,2.3c-1,0.4-2.4,0.6-4.3,0.6c-0.1-0.6-0.3-1.3-0.8-1.9c0.8,0,1.5,0,2.2,0
		s1.2-0.1,1.7-0.3c0.4-0.2,0.7-0.5,0.8-0.9c0.1-0.4,0.2-1.1,0.2-2.1l0.1-11.3H307.4z M310.7,102l-1.5,0.8c-1-2.3-2-4.2-3-5.5
		l1.5-0.9C308.7,98,309.7,99.8,310.7,102z"/>
	<path fill="#231815" d="M327.8,90c-1.7,0-3.1,0.1-4.1,0.2v-1.6c1.2,0.1,2.9,0.2,4.9,0.2s3.6-0.1,4.8-0.2v1.6
		c-1-0.1-2.4-0.2-4.1-0.2v5.5c1.6,0,2.8-0.1,3.9-0.2v1.6c-0.9-0.1-2.2-0.2-3.9-0.2v5.6c1.6-0.6,2.9-1.1,3.9-1.5
		c0,0.2-0.1,0.4-0.1,0.7s0.1,0.6,0.2,0.9c-3,0.9-6,2-9.1,3.2c-0.1-0.6-0.4-1.2-0.8-1.8c1.1-0.2,2.5-0.6,4.3-1.1v-6.1
		c-1.4,0-2.7,0.1-3.7,0.2v-1.6c1.2,0.1,2.4,0.2,3.7,0.2V90z M340,90.3c-2.6,0-4.6,0-5.9,0.2v-1.7c1.1,0.1,3.3,0.2,6.6,0.2
		c3.3,0,5.6-0.1,6.9-0.2v1.7c-1.3-0.1-3.3-0.2-6-0.2c-0.2,1.1-0.5,2.3-0.9,3.7v11.6c0,1.4,0.1,2.7,0.2,3.8h-2
		c0.2-1.1,0.2-2.4,0.2-3.8V98c-1.3,2.5-3.1,4.9-5.6,7.3c-0.5-0.5-1.1-0.9-1.7-1.1C336.2,101,339,96.4,340,90.3z M348.4,102.8l-1.6,1
		c-1.4-2.8-3.1-5.2-5.2-7.3l1.5-1C345.3,98.1,347.1,100.6,348.4,102.8z"/>
	<path fill="#231815" d="M358.7,94.2c-0.9,1.2-1.9,2.4-2.9,3.4c-0.4-0.6-0.8-1-1.3-1.3c1.2-0.9,2.5-2.3,3.8-4.3
		c1.3-2,2.2-3.7,2.6-5.3c0.6,0.4,1.2,0.6,1.7,0.8c0.4,0.1,0.5,0.2,0.5,0.3s-0.1,0.2-0.4,0.3c-0.3,0.1-1.1,1.3-2.5,3.6v17.3h-1.8
		c0.2-1.8,0.3-3.5,0.3-5.1V94.2z M371.3,98.7c3.8,0,6.3-0.1,7.7-0.2v1.6c-1.2-0.1-3.2-0.2-6-0.2c1.8,3.1,3.9,5.4,6.4,6.7
		c-0.5,0.4-1,0.8-1.4,1.4c-2.8-1.9-4.8-4.6-6.1-8.1h-0.5v6.7c0,0.8,0.1,1.7,0.2,2.6h-1.9c0.1-1,0.2-1.8,0.2-2.6v-6.7h-0.5
		c-1.2,3.1-3.5,6-6.8,8.4c-0.4-0.5-0.9-0.9-1.5-1.1c3-1.6,5.4-4,7-7.3c-2.1,0-4.1,0.1-5.9,0.2v-1.6c1.4,0.2,4,0.2,7.7,0.2v-3.3
		c-1.9,0-3.7,0.1-5.5,0.1c0.1-1,0.1-2.3,0.1-3.9c0-1.6,0-2.8-0.1-3.5c1.7,0.1,3.9,0.2,6.5,0.2c2.6,0,4.7-0.1,6.4-0.2
		c-0.1,0.7-0.2,1.9-0.2,3.6c0,1.8,0.1,3,0.2,3.8c-1.5-0.1-3.5-0.1-5.8-0.1V98.7z M375.4,94.3v-4.8h-9.4v4.8H375.4z"/>
	<path fill="#231815" d="M394.6,87.8c0.7,0.3,1.2,0.5,1.6,0.6c0.4,0,0.6,0.1,0.6,0.2c0,0.1-0.1,0.2-0.3,0.4
		c-0.2,0.2-0.5,0.4-0.7,0.8c-0.2,0.3-0.5,0.7-0.6,1.1c-1,2.2-2,3.9-2.9,5.1c-1,1.3-2.1,2.5-3.3,3.8c-0.4-0.4-1-0.8-1.8-1.1
		c2-1.2,3.6-2.9,5-5.1S394.3,89.4,394.6,87.8z M404.7,106.4c-3.7,0.2-6.6,0.3-8.8,0.5c-2.2,0.2-3.8,0.4-4.9,0.8
		c-0.2-0.8-0.6-1.5-1.1-2.1c0.5-0.1,0.9-0.3,1.2-0.6c0.3-0.3,1-1,1.9-2c0.9-1.1,1.8-2.3,2.6-3.6c0.8-1.3,1.4-2.5,1.8-3.7
		c0.8,0.4,1.5,0.7,2,0.8c0.3,0.1,0.4,0.2,0.4,0.3c0,0.1-0.1,0.2-0.4,0.3c-0.4,0.1-0.9,0.7-1.6,1.7c-1.7,2.4-3.3,4.7-5,6.8l10.9-0.5
		c-0.9-1.2-2-2.5-3.2-3.8l1.4-0.9c2.7,3.1,4.6,5.6,5.7,7.5l-1.6,0.8C405.8,108,405.3,107.2,404.7,106.4z M410.6,98.1
		c-0.7,0.3-1.3,0.8-1.8,1.5c-3.8-3.3-6.2-7.1-7.3-11.4l1.5-0.3c0.5,2.4,1.6,4.6,3.1,6.5C407.7,96.2,409.2,97.4,410.6,98.1z"/>
	<path fill="#231815" d="M421.6,106.8v-5.6c0-0.8-0.1-1.5-0.2-2.2c1.7,0.1,4.5,0.2,8.1,0.2c3.7,0,6.4-0.1,8.1-0.2
		c-0.1,0.7-0.1,1.5-0.1,2.2v5.6c1.4,0,2.8-0.1,4.1-0.2v1.6c-1.4-0.1-5.4-0.2-12-0.2c-6.6,0-10.6,0.1-12,0.2v-1.6
		C418.9,106.7,420.2,106.8,421.6,106.8z M425.5,93.2c0.6,0.5,1,0.9,1.3,1c0.3,0.2,0.5,0.3,0.5,0.4s-0.2,0.2-0.5,0.2
		c-0.3,0-0.9,0.3-1.9,0.9c-0.9,0.6-2.8,1.8-5.5,3.8c-0.3-0.6-0.8-1-1.4-1.3c1.3-0.4,2.7-1.2,4.2-2.2S424.8,94.2,425.5,93.2z
		 M431.4,91.5c1.5-1.7,2.6-3.3,3.3-4.8c0.5,0.5,1,0.7,1.4,0.8c0.4,0.1,0.6,0.2,0.6,0.4c0,0.2-0.2,0.3-0.5,0.5
		c-0.3,0.1-0.7,0.4-1.1,0.8s-1.2,1.2-2.2,2.4c3.3,0,5.8-0.1,7.3-0.2v1.6c-1.2-0.2-4.8-0.2-10.7-0.2c-5.9,0-9.5,0.1-10.7,0.2v-1.6
		c1.7,0.2,3.3,0.2,4.8,0.2H431.4z M427,90.2l-1.3,0.9c-0.8-1.1-2-2.2-3.4-3.2l1.1-0.9C424.7,87.9,425.9,89,427,90.2z M426.4,100.3
		h-3.2v6.5h3.2V100.3z M431,100.3h-3.2v6.5h3.2V100.3z M440.2,98l-1.2,1.2c-2.1-1.7-4.6-3.3-7.6-4.7l0.9-1.2
		C435.4,95,438,96.6,440.2,98z M436,106.8v-6.5h-3.4v6.5H436z"/>
	<path fill="#231815" d="M454.3,95.5l-3,0.3c-1,0.1-1.6,0.2-2,0.3c-0.2-0.8-0.4-1.4-0.7-1.7c0.8-0.4,1.6-1.4,2.6-2.9
		c1-1.5,1.7-3.1,2.3-4.9c0.5,0.3,1.1,0.5,1.9,0.7c0.3,0.1,0.4,0.2,0.4,0.4s-0.1,0.3-0.4,0.4s-0.7,0.6-1.3,1.4
		c-0.6,0.8-1.7,2.4-3.2,4.9l4.1-0.2c0.7-1.1,1.2-2.2,1.6-3.4c0.7,0.4,1.3,0.7,1.8,0.9c0.2,0.1,0.3,0.2,0.3,0.3s-0.1,0.3-0.4,0.4
		c-0.2,0.1-0.8,0.7-1.6,1.7c-0.8,1-2.4,3.2-4.7,6.6c1.7-0.1,3.7-0.5,6.1-1.1c-0.1,0.1-0.1,0.3-0.1,0.5c0,0.2,0.1,0.5,0.2,1l-5.3,0.8
		c-1.1,0.2-2.1,0.4-2.9,0.7c-0.2-0.8-0.4-1.4-0.8-1.8C450.6,100.4,452.3,98.6,454.3,95.5z M458.6,103.9c0,0.5,0,1,0.1,1.5
		c-4.4,0.9-7.5,1.7-9.2,2.2c-0.1-0.6-0.3-1.2-0.6-1.8C451.7,105.6,454.9,105,458.6,103.9z M460.2,106.8v-15c0-1.5-0.1-2.7-0.2-3.6
		c0.9,0.1,2.7,0.2,5.6,0.2c2.8,0,4.7-0.1,5.6-0.2c-0.2,1-0.2,2.2-0.2,3.6v15c1-0.1,1.7-0.1,2.3-0.2v1.7c-1.1-0.1-3.7-0.2-8-0.2
		s-6.9,0.1-7.9,0.2v-1.7C458.2,106.8,459.2,106.8,460.2,106.8z M461.9,94.5h7.2v-4.7h-7.2V94.5z M469.1,95.7h-7.2v5.2h7.2V95.7z
		 M469.1,102.1h-7.2v4.8h7.2V102.1z"/>
	<path fill="#231815" d="M485.8,95.7l-2.6,0.1c-0.8,0-1.4,0.2-1.9,0.4c0-0.8-0.2-1.4-0.6-1.8c0.5-0.1,1.2-0.8,2-2.1
		c0.8-1.3,1.6-3,2.5-5.2c0.6,0.5,1.2,0.7,1.8,0.8c0.3,0,0.5,0.1,0.5,0.3c0,0.2-0.1,0.3-0.4,0.4c-0.3,0.1-0.7,0.5-1.3,1.3
		c-0.5,0.8-1.5,2.3-2.8,4.6l3.8-0.2c0.9-1.3,1.4-2.3,1.7-2.9c0.6,0.5,1.1,0.8,1.7,1.1c0.2,0.1,0.3,0.2,0.3,0.4s-0.2,0.3-0.5,0.4
		c-0.3,0.1-0.8,0.5-1.5,1.4s-2.2,2.8-4.5,5.9l5.6-0.6c-0.1,0.3-0.2,0.6-0.2,0.9s0,0.4,0.1,0.6l-4.9,0.5c-1.5,0.2-2.4,0.4-2.8,0.6
		c0-0.7-0.2-1.4-0.6-1.8c0.6-0.1,1.1-0.3,1.6-0.7C483,99.6,484.1,98.1,485.8,95.7z M489.6,105.1c-4,0.8-6.7,1.4-8.1,1.8
		c-0.1-0.8-0.3-1.4-0.8-1.9c2.7-0.1,5.6-0.6,8.7-1.4C489.4,104.1,489.5,104.6,489.6,105.1z M493.1,101.6c0.7,0.5,1.2,0.7,1.5,0.8
		c0.3,0.1,0.5,0.2,0.5,0.4c0,0.2-0.2,0.3-0.5,0.4c-0.3,0.1-0.7,0.5-1.3,1.1c-1.7,2-3.1,3.4-4.2,4.2c-0.3-0.5-1-0.9-1.9-1.1
		C490,106,491.9,104,493.1,101.6z M493,98.3v1.8H491c0.1-1,0.2-2.1,0.2-3.4v-5.6c0-1,0-1.8-0.1-2.4c1.5,0.1,3.3,0.2,5.6,0.2
		s4.1-0.1,5.7-0.2c-0.2,1.1-0.2,1.9-0.2,2.4v5.3c0,1.1,0.1,2.2,0.2,3.3h-1.9v-1.5H493z M500.5,97.1v-6.9H493v6.9H500.5z
		 M504.8,107.5l-1.6,1.1c-1-1.8-2.6-3.8-5-5.9l1.1-1C501.2,103.3,503,105.2,504.8,107.5z"/>
	<path fill="#231815" d="M157.1,139c-1.5,2.1-2.7,3.6-3.6,4.6c-0.8-0.8-1.7-1.3-2.9-1.6c2.6-2.1,4.8-4.8,6.7-8
		c1.9-3.2,3.1-6.3,3.6-9.2c1.1,0.7,2,1,2.9,1.2c0.9,0.1,1.3,0.4,1.3,0.7c0,0.3-0.2,0.6-0.6,0.7c-0.4,0.1-0.8,0.6-1.3,1.3
		c-0.5,0.7-0.9,1.5-1.3,2.4c-0.4,0.9-1,2.1-1.9,3.6v30.6h-3.4c0.4-3.2,0.5-6.3,0.5-9.3V139z M165.4,157.6c-0.9-0.8-2-1.2-3.4-1.3
		c4.5-3.4,7.5-7,8.7-10.9c0.8,0.7,1.8,1,2.8,1.1c0.5,0,0.7,0.2,0.7,0.6c0,0.4-0.2,0.6-0.6,0.6c-0.4,0-1,0.8-1.9,2.2
		C170.3,152.3,168.2,154.8,165.4,157.6z M172.3,134.4c-1.3,2.9-3.2,5.8-5.7,8.8c-1-0.7-2.1-1.1-3.4-1.1c2.2-1.9,4.1-4.2,5.5-6.8
		c1.4-2.6,2.7-5.8,3.7-9.8c1.2,0.4,2.2,0.7,3.2,0.8c0.5,0.1,0.7,0.3,0.7,0.7c0,0.3-0.2,0.5-0.6,0.7c-0.4,0.2-1.2,1.6-2.3,4.3
		c9.8,0.1,16.5-0.1,20.4-0.4l-3.8,9.5l-2.7-0.8l2.5-5.8H172.3z M177,138.9c1.3,0.2,2.4,0.3,3.3,0.3c0.9,0,1.3,0.1,1.3,0.2
		c0,0.1-0.2,0.4-0.6,0.7c-0.4,0.3-0.6,0.8-0.6,1.5v19.5c0,0.9-0.2,1.6-0.6,2.1c-0.4,0.5-1.3,0.9-2.5,1.2c-1.3,0.3-3.1,0.4-5.6,0.4
		c0-1.2-0.6-2.4-1.6-3.6c2,0.4,3.5,0.6,4.5,0.6c1,0,1.8-0.2,2.2-0.5c0.5-0.3,0.7-0.9,0.7-1.9v-12.5
		C177.4,142.9,177.3,140.2,177,138.9z M194.4,156.7l-2.6,1.7c-1.5-3.3-4.3-7.2-8.4-11.8l2.2-1.4
		C188.8,148.5,191.7,152.3,194.4,156.7z"/>
	<path fill="#231815" d="M214.8,145.5c-1.5,1.5-3.4,3-5.6,4.6c-0.5-1.1-1.2-1.9-2.1-2.4c2.8-1.5,5.5-3.4,7.8-5.8
		c2.4-2.4,4.2-4.9,5.4-7.5h-5c-3.3,0-5.5,0.2-6.8,0.5v-3.1c1.3,0.3,4,0.4,8,0.4c4,0,6.6-0.1,8-0.4c-1.8,3.8-4,7.4-6.8,10.7v2.1
		c0.3,0.1,0.8,0.4,1.3,0.7c1.7-1.7,2.9-3.3,3.6-5c0.7,0.6,1.4,1.1,2.3,1.5c0.4,0.2,0.5,0.4,0.5,0.7s-0.2,0.5-0.6,0.5
		c-0.9,0.2-2.2,1.3-4,3.3c1.9,1,3.6,2.2,5.1,3.4l-1.8,2.2c-1.9-2.1-4-3.8-6.4-5.1v10c0,2.4,0.1,5.2,0.4,8.3h-3.6
		c0.3-3.1,0.4-5.9,0.4-8.3V145.5z M220.2,130l-2.4,1.5c-1.1-2.1-2.5-4-4.5-5.7l2-1.5C217.2,126.1,218.8,128,220.2,130z M231.6,144.6
		h-1.7c0,5.1-0.5,9.1-1.5,11.9c-1,2.8-2.8,5.7-5.3,8.7c-0.8-0.7-1.7-1.2-2.7-1.4c1.7-1.6,3-3.4,4.1-5.6c1.1-2.2,1.8-4.5,2.2-7.1
		c0.4-2.6,0.6-6.7,0.6-12.3c0-2.9-0.1-5.4-0.4-7.5c1.7,0.1,5.1,0.2,10.2,0.2v-1.9c0-1.9-0.1-3.3-0.4-4.3c0.6,0.1,1.8,0.2,3.5,0.2
		c0.4,0,0.6,0.1,0.6,0.4c0,0.2-0.2,0.4-0.5,0.6s-0.5,1-0.5,2.3v2.6c5.4,0,9.1-0.1,11.2-0.3l-3.4,8.5l-2.6-0.8l2-5.3h-7.2v8.8
		c3.8,0,6.7-0.1,8.5-0.3c-2,6.4-4.4,11.2-7.1,14.4c2.9,2.5,6.2,4.4,10,5.8c-1,0.8-1.8,1.7-2.4,2.7c-3.3-1.8-6.4-4-9.3-6.7
		c-2.4,2.5-5.7,4.8-9.9,6.9c-0.6-0.9-1.4-1.7-2.5-2.3c4.9-1.8,8.5-3.9,10.8-6.2C235.3,153.6,233.2,149.5,231.6,144.6z M237.1,142.5
		v-8.8h-6.9l-0.2,8.8H237.1z M234.1,144.6c1.5,4.7,3.4,8.2,5.5,10.4c2-2.4,3.8-5.9,5.3-10.4H234.1z"/>
	<path fill="#231815" d="M271.6,158.2v-16.3c-3.5,0-5.7,0.1-6.6,0.2v-2.5c1.5,0.2,3.2,0.3,4.9,0.3c1.7,0,3.4-0.1,5-0.3
		c-0.3,1-0.4,2.8-0.4,5.3v13.3c1,0.2,2.4,0.8,4.5,1.6c2,0.9,3.9,1.5,5.5,1.9s4,0.6,7.1,0.6c3.1,0,8.7-0.3,16.8-0.8
		c-0.7,0.8-1,1.9-0.9,3.1c-5,0.1-9.2,0.2-12.7,0.2s-6.3-0.1-8.4-0.3c-2.1-0.2-3.8-0.5-5-0.9c-1.2-0.4-2.5-1-4.1-1.8
		c-1.5-0.8-2.8-1.2-3.7-1.2c-1,0-1.9,0.3-2.8,0.9c-0.9,0.6-2.1,1.5-3.4,2.9c-0.5-0.9-1.4-1.5-2.7-2.1
		C267.9,160,270.2,158.6,271.6,158.2z M275.7,133.3l-2.5,1.9c-1.8-2.7-4-5.1-6.5-7l2.1-1.8C271.1,128.3,273.4,130.6,275.7,133.3z
		 M290.8,134.6H283c-0.7,1.8-1.5,3.3-2.3,4.4c-0.9-0.4-2-0.7-3.4-0.9c2.7-2.6,4.4-5.9,4.9-10c1.1,0.4,2.2,0.7,3.1,0.8
		c0.4,0.1,0.6,0.2,0.6,0.5c0,0.3-0.2,0.5-0.5,0.7c-0.5,0.3-1.1,1.1-1.7,2.5h7c0-3.2-0.1-5.7-0.4-7.4c0.9,0.2,1.7,0.4,2.5,0.4l1.1,0
		c0.4,0,0.7,0.1,0.7,0.3c0,0.2-0.1,0.4-0.4,0.6c-0.3,0.2-0.5,0.5-0.5,0.8c-0.1,0.3-0.1,0.8-0.1,1.4v4c5,0,8.5-0.1,10.4-0.4v2.7
		c-2.7-0.3-6.1-0.4-10.4-0.4v6.5c6.1,0,10.1-0.2,12-0.4v2.9c-1.9-0.3-4.8-0.4-8.7-0.4v11.5c0,0.8,0.2,1.3,0.7,1.5
		c0.5,0.2,1.3,0.3,2.5,0.3s2-0.4,2.4-1.3c0.4-0.9,0.7-2,0.8-3.5c0.8,0.8,1.8,1.4,3,1.8c-0.7,1.7-1.3,2.9-1.8,3.6
		c-0.6,0.7-1.2,1.2-1.9,1.5c-0.7,0.2-1.9,0.3-3.6,0.3s-2.9-0.2-3.7-0.6c-0.8-0.4-1.2-1.3-1.2-2.6v-12.5h-5c0,3.7-0.7,6.8-2,9.4
		c-1.3,2.6-3.3,4.9-6.1,7c-0.7-1-1.8-1.5-3.3-1.8c6.1-2.9,9-7.7,8.6-14.6c-4.2,0-7.3,0.1-9.4,0.4v-2.9c2.3,0.3,6.9,0.4,13.9,0.4
		V134.6z"/>
	<path fill="#231815" d="M344.6,151v7.1c0,3.5,0.1,6.3,0.4,8.4h-4c0.3-2.1,0.4-4.9,0.4-8.4V151h-13v3.9h-3.4c0.2-2.2,0.3-4.2,0.3-6
		v-10.7c0-1.7-0.1-3.2-0.3-4.6c2.6,0.3,8.1,0.5,16.4,0.5v-3.2c0-2.6-0.1-4.7-0.4-6.2c1.4,0.3,2.6,0.4,3.5,0.4s1.4,0.1,1.4,0.4
		c0,0.3-0.2,0.5-0.7,0.7c-0.4,0.3-0.6,0.9-0.6,1.7v6.1c8.1,0,13.4-0.2,16-0.5c-0.2,2.1-0.2,3.9-0.2,5.5v9.1c0,1.2,0.1,3.3,0.2,6.4
		h-3.3V151H344.6z M341.4,148.7v-12.4h-13v12.4H341.4z M344.6,136.3v12.4h12.7v-12.4H344.6z"/>
	<path fill="#231815" d="M140.3,188.5c0,3.9-0.2,7-0.7,9.2c-0.4,2.2-1.2,4.3-2.2,6.2c-0.7-0.7-1.5-1.1-2.6-1.3
		c1.2-1.6,2.1-3.5,2.6-5.7s0.7-4.8,0.7-7.9s-0.1-6.3-0.2-9.4c1.6,0.2,6.6,0.3,15,0.3c-0.2-3-0.4-5-0.7-6c0.9,0.2,1.8,0.3,2.7,0.4
		c0.4,0,0.7,0.1,0.7,0.3s-0.1,0.4-0.3,0.6c-0.2,0.2-0.3,0.8-0.3,1.7c0,0.9,0,2,0.1,3.1c6,0,9.6-0.1,10.8-0.3v2.4
		c-1.9-0.2-5.5-0.2-10.6-0.2c0.3,4.1,1,7.7,2.1,10.9c1.9-2.7,3.2-5.7,3.9-9c0.9,0.5,1.7,0.9,2.3,1s0.9,0.3,0.9,0.5
		c0,0.2-0.2,0.4-0.6,0.6s-1.4,2-3,5.3c-0.6,1.2-1.4,2.5-2.5,3.9c0.9,2.1,1.9,3.8,3,4.9c1.1,1.2,1.8,1.8,2.2,1.8s0.7-0.3,0.9-1
		c0.2-0.6,0.4-1.6,0.6-2.8c0.6,0.7,1.3,1.1,2.3,1.4c-0.5,1.7-1.1,3-1.6,3.9c-0.5,0.9-1.1,1.3-1.7,1.3c-0.8,0-2-0.8-3.6-2.3
		c-1.5-1.5-2.8-3.2-3.7-5.1c-2.4,2.8-4.9,5.2-7.4,7.2c-0.6-0.7-1.4-1.2-2.3-1.6c3-1.6,5.9-4.2,8.9-7.8c-1.4-4.1-2.3-8.5-2.7-13.1
		h-12.8c0,1.2,0,2.9,0,5.1h4.4c2.2,0,3.9-0.1,5.2-0.3l-0.7,11c-0.1,1.2-0.5,2-1.2,2.5c-0.7,0.5-1.9,0.8-3.5,0.8c-0.6,0-1.3,0-2-0.1
		c0-0.9-0.2-1.7-0.7-2.5c1.6,0.3,2.8,0.5,3.4,0.5c0.7,0,1.1-0.1,1.4-0.3c0.3-0.2,0.5-0.6,0.5-1.3l0.6-8.4H140.3z M163.7,178.1
		l-1.8,1.5c-0.9-1.3-2.3-2.6-4.3-4.1l1.7-1.3C161.1,175.5,162.6,176.8,163.7,178.1z"/>
	<path fill="#231815" d="M193.9,182.6c2.6,0,5.4,0,8.3-0.1s4.8-0.2,5.6-0.3c-0.2,0.8-0.4,1.9-0.6,3.3c-0.2,2.6-0.5,5.4-0.9,8.3
		c-0.3,2.9-0.6,4.7-0.8,5.4s-0.4,1.4-0.7,1.9c-0.3,0.5-0.8,0.9-1.4,1.2c-0.6,0.3-1.3,0.5-2.2,0.6s-2.1,0.2-3.6,0.3
		c-0.1-1-0.5-1.9-1.2-2.8c1.4,0.2,2.6,0.4,3.6,0.4c1,0,1.7-0.2,2.2-0.6c0.5-0.4,0.8-1,1-1.8c0.2-0.8,0.5-2.8,0.9-5.9
		c0.4-3.1,0.7-5.8,0.8-8h-11.3c-0.4,3.6-1.6,7.1-3.8,10.5c-2.1,3.5-4.9,6.4-8.4,8.9c-0.6-0.7-1.4-1.3-2.5-1.6
		c7.2-4,11.4-9.9,12.6-17.9h-5.9c-2.7,0-4.7,0.1-6.1,0.2v-2.4c2.1,0.2,6.2,0.3,12.2,0.4c0-0.9,0.1-2.3,0.1-4s-0.1-3.4-0.2-5
		c0.8,0.3,1.9,0.5,3.3,0.5c0.4,0,0.6,0.1,0.6,0.3c0,0.2-0.2,0.4-0.5,0.7C194.6,175.6,194.2,178.1,193.9,182.6z M188.9,179.8l-2,1.1
		c-1.5-2.5-3-4.3-4.4-5.4l1.7-1.3C185.8,175.6,187.3,177.5,188.9,179.8z M201.5,193.3l-1.6,1.5c-1.6-2-3.4-3.6-5.4-4.9l1.3-1.4
		C197.9,189.8,199.8,191.4,201.5,193.3z"/>
	<path fill="#231815" d="M235.5,177.8c-2.5,0.1-6.3,0.3-11.3,0.4c-0.1-0.8-0.4-1.5-1.1-2.3c1.6,0.3,3.9,0.4,6.8,0.4
		c3,0,6.1-0.1,9.4-0.4c3.3-0.2,5.9-0.7,7.7-1.2c0.4,0.6,0.9,1.2,1.6,1.8c0.2,0.2,0.4,0.4,0.4,0.5c0,0.1-0.2,0.2-0.5,0.1
		s-1-0.1-1.8-0.1c-0.8,0-2.2,0.1-4.1,0.3c-1.9,0.2-3.6,0.3-4.9,0.4v2.6c6.9,0,11.7-0.1,14.5-0.3v2.2c-2.8-0.2-7.6-0.3-14.5-0.3v2.2
		c6.3,0,9.8-0.1,10.5-0.3c-0.1,0.6-0.1,2.1-0.1,4.6s0.1,4.5,0.3,6c-1.2-0.2-4.8-0.3-10.6-0.3v2.9c5.3,0,9.1-0.1,11.3-0.2v2
		c-2.2-0.2-6-0.2-11.3-0.2v3c6.7,0,11.5-0.1,14.2-0.2v2c-2.8-0.2-8.1-0.2-15.9-0.2c-7.8,0-12.9,0.1-15.3,0.2v-2
		c2.5,0.2,7.5,0.2,14.9,0.2v-3c-6,0-9.9,0.1-11.6,0.2v-2c1.8,0.2,5.6,0.2,11.6,0.2V194c-6,0-9.5,0.1-10.6,0.3
		c0.1-1.3,0.2-2.9,0.2-4.8c0-1.9-0.1-3.8-0.2-5.8c1.2,0.2,4.7,0.3,10.6,0.3v-2.2c-7.5,0-12.5,0.1-14.9,0.3v-2.2
		c2.4,0.2,7.3,0.3,14.9,0.3V177.8z M235.5,188.4v-3h-8.3v3H235.5z M235.5,192.5v-2.7h-8.3v2.7H235.5z M237.7,185.4v3h8.3v-3H237.7z
		 M237.7,189.8v2.7h8.3v-2.7H237.7z"/>
	<path fill="#231815" d="M274.1,177.7c-4.3,0-7.7,0.1-10.3,0.3v-2c1.7,0.2,6.6,0.3,14.9,0.3c8.2,0,13.4-0.1,15.6-0.3v2
		c-2.2-0.2-5.7-0.3-10.5-0.3v2.8c2.7,0,5.3-0.1,7.8-0.2c-0.1,1.2-0.1,2.7-0.1,4.5s0,3,0.1,3.7c-2.6-0.1-7.6-0.1-14.8-0.1
		c0.5,0.3,1,0.6,1.4,0.7c0.4,0.1,0.7,0.3,0.7,0.4c0,0.2-0.2,0.3-0.7,0.4c-0.3,0.1-0.8,0.7-1.7,1.7h8.9c5.4,0,8.8-0.1,10.2-0.2v1.9
		c-1.8-0.1-4.4-0.2-7.8-0.2c-1.8,2.6-3.6,4.6-5.5,6c3.1,1,6.5,2.2,10.1,3.5c-0.5,0.4-0.9,1.1-1.4,1.9c-4.2-1.9-7.8-3.3-10.6-4.2
		c-3.3,2-8.5,3.4-15.8,4.2c-0.2-0.9-0.7-1.7-1.5-2.4c6.2,0.1,11.2-0.7,14.9-2.5c-2.4-0.7-5.4-1.5-8.9-2.3c1.4-1.3,2.7-2.7,3.9-4.3
		c-4.7,0-8.1,0.1-10.3,0.2v-1.9c2,0.1,5.8,0.2,11.5,0.2c0.9-1.3,1.5-2.3,2-3.3c-4.1,0-7.4,0-9.8,0.1c0.1-1.4,0.2-2.8,0.2-4.4
		s-0.1-2.8-0.2-3.8c2.4,0.1,5,0.2,7.7,0.2V177.7z M274.1,186.9V182h-5.4v4.9H274.1z M285.2,193.2h-9.9l-2.6,3.3
		c2.8,0.8,5.4,1.5,7.6,2.1C282.4,197.2,284,195.4,285.2,193.2z M281.8,177.7h-5.6v2.8h5.6V177.7z M276.2,182v4.9h5.6V182H276.2z
		 M283.8,182v4.9h5.5V182H283.8z"/>
	<path fill="#231815" d="M337.5,188.5c-3.9-0.2-9.5-0.3-16.7-0.3c-7.2,0-12.3,0.1-15.1,0.3v-2.4c2.9,0.2,8,0.3,15.5,0.3
		s12.9-0.1,16.3-0.3V188.5z"/>
	<path fill="#231815" d="M362.7,190.2c1.1,0.3,2,0.4,2.6,0.4c0.6,0,0.9,0.1,0.9,0.4c0,0.2-0.2,0.5-0.6,0.8s-0.7,1-1,2.1
		c-0.4,2.1-1.1,3.7-2,4.7c-0.9,1.1-2.3,2.2-4.1,3.3c-1.9,1.1-4.7,2.1-8.5,3c0-0.6-0.1-1-0.4-1.4c-0.3-0.3-0.7-0.7-1.4-1
		c3.8-0.3,7.1-1.3,10-2.9c2.9-1.6,4.4-4.3,4.4-8.1C362.7,191,362.7,190.6,362.7,190.2z M376.6,189.2v5.6c0,1.3,0,2.3,0.1,3.2h-2.5
		v-9.7h-19.8v9.9h-2.5c0.1-0.9,0.2-1.9,0.2-3.2v-5.8c0-1.2,0-2.2-0.1-2.8c1.5,0.2,5.6,0.2,12.4,0.2c6.7,0,10.8-0.1,12.4-0.2
		C376.7,187,376.6,188,376.6,189.2z M374.6,184.4c-2.5-0.1-6-0.1-10.5-0.1s-7.9,0-10,0.1c0.1-1.1,0.2-2.6,0.2-4.4
		c0-1.8-0.1-3.2-0.2-4.4c2,0.1,5.4,0.2,10.3,0.2s8.3-0.1,10.3-0.2c-0.1,1.6-0.1,3.2-0.1,4.7S374.5,183.3,374.6,184.4z M372.2,182.6
		v-5.1h-15.8v5.1H372.2z M379.9,202.8l-1.6,2c-3-2.1-7.2-4.3-12.5-6.7l1.2-1.6C370.7,198,375,200.1,379.9,202.8z"/>
</g>
<g>
	<path fill="#231815" d="M157.8,244.9c-0.3,0.7-0.4,1.4-0.7,2.5H149V247c1.3-1.3,2.6-2.6,3.7-3.9c1.2-1.4,3.1-3.2,3.1-5.5
		c0-2.1-1.1-3.2-2.9-3.2c-1.7,0-2.7,1.4-3.2,2.1l-0.3-0.3l1.2-1.7c0.6-0.6,1.7-1.2,2.9-1.2c1.8,0,3.6,1.3,3.6,3.5
		c0,2-1.1,3.5-2.9,5.5l-3.6,3.9h4.7c1.2,0,1.5-0.1,2.1-1.5L157.8,244.9z"/>
	<path fill="#231815" d="M168.6,240.5c0,3.2-1.2,7.1-4.3,7.1c-3.2,0-4.4-3.9-4.4-7.1c0-3.2,1.3-7.1,4.4-7.1
		C167.4,233.4,168.6,237.4,168.6,240.5z M164.2,233.9c-2.5,0-3.1,3.4-3.1,6.6c0,3.1,0.6,6.6,3.1,6.6c2.4,0,3-3.5,3-6.6
		C167.3,237.3,166.6,233.9,164.2,233.9L164.2,233.9z"/>
	<path fill="#231815" d="M172.2,247c2.1-0.2,2.3-0.5,2.3-2v-8.8c0-1-0.1-1.2-1.2-1.3l-1-0.1v-0.3c1.4-0.3,2.6-0.7,3.3-1.1V245
		c0,1.5,0.2,1.8,2.3,2v0.3h-5.7V247z"/>
	<path fill="#231815" d="M183,233.6h6l0.1,0.1l-0.5,1h-5.1l-0.7,4.3c1.1-0.4,2-0.7,2.6-0.7c2.8,0,4.1,2.1,4.1,3.9
		c0,3.4-3.5,5.3-5.8,5.3c-1.3,0-2.4-0.6-2.4-1.2c0-0.4,0.5-0.9,0.8-0.9c0.1,0,0.2,0,0.2,0.1c0.4,0.4,1.2,1,2.6,1
		c3,0,3.4-2.6,3.4-3.5c0-2.3-1.1-3.7-3.8-3.7c-1.3,0-2,0.3-2.4,0.4L183,233.6z"/>
	<path fill="#231815" d="M192.5,246.6c0-0.6,0.4-1.1,1-1.1c0.6,0,1,0.5,1,1.1c0,0.6-0.4,1-1,1C192.9,247.6,192.5,247.2,192.5,246.6z
		"/>
	<path fill="#231815" d="M200.5,239.1c0.5-0.3,1-0.4,1.5-0.4c2.3,0,4,1.9,4,4.1c0,2.6-1.8,4.8-4.5,4.8c-2.2,0-4.3-2-4.3-5.5
		c0-3.9,2.3-7.8,8.3-9l0.1,0.5c-0.8,0.1-1.6,0.4-2.5,0.8c-1.6,0.7-3.6,2.2-4.4,5.5L200.5,239.1z M198.7,240.4
		c-0.1,0.4-0.1,1-0.1,1.6c0,2.8,1.1,5.1,3.4,5.1c2.2,0,2.8-2.1,2.8-3.7c0-1.7-0.9-3.8-3.4-3.8C200.4,239.6,199.4,240,198.7,240.4z"
		/>
	<path fill="#231815" d="M208.6,246.6c0-0.6,0.4-1.1,1-1.1c0.6,0,1,0.5,1,1.1c0,0.6-0.4,1-1,1C209,247.6,208.6,247.2,208.6,246.6z"
		/>
	<path fill="#231815" d="M215,247c2.1-0.2,2.3-0.5,2.3-2v-8.8c0-1-0.1-1.2-1.2-1.3l-1-0.1v-0.3c1.4-0.3,2.6-0.7,3.3-1.1V245
		c0,1.5,0.2,1.8,2.3,2v0.3H215V247z"/>
	<path fill="#231815" d="M225.8,233.6h6l0.1,0.1l-0.5,1h-5.1l-0.7,4.3c1.1-0.4,2-0.7,2.6-0.7c2.8,0,4.1,2.1,4.1,3.9
		c0,3.4-3.5,5.3-5.8,5.3c-1.3,0-2.4-0.6-2.4-1.2c0-0.4,0.5-0.9,0.8-0.9c0.1,0,0.2,0,0.2,0.1c0.4,0.4,1.2,1,2.6,1
		c3,0,3.4-2.6,3.4-3.5c0-2.3-1.1-3.7-3.8-3.7c-1.3,0-2,0.3-2.4,0.4L225.8,233.6z"/>
	<path fill="#231815" d="M255.5,239h-20.2v-0.6h20.2V239z"/>
	<path fill="#231815" d="M278.5,239h-20.2v-0.6h20.2V239z"/>
	<path fill="#231815" d="M289.1,244.9c-0.3,0.7-0.4,1.4-0.7,2.5h-8.1V247c1.3-1.3,2.6-2.6,3.7-3.9c1.2-1.4,3.1-3.2,3.1-5.5
		c0-2.1-1.1-3.2-2.9-3.2c-1.7,0-2.7,1.4-3.2,2.1l-0.3-0.3l1.2-1.7c0.6-0.6,1.7-1.2,2.9-1.2c1.8,0,3.6,1.3,3.6,3.5
		c0,2-1.1,3.5-2.9,5.5l-3.6,3.9h4.7c1.2,0,1.5-0.1,2.1-1.5L289.1,244.9z"/>
	<path fill="#231815" d="M300,240.5c0,3.2-1.2,7.1-4.3,7.1c-3.2,0-4.4-3.9-4.4-7.1c0-3.2,1.3-7.1,4.4-7.1
		C298.8,233.4,300,237.4,300,240.5z M295.6,233.9c-2.5,0-3.1,3.4-3.1,6.6c0,3.1,0.6,6.6,3.1,6.6c2.4,0,3-3.5,3-6.6
		C298.7,237.3,298,233.9,295.6,233.9L295.6,233.9z"/>
	<path fill="#231815" d="M303.6,247c2.1-0.2,2.3-0.5,2.3-2v-8.8c0-1-0.1-1.2-1.2-1.3l-1-0.1v-0.3c1.4-0.3,2.6-0.7,3.3-1.1V245
		c0,1.5,0.2,1.8,2.3,2v0.3h-5.7V247z"/>
	<path fill="#231815" d="M314.3,233.6h6l0.1,0.1l-0.5,1h-5.1l-0.7,4.3c1.1-0.4,2-0.7,2.6-0.7c2.8,0,4.1,2.1,4.1,3.9
		c0,3.4-3.5,5.3-5.8,5.3c-1.3,0-2.4-0.6-2.4-1.2c0-0.4,0.5-0.9,0.8-0.9c0.1,0,0.2,0,0.2,0.1c0.4,0.4,1.2,1,2.6,1
		c3,0,3.4-2.6,3.4-3.5c0-2.3-1.1-3.7-3.8-3.7c-1.3,0-2,0.3-2.4,0.4L314.3,233.6z"/>
	<path fill="#231815" d="M323.9,246.6c0-0.6,0.4-1.1,1-1.1c0.6,0,1,0.5,1,1.1c0,0.6-0.4,1-1,1C324.3,247.6,323.9,247.2,323.9,246.6z
		"/>
	<path fill="#231815" d="M331.9,239.1c0.5-0.3,1-0.4,1.5-0.4c2.3,0,4,1.9,4,4.1c0,2.6-1.8,4.8-4.5,4.8c-2.2,0-4.3-2-4.3-5.5
		c0-3.9,2.3-7.8,8.3-9l0.1,0.5c-0.8,0.1-1.6,0.4-2.5,0.8c-1.6,0.7-3.6,2.2-4.4,5.5L331.9,239.1z M330,240.4c-0.1,0.4-0.1,1-0.1,1.6
		c0,2.8,1.1,5.1,3.4,5.1c2.2,0,2.8-2.1,2.8-3.7c0-1.7-0.9-3.8-3.4-3.8C331.7,239.6,330.8,240,330,240.4z"/>
	<path fill="#231815" d="M340,246.6c0-0.6,0.4-1.1,1-1.1c0.6,0,1,0.5,1,1.1c0,0.6-0.4,1-1,1C340.4,247.6,340,247.2,340,246.6z"/>
	<path fill="#231815" d="M346.4,247c2.1-0.2,2.3-0.5,2.3-2v-8.8c0-1-0.1-1.2-1.2-1.3l-1-0.1v-0.3c1.4-0.3,2.6-0.7,3.3-1.1V245
		c0,1.5,0.2,1.8,2.3,2v0.3h-5.7V247z"/>
	<path fill="#231815" d="M355.6,236.5c0.1-0.9,0.2-1.9,0.3-2.9h8.1l0.2,0.3c-2.2,4.4-4.2,9-6.2,13.5l-1.4,0.2l-0.2-0.2
		c2.6-4.1,4.8-8.4,6.6-12.7h-4.9c-1.6,0-1.7,0.2-2.2,1.7H355.6z"/>
</g>
<g>
</g>
<g>
</g>
<g>
</g>
<g>
</g>
<g>
</g>
<g>
</g>
<g>
</g>
<g>
</g>
<g>
</g>
<g>
</g>
<g>
</g>
<g>
</g>
<g>
</g>
<g>
</g>
<g>
</g>
</svg>
