<?xml version="1.0" encoding="utf-8"?>
<!-- Generator: Adobe Illustrator 18.0.0, SVG Export Plug-In . SVG Version: 6.00 Build 0)  -->
<!DOCTYPE svg PUBLIC "-//W3C//DTD SVG 1.1//EN" "http://www.w3.org/Graphics/SVG/1.1/DTD/svg11.dtd">
<svg version="1.1" id="图层_1" xmlns="http://www.w3.org/2000/svg" xmlns:xlink="http://www.w3.org/1999/xlink" x="0px" y="0px"
	 viewBox="0 0 1192 575" enable-background="new 0 0 1192 575" xml:space="preserve">
<g>
	<g>
		<g>
			<g>
				<path fill="#B2B2B2" d="M1040.1,249.9c5.5-39,8-67.9,8-67.9c-6.9-3.8-13.8-7.5-20.7-11c-2.3-1.2-4.6-2.3-6.9-3.4
					c-4.6-2.3-9.2-4.6-13.8-6.7c-2.8-1.3-5.5-2.5-8.3-3.8c-4.2-1.9-8.4-3.8-12.6-5.5c-2.9-1.3-5.9-2.5-8.8-3.7
					c-4-1.6-8-3.3-12.1-4.8c-3-1.2-6-2.3-9-3.4c-4-1.5-7.9-2.9-11.9-4.3c-3-1.1-6-2.1-9.1-3.1c-4-1.3-7.9-2.6-11.9-3.8
					c-3-0.9-6-1.9-8.9-2.8c-4.1-1.2-8.2-2.4-12.3-3.5c-2.8-0.8-5.6-1.6-8.4-2.3c-4.8-1.3-9.7-2.5-14.5-3.6
					c-3.4-0.8-6.8-1.6-10.2-2.4c-5.3-1.2-10.6-2.4-15.8-3.4c-3.2-0.7-6.3-1.2-9.5-1.8c-3.6-0.7-7.3-1.4-10.9-2
					c-1.2-0.2-2.5-0.4-3.7-0.7c0.2,0,0.3,0,0.4,0.1c-6.1-1-12.2-2-18.3-2.9c-1.9-0.3-3.8-0.5-5.8-0.8c-2.7-0.4-5.4-0.7-8-1.1
					c-1-0.1-2.1-0.3-3.1-0.4c-1.3-0.2-2.5-0.3-3.8-0.5c-1.4-0.2-2.8-0.3-4.2-0.5c-2.3-0.3-4.5-0.5-6.7-0.7c-1.3-0.1-2.6-0.3-3.8-0.4
					c-2.5-0.3-5-0.5-7.5-0.7c-1.8-0.2-3.6-0.3-5.5-0.5c-1-0.1-1.9-0.2-2.9-0.2c-0.5,0-1-0.1-1.5-0.1c-3.3-0.3-6.6-0.5-9.9-0.7
					c-1.6-0.1-3.3-0.2-4.9-0.3c-1.1-0.1-2.3-0.1-3.5-0.2c0,0-0.1,0-0.1,0c0,0,0,0,0,0c-4.8-0.3-9.5-0.5-14.2-0.7
					c-1.7-0.1-3.3-0.1-4.9-0.2c-4.7-0.2-9.4-0.3-14-0.4c-1.7,0-3.5-0.1-5.2-0.1c-5.9-0.1-11.7-0.1-17.5-0.1c-1.4,0-2.7,0-4,0
					c-4.8,0.1-9.5,0.1-14.3,0.3c-1.7,0-3.5,0.1-5.2,0.1c-5.8,0.2-11.5,0.4-17.2,0.7c-0.8,0-1.6,0.1-2.4,0.1
					c-5.1,0.3-10.2,0.6-15.2,0.9c-1.7,0.1-3.4,0.2-5,0.3c-5.3,0.4-10.6,0.8-15.8,1.2c-0.4,0-0.9,0.1-1.3,0.1
					c-5.6,0.5-11.2,1-16.8,1.6c-1.6,0.2-3.1,0.3-4.7,0.5c-4.8,0.5-9.5,1-14.2,1.6c-0.9,0.1-1.8,0.2-2.6,0.3
					c-5.5,0.7-10.9,1.4-16.2,2.1c-1.4,0.2-2.7,0.4-4.1,0.6c-4.5,0.6-8.9,1.3-13.3,1.9c-1.1,0.2-2.1,0.3-3.2,0.5
					c-5.2,0.8-10.4,1.6-15.6,2.5c-1.2,0.2-2.3,0.4-3.5,0.6c-4.3,0.7-8.6,1.5-12.8,2.2c-1.1,0.2-2.3,0.4-3.4,0.6
					c-5,0.9-10,1.8-15,2.8c-0.9,0.2-1.7,0.3-2.6,0.5c-4.2,0.8-8.4,1.6-12.6,2.5c-1.1,0.2-2.3,0.5-3.5,0.7c-4.8,1-9.6,2-14.2,3
					c-0.5,0.1-1,0.2-1.5,0.3c-4.2,0.9-8.4,1.8-12.5,2.8c-1.2,0.3-2.3,0.5-3.5,0.8c-4.5,1-9,2-13.3,3.1c-13.4,2.9-26.3,6.1-38.9,9.5
					c-0.1,0-0.1,0-0.1,0c-4.4,1.2-8.7,2.4-13,3.6c-0.1,0-0.2,0.1-0.3,0.1c-4.3,1.2-8.5,2.5-12.7,3.7c-0.1,0-0.2,0.1-0.3,0.1
					c-4.2,1.3-8.4,2.6-12.5,3.9c0,0,0,0-0.1,0c-98.5,31.9-166.5,71.2-184.7,80.8c0,0-0.1,0-0.1,0c-0.6,0.3-1.1,0.6-1.7,0.9
					c-0.2,0.1-0.4,0.2-0.5,0.3c-0.4,0.2-0.7,0.4-1,0.5c-0.1,0.1-0.3,0.2-0.5,0.2c-0.3,0.1-0.4,0.2-0.6,0.2c-0.1,0-0.2,0.1-0.3,0.1
					c-0.2,0.1-0.3,0-0.3,0c0,0.1,10.1,39.8,33.7,94.9c-56,40.5-112.3,78.7-168.9,114.5c41.7,5.8,83.4,12.1,125.3,18.9
					c-0.4,34.1-0.9,68-1.4,101.7c84.8-24.5,169.3-51.3,253.6-80.3c-15.8-23.9-31.5-47.5-47.3-70.7c3.4-1.6,6.8-3.1,10.4-4.7
					c0.4-0.2,0.8-0.4,1.3-0.6c1.9-0.8,3.8-1.7,5.7-2.5c0.6-0.3,1.3-0.5,1.9-0.8c2-0.9,4-1.7,6-2.6c0.4-0.2,0.9-0.4,1.4-0.6
					c9.4-3.9,19.4-7.9,29.9-11.9c0.3-0.1,0.7-0.2,1-0.4c2.6-1,5.3-2,8-2.9c0,0,0,0,0,0c8.5-3.1,17.4-6.2,26.6-9.2c0,0,0,0,0,0
					c109.1-35,265-67.8,466.7-25.6c-9.4,28.6-18.8,56.9-28.3,84.9c93.7,11,187.6,23.4,281.7,37.3c-18.1-33-36.1-65.6-54.1-97.8
					c28.6-20.6,57-41.6,85.5-63.2C1137,290.2,1088.5,269.5,1040.1,249.9z"/>
				<g>
					
						<radialGradient id="SVGID_1_" cx="134.9572" cy="368.8733" r="151.1225" gradientTransform="matrix(1.0797 -0.121 0.1306 0.9926 -1.6422 50.9999)" gradientUnits="userSpaceOnUse">
						<stop  offset="0" style="stop-color:#C8B720"/>
						<stop  offset="1" style="stop-color:#89AE35"/>
					</radialGradient>
					<path fill="url(#SVGID_1_)" d="M385.8,457.9c-84.2,29-168.7,55.8-253.6,80.3c0.5-33.7,0.9-67.6,1.4-101.7
						c-41.8-6.8-83.6-13.1-125.3-18.9c73.5-46.5,146.5-97,219-151.5C279.8,326.7,332.6,390.6,385.8,457.9z"/>
					
						<radialGradient id="SVGID_2_" cx="177.0392" cy="401.5277" r="155.726" gradientTransform="matrix(1.0876 -5.800000e-003 5.400000e-003 1 2.2025 1.6106)" gradientUnits="userSpaceOnUse">
						<stop  offset="0" style="stop-color:#B8A916"/>
						<stop  offset="1" style="stop-color:#7CA12C"/>
					</radialGradient>
					<path fill="url(#SVGID_2_)" d="M385.8,457.9c-53.2-67.3-106-131.2-158.4-191.7c-72.5,54.5-145.5,105-219,151.5
						c41.7,5.8,83.4,12.1,125.3,18.9c-0.4,34.1-0.9,68-1.4,101.7C217.1,513.7,301.6,486.9,385.8,457.9z M230.5,289.8
						c42.9,44.1,86,90.2,129.4,138.4c-20.7,44.2-130.1,79.4-203,3C84.5,357.8,230.7,291.1,230.5,289.8z"/>
					
						<radialGradient id="SVGID_3_" cx="902.0087" cy="385.7187" r="143.5257" gradientTransform="matrix(1.0797 -0.121 0.1306 0.9926 -1.6422 50.9999)" gradientUnits="userSpaceOnUse">
						<stop  offset="0" style="stop-color:#C8B720"/>
						<stop  offset="1" style="stop-color:#89AE35"/>
					</radialGradient>
					<path fill="url(#SVGID_3_)" d="M869.2,410.4c93.7,11,187.6,23.4,281.7,37.3c-18.1-33-36.1-65.6-54.1-97.8
						c28.6-20.6,57.1-41.6,85.5-63.2c-74.5-33.1-148.7-63.9-222.6-92.3C929.9,268.9,899.7,340.9,869.2,410.4z"/>
					
						<radialGradient id="SVGID_4_" cx="902.0087" cy="385.7187" r="143.5257" gradientTransform="matrix(1.0797 -0.121 0.1306 0.9926 -1.6422 50.9999)" gradientUnits="userSpaceOnUse">
						<stop  offset="0" style="stop-color:#B8A916"/>
						<stop  offset="1" style="stop-color:#7CA12C"/>
					</radialGradient>
					<path fill="url(#SVGID_4_)" d="M1182.4,286.7c-74.5-33.1-148.7-63.9-222.6-92.3c-23.6,58.9-47.5,116.3-71.5,172.2
						c25.4-45.5,50.7-92.2,75.7-140.1c38.8-0.5,164.1,12.6,117.1,124.6c-47.5,108.8-193,13.8-192.8,15.5
						c-6.3,14.7-12.7,29.3-19,43.8c93.7,11,187.6,23.4,281.7,37.3c-18.1-33-36.1-65.6-54.1-97.8
						C1125.4,329.3,1153.9,308.2,1182.4,286.7z"/>
					<path fill="#263317" d="M249.8,436.2c45.3,6.7,90.6,13.9,136,21.7c-39.8-60.2-79.3-118.3-118.6-174.2
						C261.5,335.3,255.7,386.1,249.8,436.2z"/>
					<path fill="#263317" d="M1009.7,356.9c-46.8,18.5-93.6,36.3-140.5,53.6c17.7-52.3,35.3-105.7,52.7-160.3
						C951.1,284.9,980.3,320.5,1009.7,356.9z"/>
					
						<radialGradient id="SVGID_5_" cx="566.352" cy="351.4682" r="315.0738" gradientTransform="matrix(-1.0797 0.121 -0.1306 -0.9926 1258.8087 518.0852)" gradientUnits="userSpaceOnUse">
						<stop  offset="0" style="stop-color:#D6C62F"/>
						<stop  offset="1" style="stop-color:#98BE43"/>
					</radialGradient>
					<path fill="url(#SVGID_5_)" d="M1009.7,356.9c-0.3,3.2-116.1-58.6-287.1-61.1c-138.8-3.6-332.1,35.9-472.8,140.5
						c-35.7-78.3-71.2-154.3-106.3-227.9c-0.4,3.3,107.2-68.2,267.4-104c157.7-35.5,401.3-75.4,633.9,52.6
						C1033.3,224.7,1021.6,291.4,1009.7,356.9z"/>
					
						<radialGradient id="SVGID_6_" cx="528.0003" cy="259.0133" r="313.4109" gradientTransform="matrix(1.0797 -0.121 0.1306 0.9926 -1.6422 50.9999)" gradientUnits="userSpaceOnUse">
						<stop  offset="0" style="stop-color:#C8B720"/>
						<stop  offset="1" style="stop-color:#89AE35"/>
					</radialGradient>
					<path fill="url(#SVGID_6_)" d="M736.3,70.8c109.1,19.3,281.8,75.3,269.8,162.5c-18,123.8-171.1,21.5-399,46.8
						c-228,25.4-279.1,130.3-365.3,28.3c-99.6-112.3,135.1-193.2,143.8-198c-145.9,37.5-242.3,100.9-241.9,98
						c35.1,73.6,70.5,149.6,106.3,227.9c140.7-104.6,333.9-144.1,472.8-140.5c171,2.5,286.9,64.3,287.1,61.1
						c11.8-65.5,23.5-132.1,35.1-199.9C941.2,99.4,835.6,76.3,736.3,70.8z"/>
					<path fill="#5D7130" d="M249.8,436.2c-0.1-1,68.1-48.8,196.2-90.2c128.4-39.1,316.7-71.7,563.7,10.8
						c0,0.4-109.5-54.2-258.1-62.9C602.7,282.7,414.6,317.2,249.8,436.2z"/>
					<path fill="#708C31" d="M272.6,397.3c-0.1-0.7,69-46.7,190.8-84.2c122-35.6,296.7-62.6,513.3,10.4
						c0.1,0.4-99.4-42.4-236.2-49.9C603.4,264,442.3,293.3,272.6,397.3z"/>
					<path fill="#989898" d="M825.7,80.7C668,54.3,519.1,79.3,410.9,104.4c-160.2,35.8-267.8,107.2-267.4,104
						c35.1,73.6,70.5,149.6,106.3,227.9c1.8-1.3,3.6-2.5,5.4-3.7c-1.8,1.2-3.1,2.1-4,2.7c22.5-16.5,46.2-31.4,70.9-44.8
						c-22.6,12.7-44.9,26.7-66.9,42c17.5-11.6,77.3-48.8,175.6-81.4c0,0,0,0,0,0C585.7,61.8,822.2,74.2,825.7,80.7z"/>
					<path fill="#CFD631" d="M1009.7,356.9c0-0.3-8.2-99.8,35.1-199.9C1044.8,157,1034.5,275.8,1009.7,356.9z"/>
					<path fill="#CFD631" d="M249.8,436.2c0,0.4-35.5-114.8-106.3-227.9C143.6,208.8,172.7,323.7,249.8,436.2z"/>
					<path fill="#B2B2B2" d="M217.4,318.4c-14.8-35-29.6-69.7-44.3-103.9c0.6,4.3,162-132,575.6-127.9
						c-0.4-3.2-413.9,26.9-555.3,127.4C201.4,248.7,209.4,283.5,217.4,318.4z"/>
					<path fill="#5D7130" d="M869.2,410.4c0.1,0.5,120.2-4.2,281.7,37.3C1056.8,433.8,962.9,421.4,869.2,410.4z"/>
					<path fill="#5D7130" d="M132.3,538.2c0,0.3,113.9-47.2,253.6-80.3C301.6,486.9,217.1,513.7,132.3,538.2z"/>
				</g>
			</g>
			<g>
				<path fill="#5D7130" d="M430.7,273.8l-3.9,1.6l-33.7-85.9l-7.1-3.1l-25,10l-0.2-0.6l31-12.5l3.1-7.2l-4.8-12.2l-7.1-3.1
					l-31,12.5l-2-5.2l-7.1-3.1l-18.1,7.3l-3.1,7.2l2,5.2l-30.4,12.2l-3.1,7.2l2.8,7l-3.6,1.5l-6.8-17.4l-7.1-3.1l-17.4,7l-3.1,7.2
					l6.8,17.4l-9.3,3.8l-3.1,7.2l5,12.8l7.1,3.1l7-2.8c3.2,18.5,4.6,36,4.1,52.2l0.4,2.2l7.9,20.2l10.5-1c1-5.5,1.8-10.7,2.5-15.6
					l16.1,41l7.1,3.1l17.4-7l3.1-7.2l-1.7-4.3l6.3,2.8l96.9-38.9l3.1-7.2l-4.3-11L430.7,273.8z M300,235l6.5-2.6l0.9-2.1l11,28.1
					C311.8,251.4,305.6,243.6,300,235z M333.8,312.8l-2.7,6.4l-12.8-32.7c1.7,1.2,3.5,2.5,5.3,3.7l5.5-4.5l9.8,25.1L333.8,312.8z
					 M308.3,217.5l-0.9,2.1l-0.9-2.2l25.9-10.4l0.2,0.6L308.3,217.5z M339.8,231.1l32.5-13.1l0.2,0.6L340,231.7L339.8,231.1z
					 M348.4,253.1l32.5-13.1l0.5,1.2l-32.5,13.1L348.4,253.1z M357,275.1l32.5-13.1l0.7,1.9L357.7,277L357,275.1z M366.6,299.6
					l-0.7-1.9l32.5-13.1l0.7,1.9L366.6,299.6z"/>
				<path fill="#5D7130" d="M590.8,147.2l-2.7-13.5l-6.5-4.4l-6,1.2l-3.6-18.4l-6.5-4.4l-17.8,3.6l-4.3,6.6l3.6,18.4l-15.3,3.1
					l-0.8-4.2l-6.5-4.4l-45.7,9.2l-4.3,6.6l0.7,3.6l-1.9,0.4l-3.5-17.7l-6.5-4.4l-18.4,3.7l-4.3,6.6l3.5,17.7l-9.9,2l-4.3,6.6
					l2.5,12.9l6.5,4.4l8.2-1.6c0.1,17.2-1.9,35.9-6,55.6l0,2.2l4.1,20.6l10.5,1c2.1-5.3,4-10.5,5.8-15.7l8.5,43.2l6.5,4.4l18.4-3.7
					l4.3-6.6l-1.7-8.4l8.2,2.1c7.6-9.3,13.9-18.7,18.6-28.1c7.6,6.6,16.7,12.9,27.2,18.8l4-3l0.9,4.4l6.5,4.4l13.9-2.8
					c8.1-1.4,13.9-4.8,17.4-10c3.6-5.5,4.5-12.9,2.4-21.9L580.4,155l6-1.2L590.8,147.2z M479.8,173.9l1.4-0.3c1,3.2,2,6.3,3,9.3
					C482.6,179.9,481.1,176.9,479.8,173.9z M493.9,254.9L493.9,254.9l-5.7-29c2.2,2.1,4.6,4.2,7.1,6.4l8.9-5.3l-0.5-2.3
					c0.6,1,1.3,1.9,2,2.8C503.9,234.5,499.9,243.7,493.9,254.9z M504.9,160.7l-1.5-1l4.4-0.9c1.1,6.7,1.9,13.1,2.5,19
					C508.4,172.5,506.6,166.8,504.9,160.7z M551.9,160.7l2.6,13.3c-1.2-2.3-2.4-4.7-3.6-7l-5.9-2.8l-9.3,1.9c-0.1-0.7-0.1-1.3-0.2-2
					L551.9,160.7z M568.5,245.1c-0.2,0.1-0.9,0.5-2.4,0.7l-0.4,0.1l-7.6,1.5l-0.8,1.2l-0.6-3.2l-1.9-3.2c-7.9-6.6-14.9-13.3-21-20
					c2-8,3.1-17.3,3.2-28c3.8,9.5,6.8,18.2,8.9,26.2l6.4,4L564,222l4.1,21l0.1,0.4C568.5,244.3,568.5,244.8,568.5,245.1z"/>
				<path fill="#5D7130" d="M738,126.1l0-18.7l-5.5-5.6l-21.4,0l-5.5,5.6l0,18.7l-31.4,0l-5,5.1c-2.7-9.1-5.9-17.3-9.6-24.4l-4.9-3
					l-18.1,0l-5,7.8c5,11.8,8.4,22.5,10.1,31.7l5.4,4.6l19.4,0l2.3-2.9l0,1.3l5.5,5.6l31.3,0c-1.5,25.3-13.5,44.2-36.7,57.6l-0.1-54
					l-5.5-5.6l-36.3,0l-5.5,5.6l0,13.8l5.5,5.6l10.7,0l0.1,49l0,0.2c0.3,8-3.3,12.8-11.7,15.5l-3.8,5.3l0,11.8l6.4,5.5
					c11.8-1.9,20.9-6,27.1-12.2c6.7,6,16.2,9,28.3,9l92,0.1l5.5-5.6l0-12.5l-5.5-5.6l-90-0.1c-4.3-0.1-7.8-0.9-10.4-2.5
					c20.5-8.1,36.1-20.6,46.7-37.4c11.2,16.7,27.9,29.8,49.7,38.9l7.6-5.2l0-13.8l-2.7-4.8c-23.2-14.3-35.8-33.5-38.5-58.7l32.3,0
					l5.5-5.6l0-14.5l-5.5-5.6L738,126.1z"/>
				<path fill="#5D7130" d="M950,273.7c-33.4-40.3-45.4-82.9-35.5-126.6l3.1-14.1l-4.2-6.7l-21.5-4.8l-6.5,4.2l-3.1,14.2
					c-9.1,43.9-37.4,77.4-84.3,99.6l-3,3.8l-3.2,14.8l7,6.5c38.9-12.6,67.5-30.8,85.2-54.2c6.6,29.3,25,58.1,54.9,85.8l9.1-2.9
					l3.2-14.8L950,273.7z"/>
			</g>
			<g>
				<path fill="#FFFFFF" d="M329,281c-8.2-5.5-15.1-10.8-20.8-15.9l26.6,66.9l-17.3,6.9l-24.7-62.1c0.1,10.6-1.3,23.4-4.2,38.3
					l-7.8-19.7c0.6-18.2-1.2-37.8-5.3-58.7l-13.1,5.2l-5-12.5l14.3-5.7l-8.8-22.1l17.3-6.9l8.8,22.1l13.1-5.2l5,12.5l-12.5,5
					c7.9,13,17,24.4,27.4,34.1L329,281z M302.7,211.3l-4.7-11.9l35.2-14l-4-10.2l17.9-7.1l4,10.2L387,164l4.7,11.9l-35.8,14.2
					l4.3,10.8l29.9-11.9l35.3,89l9-3.6l4.3,10.8l-96.2,38.2l-4.3-10.8l10.2-4l-35.3-89l29.3-11.6l-4.3-10.8L302.7,211.3z M335,224.7
					l4.3,10.8l42.4-16.8l-4.3-10.8L335,224.7z M343.6,246.2l4.5,11.3l42.4-16.8l-4.5-11.4L343.6,246.2z M352.1,267.7l4.7,11.9
					l42.4-16.8l-4.7-11.9L352.1,267.7z M360.9,289.8l4.7,11.9l42.4-16.8l-4.7-11.9L360.9,289.8z"/>
				<path fill="#FFFFFF" d="M502.5,267.3l-2.8-13.9c7.1-12.8,11.4-23,12.9-30.7c-9.9-12.4-18.9-32.3-26.9-59.5l15.1-3
					c4.7,17,10.1,31.2,16.4,42.6c1.2-13.8-0.1-31.2-3.9-52.3l-29.6,5.9l1.8,8.8l-12,2.4c5.3,13.4,12.9,26.5,22.9,39.3l3.5,17.6
					c-7.9-6.7-14.4-13.1-19.5-19l14.4,72.5l-18.3,3.6L463.8,218c-2.9,11.5-6.9,23.4-11.9,35.8l-4-20.2c4.7-22.3,6.7-43.1,6-62.1
					l-14.5,2.9l-2.5-12.6l15.1-3l-4.5-22.7l18.3-3.6l4.5,22.7l12.6-2.5l-1.8-8.8l45.4-9l2.4,12c4.7,32.3,4.5,56.8-0.4,73.5
					c6.7,7.4,14.5,14.8,23.4,22.2l2.9,14.5c-12.8-7.1-23.2-14.6-31.4-22.6C518.7,245.3,511.7,256.3,502.5,267.3z M534.2,156.8
					l-2.6-13.2l22.7-4.5l-4.6-23.3l17.6-3.5l4.6,23.3l11.3-2.3l2.6,13.2l-11.3,2.3l17.1,85.7c3.3,14.2-1.9,22.4-15.4,24.7l-13.9,2.8
					l-2.6-13.2l7.6-1.5c6-0.8,8.2-3.8,6.7-9.2l-17.1-85.7L534.2,156.8z M551.8,215.6c-3.5-13.3-9.4-28.5-17.6-45.6l12.6-2.5
					c8.3,15.4,14.8,30.5,19.5,45.3L551.8,215.6z"/>
				<path fill="#FFFFFF" d="M627.8,252.2l0-11.6c10.7-3.4,15.8-10.3,15.4-20.6l0-53.3l-16.1,0l0-13.5l36,0l0,61.1
					c0.4,14.6,7.9,22.1,22.5,22.5l89.3,0l0,12.2l-91.3,0c-13.3,0-22.7-3.8-28.3-11.6C650.3,245.1,641.1,250,627.8,252.2z
					 M647.1,140.4c-1.7-9.4-5.2-20.1-10.3-32.1l18,0c4.7,9,8.6,19.7,11.6,32.1L647.1,140.4z M674.1,144.2l0-14.1l36.6,0l0-23.8
					l21.2,0l0,23.8l37.9,0l0,14.1l-37.9,0c1.3,29.1,15,51.6,41.2,67.5l0,13.5c-24-9.8-41.1-24.4-51.4-43.7
					c-10.3,20.6-27.6,35.2-52,43.7l0-13.5c27.4-15,41.1-37.5,41.1-67.5L674.1,144.2z"/>
				<path fill="#FFFFFF" d="M940.2,286.6c-33.6-30.7-51.9-62.1-54.9-94.4c-15.8,27.7-45.6,48.5-89.5,62.5l3.2-14.4
					c48.4-22.7,77.4-56.4,86.8-101.3l3-13.8l21.3,4.7l-3,13.8c-10.3,44.7,1.8,87.5,36.2,128.4L940.2,286.6z"/>
			</g>
		</g>
		<g>
			<g opacity="0.5">
				<path fill="#B2B2B2" d="M474.9,395.3l-1.4-8.7L514,380l-3-18.5l15.7-2.5l3,18.5l40.5-6.6l1.4,8.7l-40.1,6.5
					c5.5,23.2,22.3,38.1,50.2,44.7l1.3,7.9c-26.3-4-44.7-13-55.3-26.8c-6,16.5-20.9,30.8-44.9,43l-1.3-7.9
					c24.9-15.7,36-35.1,33.5-58.3L474.9,395.3z"/>
				<path fill="#B2B2B2" d="M602.3,361.8l-0.3-8l43.7-1.4l0.3,8l-4.9,0.2l1.7,50.6c2-0.6,4.4-1,7-1.4l0.2,7.3
					c-0.6,0.3-1.2,0.6-1.7,0.8c-1.5,0.3-3.2,0.7-5.3,1.3l0.5,16.5l-11,0.4l-0.5-14.2c-6.7,1.2-16.3,2.5-28.6,3.6l-0.3-9.2l5.7-0.6
					l-1.8-54L602.3,361.8z M618.6,361.2l0.4,12.3l11.5-0.4l-0.4-12.3L618.6,361.2z M619.2,381.1l0.4,12.3l11.5-0.4l-0.4-12.3
					L619.2,381.1z M620.3,414.5c3.8-0.1,7.6-0.6,11.4-1.5l-0.4-12.3l-11.5,0.4L620.3,414.5z M648.4,367.5l-0.3-8l7.1-0.2
					c-1.6-2.8-2.9-6.4-3.9-11l12.4-0.4c1,4.8,2.5,8.5,4.3,11l11.5-0.4c1.7-3.4,2.7-7,3.2-10.8l12.8-0.4c-0.5,3.3-1.5,7-3.2,10.8
					l8.4-0.3l0.3,8l-20.3,0.7l0.7,19.9l23.4-0.8l0.3,8l-22.9,0.8c1.6,12.7,9.6,23.1,24,31.1l0.3,8c-14.9-5.7-25.2-13.2-30.8-22.8
					c-5.6,10.2-15.1,18.4-28.8,24.7l-0.3-7.7c13.5-9.4,20.7-20.4,21.4-32.9l-21.2,0.7l-0.3-8l21.6-0.7l-0.7-19.9L648.4,367.5z"/>
				<path fill="#B2B2B2" d="M728.9,431.1l0.6-7.3l8.8,0.8l2.1-24.4l82.7,7.1l-2.1,24.4l9.2,0.8l-0.6,7.3L728.9,431.1z M737.5,393.8
					l3.7-42.8l36.5,3.1l-2.6,30.6c-0.4,8.4-5.2,12.1-14.2,11.1L737.5,393.8z M749.9,387.9l7.9,0.7c3.5,0.3,5.3-1.2,5.3-4.6l0.6-6.5
					l-12.8-1.1L749.9,387.9z M753,409.3l-1.4,16.4l11,0.9l1.4-16.4L753,409.3z M752.4,359.3l-0.9,10.7l12.8,1.1l0.9-10.7
					L752.4,359.3z M775.8,411.3l-1.4,16.4l11,0.9l1.4-16.4L775.8,411.3z M775.3,401.6l0.6-6.5c4.7-2.9,7.2-8.1,7.5-15.5l2.2-25.6
					l45.7,3.9l-3,34.8c-0.4,8.2-5.3,11.7-14.6,10.7l-9.7-0.8l0.6-6.5l4.8,0.4c3.8,0.6,5.7-0.8,5.7-4.1l0.2-2.7l-20.7-1.8
					C792.6,394.6,786.2,399.2,775.3,401.6z M796.7,379.6c-0.1,0.8-0.1,1.7-0.2,2.7l19.3,1.7l0.6-7.3l-19.3-1.7L796.7,379.6z
					 M809.7,414.2l-11-0.9l-1.4,16.4l11,0.9L809.7,414.2z M798.2,362l-0.6,6.9l19.3,1.7l0.6-6.9L798.2,362z"/>
			</g>
			<g>
				<path fill="#5D7130" d="M474.8,387.6l-1.4-8.7l40.5-6.6l-3-18.5l15.7-2.5l3,18.5l40.5-6.6l1.4,8.7l-40.1,6.5
					c5.5,23.2,22.3,38.1,50.2,44.7l1.3,7.9c-26.3-4-44.7-13-55.3-26.8c-6,16.5-20.9,30.8-44.9,43l-1.3-7.9
					c24.9-15.7,36-35.1,33.5-58.3L474.8,387.6z"/>
				<path fill="#5D7130" d="M602.2,354.1l-0.3-8l43.7-1.4l0.3,8l-4.9,0.2l1.7,50.6c2-0.6,4.4-1,7-1.4l0.2,7.3
					c-0.6,0.3-1.2,0.6-1.7,0.8c-1.5,0.3-3.2,0.7-5.3,1.3l0.5,16.5l-11,0.4l-0.5-14.2c-6.7,1.2-16.3,2.5-28.6,3.6l-0.3-9.2l5.7-0.6
					l-1.8-54L602.2,354.1z M618.5,353.6l0.4,12.3l11.5-0.4l-0.4-12.3L618.5,353.6z M619.2,373.5l0.4,12.3l11.5-0.4l-0.4-12.3
					L619.2,373.5z M620.2,406.9c3.8-0.1,7.6-0.6,11.4-1.5l-0.4-12.3l-11.5,0.4L620.2,406.9z M648.3,359.9l-0.3-8l7.1-0.2
					c-1.6-2.8-2.9-6.4-3.9-11l12.3-0.4c1,4.8,2.5,8.5,4.3,11l11.5-0.4c1.7-3.4,2.7-7,3.2-10.8l12.8-0.4c-0.5,3.3-1.5,7-3.2,10.8
					l8.4-0.3l0.3,8l-20.3,0.7l0.7,19.9l23.4-0.8l0.3,8l-22.9,0.8c1.6,12.7,9.6,23.1,24,31.1l0.3,8c-14.9-5.7-25.2-13.2-30.8-22.8
					c-5.6,10.2-15.1,18.4-28.8,24.7l-0.3-7.7c13.5-9.4,20.7-20.4,21.4-32.9l-21.2,0.7l-0.3-8l21.6-0.7l-0.7-19.9L648.3,359.9z"/>
				<path fill="#5D7130" d="M728.9,423.5l0.6-7.3l8.8,0.8l2.1-24.4l82.7,7.1l-2.1,24.4l9.2,0.8l-0.6,7.3L728.9,423.5z M737.4,386.1
					l3.7-42.8l36.5,3.1l-2.6,30.6c-0.4,8.4-5.2,12.1-14.2,11.1L737.4,386.1z M749.8,380.3l7.9,0.7c3.5,0.3,5.3-1.2,5.3-4.6l0.6-6.5
					l-12.8-1.1L749.8,380.3z M752.9,401.7l-1.4,16.4l11,0.9l1.4-16.4L752.9,401.7z M752.3,351.6l-0.9,10.7l12.8,1.1l0.9-10.7
					L752.3,351.6z M775.7,403.7l-1.4,16.4l11,0.9l1.4-16.4L775.7,403.7z M775.2,394l0.6-6.5c4.7-2.9,7.2-8.1,7.5-15.5l2.2-25.6
					l45.7,3.9l-3,34.8c-0.4,8.2-5.3,11.7-14.6,10.7l-9.7-0.8l0.6-6.5l4.8,0.4c3.8,0.6,5.7-0.8,5.7-4.1l0.2-2.7l-20.7-1.8
					C792.5,387,786.1,391.6,775.2,394z M796.6,372c-0.1,0.8-0.1,1.7-0.2,2.7l19.3,1.7l0.6-7.3l-19.3-1.7L796.6,372z M809.6,406.6
					l-11-0.9l-1.4,16.4l11,0.9L809.6,406.6z M798.1,354.4l-0.6,6.9l19.3,1.7l0.6-6.9L798.1,354.4z"/>
			</g>
		</g>
		<g>
			<g>
				<path fill="#B2B2B2" d="M226.8,163.2l-25.6-61L263.5,76l5.1,12.1c2.8,6.1,0.4,10.8-7.1,14l-9.8,4.1c1.8,3.1,3.3,6.2,4.6,9.1
					l25-10.5l2.5,6L259.6,121c6.8,10.8,13.1,15,19.1,12.7c3.2-1.3,4.1-3.5,2.8-6.7l7.3-3.1c3,7.1,0.6,12.4-7.2,15.6
					c-11.3,5-21.8,0.3-31.5-13.9c-0.2-0.4-0.3-0.5-0.5-0.4l-22.8,9.6l6,14.3c4.7-3.5,8.7-6.8,11.9-9.8l2.8,6.6
					C241.4,151.8,234.6,157.6,226.8,163.2z M213.7,103.7l4.2,9.9l38-16c3-1.1,3.9-2.9,2.5-5.6l-2.5-6L213.7,103.7z M246,119.6
					c-1.7-2.8-3.2-5.8-4.6-9.1l-21.2,8.9l3.9,9.3L246,119.6z"/>
				<path fill="#B2B2B2" d="M298.5,90.5l-1.6-5.4c6.6-6.6,9.2-14.5,7.8-23.9l10.8-3.3c0,1.7,0.1,3.8,0.2,6.5
					c-0.3,0.7-0.3,1.2-0.2,1.6l12.2-3.7l-2.9-9.4l11.2-3.4l2.9,9.4l26.6-8.1l1.9,6.3l-26.6,8.1l5,16.6l24.3-7.4l1.9,6.3l-24.3,7.4
					l5.7,18.8l30.6-9.2l1.6,5.4l-75.2,22.8l-1.6-5.4l33.5-10.1l-5.7-18.8l-26.3,8l-1.9-6.3l26.3-8l-5-16.6l-15.8,4.8
					C311.6,79.5,306.5,85.2,298.5,90.5z"/>
				<path fill="#B2B2B2" d="M396.5,70.3l-1.2-5.8c10.1-8.9,15.2-19.5,15.3-31.7l11.8-2.4C421.4,46.8,412.8,60.1,396.5,70.3z
					 M464.6,88.4c-1.1-2.2-2.2-4.1-3.3-5.7c-15.9,5.7-30.7,9.8-44.4,12.4l-7.1,1.4l-1.5-7.6c7.7-10.3,12.9-21.5,15.6-33.6l12.4-2.5
					c-3.4,13.3-9.1,24.7-17.2,34.2c11.9-2.4,24.8-5.5,38.7-9.4c-2.7-4.1-5.8-8-9.4-11.8l9.4-1.9c6.8,6.9,12.5,14.4,17.2,22.4
					L464.6,88.4z M473.8,54.6c-19-2.8-32.2-11.7-39.4-26.7l11.8-2.4c4.8,11.2,13.7,18.9,26.4,23.2L473.8,54.6z"/>
				<path fill="#B2B2B2" d="M493.4,34.4l-0.7-6.5l76.4-8.3l0.7,6.5L493.4,34.4z M572.5,44.4c-1.4,0-3.2,0-5.5,0
					c-1.2-0.1-2.1-0.1-2.8,0l2.5,22.8l8.9-1l0.6,5.9L497,80.8l-0.6-5.9l8.9-1l-2.5-22.8c-0.7,0.1-1.6,0.3-2.7,0.6
					c-2.3,0.4-4.1,0.8-5.4,1.2l-0.5-5c9.4-2.8,15.9-7,19.7-12.6l12.3-1.3c-4.6,8.7-12.4,14.4-23.3,17.2l61.4-6.7
					c-11.3-0.4-20.1-4.3-26.5-11.8l11.9-1.3c5.1,4.6,12.5,7.3,22.3,8.1L572.5,44.4z M510.2,24.2c-2.8-2.9-4.8-6.3-5.9-10.2l11.3-1.2
					c1.1,4.1,2.9,7.5,5.3,10.2L510.2,24.2z M513.3,56.2l1.8,16.6L523,72l-1.8-16.6L513.3,56.2z M530.1,54.4l1.8,16.6l7.8-0.9
					l-1.8-16.6L530.1,54.4z M540.2,20.9c1.9-3.8,3-7.5,3.3-11.2l11.3-1.2c-0.5,3.9-1.7,7.6-3.6,11.2L540.2,20.9z M555,51.7l-7.8,0.9
					l1.8,16.6l7.8-0.9L555,51.7z"/>
			</g>
			<g>
				<g>
					<path fill="#FFFFFF" d="M226.7,156.7l-25.6-61l62.3-26.2l5.1,12.1c2.8,6.1,0.4,10.8-7.1,14l-9.8,4.1c1.8,3.1,3.3,6.2,4.6,9.1
						l25-10.5l2.5,6l-24.1,10.1c6.8,10.8,13.1,15,19.1,12.7c3.2-1.3,4.1-3.5,2.8-6.7l7.3-3.1c3,7.1,0.6,12.4-7.2,15.6
						c-11.3,5-21.8,0.3-31.5-13.9c-0.2-0.4-0.3-0.5-0.5-0.4l-22.8,9.6l6,14.3c4.7-3.5,8.7-6.8,11.9-9.8l2.8,6.6
						C241.4,145.2,234.5,151,226.7,156.7z M213.6,97.2l4.2,9.9l38-16c3-1.1,3.9-2.9,2.5-5.6l-2.5-6L213.6,97.2z M245.9,113
						c-1.7-2.8-3.2-5.8-4.6-9.1l-21.2,8.9l3.9,9.3L245.9,113z"/>
					<path fill="#FFFFFF" d="M298.4,83.9l-1.6-5.4c6.6-6.6,9.2-14.5,7.8-23.9l10.8-3.3c0,1.7,0.1,3.8,0.2,6.5
						c-0.3,0.7-0.3,1.2-0.2,1.6l12.2-3.7l-2.9-9.4l11.2-3.4l2.9,9.4l26.6-8.1l1.9,6.3l-26.6,8.1l5,16.6l24.3-7.4l1.9,6.3l-24.3,7.4
						l5.7,18.8l30.6-9.2l1.6,5.4l-75.2,22.8l-1.6-5.4l33.5-10.1l-5.7-18.8l-26.3,8l-1.9-6.3l26.3-8l-5-16.6l-15.8,4.8
						C311.5,72.9,306.4,78.6,298.4,83.9z"/>
					<path fill="#FFFFFF" d="M396.4,63.8l-1.2-5.8c10.1-8.9,15.2-19.5,15.3-31.7l11.8-2.4C421.4,40.2,412.7,53.5,396.4,63.8z
						 M464.5,81.9c-1.1-2.2-2.2-4.1-3.3-5.7c-15.9,5.7-30.7,9.8-44.4,12.4l-7.1,1.4l-1.5-7.6c7.7-10.3,12.9-21.5,15.6-33.6l12.4-2.5
						c-3.4,13.3-9.1,24.7-17.2,34.2c11.9-2.4,24.8-5.5,38.7-9.4c-2.7-4.1-5.8-8-9.4-11.8l9.4-1.9c6.8,6.9,12.5,14.4,17.2,22.4
						L464.5,81.9z M473.7,48.1c-19-2.8-32.2-11.7-39.4-26.7l11.8-2.4c4.8,11.2,13.7,18.9,26.4,23.2L473.7,48.1z"/>
					<path fill="#FFFFFF" d="M493.3,27.9l-0.7-6.5L569,13l0.7,6.5L493.3,27.9z M572.4,37.9c-1.4,0-3.2,0-5.5,0
						c-1.2-0.1-2.1-0.1-2.8,0l2.5,22.8l8.9-1l0.6,5.9l-79.2,8.6l-0.6-5.9l8.9-1l-2.5-22.8c-0.7,0.1-1.6,0.3-2.7,0.6
						c-2.3,0.4-4.1,0.8-5.4,1.2l-0.5-5c9.4-2.8,15.9-7,19.7-12.6l12.3-1.3c-4.6,8.7-12.4,14.4-23.3,17.2l61.4-6.7
						c-11.3-0.4-20.2-4.3-26.5-11.8l11.9-1.3c5.1,4.6,12.5,7.3,22.3,8.1L572.4,37.9z M510.1,17.6c-2.8-2.9-4.8-6.3-5.9-10.2
						l11.3-1.2c1.1,4.1,2.9,7.5,5.3,10.2L510.1,17.6z M513.3,49.7l1.8,16.6l7.8-0.9l-1.8-16.6L513.3,49.7z M530,47.9l1.8,16.6
						l7.8-0.9L537.8,47L530,47.9z M540.2,14.4c1.9-3.8,3-7.5,3.3-11.2L554.7,2c-0.5,3.9-1.7,7.6-3.6,11.2L540.2,14.4z M554.9,45.2
						L547,46l1.8,16.6l7.8-0.9L554.9,45.2z"/>
				</g>
			</g>
		</g>
	</g>
	<g>
		<path fill="none" d="M182.9,570.3c0,0,566.2-145.7,981.9-44.4"/>
		<path fill="#323333" d="M249.5,533.9c0.5-1.3,0.8-2.6,0.8-4c0.5,0,1.4,0.1,2.5,0c0.4,0,0.6,0.1,0.6,0.3c0,0.2-0.1,0.4-0.3,0.6
			c-0.3,0.2-0.5,0.5-0.8,0.9c-0.2,0.4-0.5,1-0.8,1.7l6.7-1.4c2.8-0.6,4.6-1.1,5.4-1.5c0,1,0.1,2.1,0.3,3.3l1.7,8.1
			c1.1-1.3,1.9-2.6,2.6-4.1c0.9,0.4,1.6,0.7,2.3,0.9c0.3,0.1,0.5,0.2,0.5,0.5c0,0.2-0.1,0.4-0.5,0.5c-0.4,0.1-0.9,0.5-1.6,1.2
			c-0.7,0.7-1.7,1.8-2.9,3.1l1.8,8.5c0.2,0.8,0.1,1.5-0.1,2.1c-0.2,0.5-0.9,1.1-1.9,1.5c-1,0.5-2.6,0.9-4.7,1.4
			c-0.2-1-0.8-1.7-1.9-2.3c1.6-0.2,2.8-0.4,3.6-0.6c0.8-0.2,1.4-0.4,1.8-0.6c0.4-0.2,0.6-0.5,0.6-0.8c0.1-0.3,0-0.8-0.1-1.4
			l-1.2-5.7c-4.3,4.1-10.8,8.6-19.5,13.3c-0.5-0.7-1.2-1.4-2.1-1.9c7.1-2.7,13.5-6.7,19.2-11.7l-13.2,2.8c-1.9,0.4-3.5,0.8-4.9,1.3
			l-0.4-1.9c1.4-0.1,2.8-0.3,4-0.6l-2-9.7c-0.3-1.3-0.6-2.3-0.9-3.2C245.5,534.6,247.3,534.4,249.5,533.9z M247.7,538.7l14.2-3
			l-0.6-2.7l-14.2,3L247.7,538.7z M262.2,536.9l-14.2,3l0.6,2.9l14.2-3L262.2,536.9z M263,541.1l-14.2,3l0.6,3l14.2-3L263,541.1z"/>
		<path fill="#323333" d="M295,529.8c2.6-0.5,5.3-1.1,8.2-1.7c2.9-0.6,4.7-1.1,5.5-1.3c-0.1,0.8-0.1,1.8,0,3.1
			c0.2,2.5,0.4,5.1,0.6,7.8c0.2,2.7,0.2,4.4,0.2,5.1c0,0.7-0.2,1.3-0.4,1.9c-0.2,0.5-0.6,1-1.1,1.4c-0.5,0.4-1.2,0.7-2,1
			c-0.8,0.3-2,0.6-3.5,1c-0.2-0.9-0.8-1.7-1.6-2.3c1.5-0.1,2.7-0.2,3.6-0.4c0.9-0.2,1.6-0.5,2-1c0.4-0.5,0.6-1.1,0.7-1.9
			c0-0.8,0-2.7-0.2-5.6c-0.2-3-0.4-5.5-0.6-7.6l-11.2,2.2c0.3,3.4-0.3,6.8-1.8,10.4s-3.7,6.9-6.7,9.9c-0.7-0.6-1.6-0.9-2.7-1
			c6.4-5.1,9.5-11.4,9.2-18.9l-5.8,1.1c-2.6,0.5-4.6,1-6,1.4l-0.4-2.2c2.1-0.2,6.1-0.9,12.1-2c-0.1-0.9-0.3-2.1-0.7-3.7
			s-0.7-3.1-1.1-4.5c0.8,0.1,1.9,0.1,3.4-0.1c0.4-0.1,0.6,0,0.7,0.2c0,0.2-0.1,0.4-0.4,0.7C294.5,523.1,294.5,525.5,295,529.8z
			 M289.5,528.1l-1.8,1.4c-2-2-3.7-3.4-5.3-4.1l1.4-1.5C285.7,524.9,287.6,526.3,289.5,528.1z M304.5,538.1l-1.3,1.7
			c-2-1.5-4-2.7-6.2-3.5l1.1-1.6C300.3,535.5,302.4,536.7,304.5,538.1z"/>
		<path fill="#323333" d="M323.4,520.2c-2.4,0.5-4.2,0.9-5.4,1.3l-0.4-2c1.7-0.1,3.9-0.5,6.7-1c2.7-0.5,4.9-1,6.5-1.4l0.4,2
			c-1.4,0.1-3.2,0.3-5.6,0.7l1.3,6.9c2.1-0.4,3.8-0.8,5.2-1.2l0.4,2c-1.3,0.1-3.1,0.3-5.3,0.7l1.3,7.1c2.1-1.1,3.7-2.1,4.9-2.8
			c0,0.3,0,0.5,0.1,0.9c0.1,0.3,0.2,0.7,0.5,1.1c-3.8,1.9-7.7,4-11.6,6.3c-0.3-0.8-0.8-1.5-1.5-2c1.4-0.5,3.3-1.3,5.5-2.4l-1.4-7.7
			c-1.9,0.3-3.6,0.7-5,1.2l-0.4-2c1.6-0.1,3.3-0.3,5.1-0.7L323.4,520.2z M340.1,517.5c-3.6,0.6-6.2,1.2-7.9,1.7l-0.4-2.2
			c1.5-0.1,4.5-0.6,8.9-1.4c4.5-0.8,7.6-1.5,9.2-1.9l0.4,2.2c-1.8,0.2-4.5,0.6-8.1,1.2c-0.1,1.5-0.2,3.1-0.4,4.9l2.7,14.6
			c0.3,1.8,0.7,3.4,1.2,4.8l-2.8,0.5c0-1.4-0.2-3.1-0.6-4.9l-1.7-9.5c-1.1,3.4-3.1,7-5.9,10.6c-0.8-0.5-1.6-0.9-2.6-1
			C337.4,532,340,525.5,340.1,517.5z M354.3,531.2l-2,1.6c-2.5-3.2-5.4-5.8-8.7-8l1.7-1.6C349,526.1,352,528.7,354.3,531.2z"/>
		<path fill="#323333" d="M364.1,518.3c-1,1.8-2,3.5-3.2,5c-0.6-0.6-1.3-1.1-2.1-1.3c1.5-1.4,2.9-3.5,4.2-6.3
			c1.4-2.8,2.2-5.2,2.4-7.3c0.9,0.4,1.7,0.6,2.5,0.6c0.5,0,0.8,0.1,0.8,0.3c0,0.1-0.1,0.3-0.5,0.5c-0.4,0.2-1.2,1.9-2.6,5.1
			l3.7,21.9l-2.5,0.4c-0.1-2.3-0.3-4.5-0.7-6.5L364.1,518.3z M382.2,521.1c5.1-0.9,8.6-1.6,10.3-2.1l0.3,2c-1.7,0.1-4.4,0.5-8.2,1.2
			c3.1,3.6,6.4,5.9,10,7c-0.7,0.6-1.2,1.3-1.6,2.1c-4.1-1.8-7.5-4.7-10-8.8l-0.6,0.1l1.4,8.5c0.2,1.1,0.4,2.1,0.8,3.2l-2.6,0.4
			c0-1.3-0.1-2.4-0.3-3.3l-1.4-8.5l-0.7,0.1c-1,4.2-3.4,8.3-7.4,12.2c-0.7-0.6-1.4-0.9-2.3-1.1c3.8-2.7,6.4-6.3,7.9-10.9
			c-2.9,0.5-5.5,1-7.9,1.6l-0.3-2c1.9-0.1,5.4-0.6,10.5-1.5l-0.7-4.1c-2.5,0.4-5,0.9-7.5,1.4c-0.1-1.3-0.3-2.9-0.7-4.9
			c-0.3-2-0.6-3.5-0.9-4.4c2.3-0.2,5.3-0.6,8.9-1.2c3.6-0.6,6.4-1.2,8.6-1.7c0,0.9,0.2,2.4,0.6,4.6c0.4,2.2,0.7,3.8,1,4.7
			c-2.1,0.2-4.7,0.6-7.8,1.2L382.2,521.1z M386.7,514.6l-1-6l-12.8,2.2l1,6L386.7,514.6z"/>
		<path fill="#323333" d="M408.3,508.2l-1.9,1.7c-1.6-1.7-3.6-3.3-6.1-4.7l1.5-1.5C404.2,505,406.4,506.5,408.3,508.2z M409.4,524.4
			c0.5,0.1,1.3,0.4,2.5,0.8c1.2,0.4,2.6,0.7,4.2,0.7c1.6,0,3.7-0.2,6.4-0.6c2.7-0.4,6.8-1.3,12.4-2.6c-0.5,0.7-0.7,1.6-0.7,2.7
			c-4.4,0.8-7.8,1.4-10.3,1.8c-2.5,0.4-4.5,0.6-6,0.7c-1.5,0.1-2.8,0-3.8-0.1c-1-0.2-2.1-0.5-3.2-1c-1-0.4-1.8-0.6-2.3-0.5
			c-0.5,0.1-1.1,0.4-1.7,1.1c-0.6,0.6-1.5,1.6-2.5,2.9c-0.6-0.7-1.3-1.1-2-1.3c2.4-2.6,4.1-4,4.9-4.2l-1.5-9.7
			c-2.3,0.4-3.9,0.7-5,0.9l-0.3-1.9c1.2,0,2.5-0.2,3.9-0.4c1.4-0.2,2.6-0.5,3.6-0.8c0,1,0.1,2.2,0.3,3.8L409.4,524.4z M420.9,508
			c0.1,1.5,0.1,3,0,4.3c4.3,2.5,8.1,4.9,11.5,7.3l-2,1.9c-2.8-2.7-6.1-5.1-9.8-7.3c-0.7,3.5-3,7-6.7,10.3c-0.7-0.6-1.6-1-2.5-1.3
			c3-2.1,5-4.3,6.1-6.5c1.1-2.2,1.5-5,1.2-8.4c-3.9,0.6-6.9,1.2-9,1.7l-0.3-2.1c2.3-0.2,5.4-0.6,9.2-1.1c-0.1-1-0.3-2.1-0.5-3.4
			c-0.2-1.3-0.4-2.4-0.7-3.3c0.4,0,0.8,0.1,1.2,0c0.4,0,0.7,0,1-0.1l0.8-0.2c0.3,0,0.5,0,0.5,0.1c0,0.1-0.1,0.3-0.3,0.5
			c-0.2,0.2-0.3,0.7-0.3,1.5c0,0.9,0.2,2.3,0.4,4.5c4-0.6,7.1-1.2,9.6-1.8l0.3,2.1C428.2,507,425,507.4,420.9,508z"/>
		<path fill="#323333" d="M457,506.9c-0.4,2.9-1.7,5.9-3.9,9c-2.2,3.1-5.1,6-8.7,8.6c-0.5-0.7-1.2-1.2-2.2-1.5
			c2.8-1.7,5.2-3.6,7.1-5.6c1.9-2.1,3.4-4.2,4.3-6.5c0.9-2.2,1.4-4.5,1.3-6.7c-0.1-2.2-0.2-3.9-0.3-5c-0.2-1.1-0.4-2.4-0.9-3.9
			c0.9,0,1.9,0,3.1-0.2c0.3,0,0.5,0,0.5,0.2c0,0.1-0.1,0.3-0.2,0.5c-0.2,0.2-0.2,0.7-0.2,1.5c0.1,1.5,0.2,3.5,0.3,6.2
			c1.9,3.5,4.7,6.6,8.4,9.4c3.7,2.8,7,4.4,9.8,4.9c-0.8,0.5-1.4,1.3-1.9,2.3c-2.8-1.1-5.8-2.9-9-5.4
			C461.3,512.3,458.8,509.7,457,506.9z"/>
		<path fill="#323333" d="M485,500.1c-0.9,1.6-1.7,2.8-2.3,3.6c-0.7-0.5-1.4-0.8-2.3-0.8c1.7-1.8,3.2-3.8,4.3-6.3
			c1.2-2.4,1.8-4.7,1.9-6.8c0.9,0.4,1.6,0.5,2.3,0.5c0.7,0,1,0.1,1.1,0.4c0,0.2-0.1,0.4-0.4,0.5c-0.3,0.1-0.6,0.5-0.9,1
			c-0.3,0.5-0.6,1.1-0.8,1.8c-0.2,0.7-0.6,1.6-1.1,2.7l2.8,21.5l-2.6,0.3c0-2.3-0.2-4.5-0.4-6.6L485,500.1z M496,495.4
			c-0.7,2.2-1.9,4.4-3.5,6.7c-0.8-0.4-1.7-0.5-2.7-0.4c1.5-1.6,2.7-3.3,3.5-5.3c0.8-1.9,1.5-4.4,1.9-7.2c0.9,0.2,1.7,0.3,2.5,0.3
			c0.4,0,0.6,0.1,0.6,0.4c0,0.2-0.1,0.4-0.4,0.5c-0.3,0.2-0.8,1.2-1.4,3.2c7.3-0.9,12.4-1.6,15.3-2.3l-2,7l-2.1-0.3l1.3-4.3
			L496,495.4z M492.9,512.3c-0.7-0.5-1.6-0.6-2.6-0.6c3.1-2.8,5-5.7,5.6-8.5c0.7,0.4,1.4,0.6,2.2,0.5c0.4,0,0.6,0.1,0.6,0.4
			c0,0.3-0.1,0.4-0.4,0.5c-0.3,0.1-0.7,0.6-1.3,1.7C496.1,508.1,494.7,510.1,492.9,512.3z M499.9,498.1c1,0,1.9,0,2.5-0.1s1-0.1,1,0
			c0,0.1-0.1,0.3-0.4,0.5s-0.4,0.6-0.3,1.1l1.8,13.7c0.1,0.6,0,1.2-0.3,1.6c-0.3,0.4-0.9,0.7-1.8,1.1c-0.9,0.3-2.3,0.6-4.2,0.8
			c-0.1-0.9-0.6-1.6-1.5-2.4c1.5,0.1,2.7,0.1,3.4,0c0.8-0.1,1.3-0.3,1.6-0.5c0.3-0.3,0.4-0.7,0.4-1.4l-1.1-8.8
			C500.6,500.8,500.3,498.9,499.9,498.1z M514.7,508.9l-1.8,1.4c-1.5-2.1-3.9-4.6-7.4-7.5l1.5-1.2
			C509.7,503.6,512.2,506,514.7,508.9z"/>
		<path fill="#323333" d="M532,490.1c-3.4,0.4-6.9,0.9-10.7,1.5l-0.2-2c3.1-0.2,6.9-0.6,11.5-1.1c0.4-1.2,0.8-2.8,1.1-4.9
			c0.7,0.2,1.5,0.4,2.5,0.3c0.4,0,0.6,0.1,0.7,0.3c0,0.2-0.1,0.4-0.4,0.7c-0.3,0.2-0.8,1.3-1.6,3.3c7.9-0.9,13.6-1.7,17.1-2.2l0.2,2
			c-3.1,0.2-9.1,0.8-18,1.8c-0.7,1.7-1.3,3.2-2,4.4l7.4-0.9c3.8-0.4,6.9-0.8,9.3-1.2c-0.1,1.3,0,2.5,0.1,3.6l1.4,12.2
			c0.1,0.9,0.1,1.5-0.1,1.9c-0.2,0.4-0.6,0.8-1.4,1c-0.7,0.3-1.9,0.6-3.6,0.8c-0.1-0.5-0.2-0.9-0.3-1.2c-0.1-0.3-0.4-0.6-0.9-1
			c1.1,0,1.9,0,2.5-0.1c0.6-0.1,1-0.2,1.3-0.5c0.3-0.3,0.3-0.7,0.3-1.4l-0.4-3.3l-15.1,1.7l0.9,7.4l-2.5,0.3c0-1.4-0.1-2.9-0.3-4.5
			l-1.3-11c-1.5,1.9-3.5,3.9-6.1,6.1c-0.3-0.7-1-1.2-2.1-1.5c2.8-2,5.1-4,6.7-6C529.7,494.9,531,492.6,532,490.1z M532,499.5
			l15.1-1.7l-0.4-3.7l-15.1,1.7L532,499.5z M547.2,499.2l-15.1,1.7l0.4,3.5l15.1-1.7L547.2,499.2z"/>
		<path fill="#323333" d="M579,486.1c4.5-0.5,7.8-0.9,9.9-1.4l0.2,2c-2.6,0.1-5.9,0.3-10,0.7l0.2,2.4c6.2-0.7,11-1.3,14.5-1.9
			l0.2,2.1c-4.2,0.1-9.4,0.5-15.8,1.2c-6.4,0.6-11.6,1.3-15.7,2l-0.2-2.1c4.1-0.1,9-0.5,14.7-1.1l-0.2-2.4c-4.6,0.5-7.9,0.9-10,1.4
			l-0.2-2c2.1,0,5.5-0.2,10.1-0.7l-0.2-2.2c-5.2,0.5-9.6,1.1-13.3,1.8l-0.2-2.1c3.8-0.1,8.2-0.4,13.4-1c-0.2-1.7-0.4-2.8-0.6-3.4
			c0.8,0.2,1.5,0.2,2.1,0.2l1-0.2c0.3,0,0.4,0,0.4,0.2c0,0.2-0.1,0.4-0.4,0.6c-0.3,0.2-0.3,0.8-0.3,1.7l0.1,0.7
			c5.9-0.6,10.4-1.2,13.6-1.8l0.2,2.1c-3.3,0.1-7.8,0.4-13.7,1L579,486.1z M577.5,496.3c0.8,0.1,1.6,0.2,2.5,0.1
			c0.4,0,0.7,0,0.7,0.3c0,0.1-0.1,0.3-0.2,0.5c-0.2,0.2-0.3,0.4-0.4,0.7c-0.1,0.3-0.2,0.9-0.2,1.8c0,0.9-0.2,1.7-0.5,2.3
			c-0.3,0.7-0.7,1.4-1.3,2.3c-0.6,0.8-1.4,1.6-2.4,2.2c-1,0.6-2.3,1.2-4,1.8s-3.5,1.1-5.7,1.6c-0.1-0.6-0.3-1.1-0.6-1.4
			c-0.3-0.3-0.8-0.5-1.3-0.7c3.5-0.3,6.5-1,9-2.2c2.5-1.2,3.9-2.7,4.2-4.5C577.7,499.2,577.7,497.6,577.5,496.3z M589.2,494.7
			l0.2,2.2c0.1,1.4,0.4,2.8,0.7,4l-2.7,0.3l-0.7-7.1l-16.3,1.7l0.8,7.5l-2.7,0.3c0.1-1.3,0.1-2.6-0.1-3.8l-0.3-2.8
			c-0.1-1.2-0.3-2.1-0.4-2.6c1,0,4.6-0.3,10.8-0.9c6.2-0.6,9.7-1.1,10.7-1.3C589.1,493,589.1,493.9,589.2,494.7z M594.3,505.1
			l-1.5,1.9c-2.8-1.4-6.7-2.7-11.6-4l0.9-1.8C586.4,502.3,590.5,503.6,594.3,505.1z"/>
		<path fill="#323333" d="M607.8,487.2c-1.3,1.9-2.4,3.5-3.5,4.8c-0.6-0.7-1.4-1-2.4-1.2c1.6-1.2,3.4-3.4,5.2-6.6
			c1.8-3.2,2.9-5.8,3.3-8c0.8,0.4,1.6,0.6,2.2,0.7s0.9,0.2,1,0.3c0,0.2-0.1,0.3-0.4,0.5c-0.3,0.1-0.6,0.5-1,1.2
			c-0.4,0.7-1.2,2.3-2.4,4.8l1.8,21.1l-2.7,0.2c0.1-2.2,0-4.4-0.2-6.5L607.8,487.2z M625.6,488.5c4.3-0.4,7.5-0.8,9.8-1.2l0.2,2.2
			c-2.3,0-5.6,0.2-9.8,0.5l0.8,9.7c4.3-0.4,7.3-0.8,9.1-1.1l0.2,2.2c-1.9,0-5.4,0.1-10.3,0.6c-4.9,0.4-8.3,0.8-10,1.2l-0.2-2.2
			c1.7,0,4.7-0.1,8.9-0.5l-0.8-9.7c-4.3,0.4-7.5,0.8-9.8,1.2l-0.2-2.2c2.2,0,5.5-0.2,9.8-0.5l-0.7-8.2l-7.2,1.2c0-0.8-0.4-1.4-1-1.9
			c0.8-0.1,1.7-0.1,2.5-0.2c5.7-0.5,10.3-1.5,13.7-3c0.4,0.6,0.8,1.1,1.2,1.4c0.4,0.3,0.6,0.5,0.6,0.7c0,0.2-0.1,0.3-0.3,0.3
			c-0.2,0-0.4,0-0.6,0s-0.5,0-0.9,0c-0.4,0-1.1,0.2-1.9,0.4c-0.8,0.2-2.1,0.5-3.8,0.8L625.6,488.5z"/>
		<path fill="#323333" d="M657.3,494l-4.8,4.4c-1.1,1-2,1.9-2.4,2.6c-0.5-0.6-1.2-1-1.9-1.3c0.8-0.8,1.1-2.1,1-3.8l-0.8-11.7
			c-2.2,0.2-3.8,0.4-4.8,0.7l-0.1-2c0.8,0,2,0,3.7-0.1s3-0.3,4-0.4c-0.3,0.9-0.5,2.2-0.3,3.8l0.8,10.6c1.6-1.1,3.1-2.5,4.5-4.2
			C656.1,493.1,656.6,493.6,657.3,494z M652.4,478.4l-1.8,1.4c-1.7-1.8-3.5-3.4-5.4-4.7l1.5-1.3
			C648.9,475.3,650.8,476.8,652.4,478.4z M664.7,482c4.2-0.3,7.1-0.6,8.7-0.9l0.1,2c-1.3-0.1-4.3,0.1-8.8,0.4l1,13.8
			c5.3-0.4,8.9-0.7,10.6-1l0.1,2c-1.9,0-5.4,0.1-10.7,0.5s-9,0.7-11.3,1.1l-0.1-2c2.4,0,5.4-0.1,8.9-0.4l-1.5-20.6
			c-0.1-1.8-0.3-3.1-0.5-3.9c1.9,0.1,3,0.1,3.3,0.1c0.3,0,0.4,0.1,0.4,0.2c0,0.1-0.1,0.3-0.5,0.5c-0.3,0.2-0.5,0.7-0.4,1.5
			L664.7,482z"/>
		<path fill="#323333" d="M693,482.2c-1.6,2.3-4.1,4.2-7.3,5.8c-0.5-0.7-1-1.2-1.8-1.6c3-0.9,5.3-2.3,7.1-4.2
			c-1.9,0.1-3.6,0.2-4.9,0.4c0.1-0.7,0.1-1.6,0.1-2.7s-0.2-2-0.4-2.8c1.9,0,4.2-0.1,6.9-0.2l-0.1-2.2c-4,0.2-6.9,0.5-8.7,0.7
			l-0.1-1.9c1.8,0.1,4.6,0,8.7-0.2c-0.1-1.5-0.2-2.5-0.4-3c0.6,0.1,1.1,0.1,1.5,0l1.1-0.1c0.3,0,0.5,0,0.5,0.1
			c0,0.1-0.1,0.3-0.4,0.4c-0.3,0.2-0.4,0.9-0.3,2.3c4.2-0.2,7.1-0.5,8.5-0.7l0.1,1.8c-1.8,0-4.6,0-8.5,0.2l0.1,2.2
			c2.5-0.1,4.8-0.3,6.6-0.5c0,1,0,1.9,0,2.8c0,0.9,0.1,1.8,0.3,2.7c-1.3,0-3.6,0-6.7,0.2c0.1,2.3,0.3,4.1,0.6,5.3l-2.6,0.1
			C693.2,486.3,693.2,484.5,693,482.2z M702.4,491.7c5.2-0.3,8.3-0.6,9.5-0.8l0.1,2c-0.7-0.1-3.8,0-9.5,0.3l0.2,2.8
			c5.9-0.3,10.8-0.7,14.7-1.1l0.1,2.1c-3.4,0-8.9,0.2-16.7,0.6c-7.8,0.4-13.1,0.8-15.9,1.2l-0.1-2.1c2.4,0,4.9,0,7.6-0.1
			c-0.2-3.1-0.4-4.9-0.6-5.4c0.8,0.1,1.8,0.1,2.8,0.1c0.3,0,0.4,0,0.4,0.1c0,0.1-0.1,0.2-0.3,0.3c-0.2,0.1-0.3,0.2-0.4,0.4
			c-0.1,0.2-0.1,0.3-0.1,0.5l0.2,3.9l6.2-0.3l-0.4-6.8c-5.1,0.3-9.3,0.6-12.5,0.9l-0.1-1.9c3.8-0.1,8.3-0.2,13.5-0.5
			c5.2-0.3,9.6-0.6,13.2-1l0.1,1.9c-3.2,0-7.2,0.1-12.1,0.4L702.4,491.7z M693,480.9l-0.1-2.6l-4.7,0.3l0.1,2.6L693,480.9z
			 M694.8,478.2l0.1,2.6l4.6-0.3l-0.1-2.6L694.8,478.2z M701.5,484.4l-1.2,1.6c-1.1-0.8-2.5-1.5-4.4-2.1l1-1.4
			C698.8,483.1,700.3,483.7,701.5,484.4z M709.2,483.8c-1.4,1.3-3.3,2.4-5.7,3.4c-0.4-0.6-1-1.1-1.8-1.5c2.8-0.9,4.8-1.9,6.1-3
			c-1.3-1.1-2.4-2.4-3.4-3.9l1.7-0.9c0.7,1.4,1.7,2.6,3,3.5c1.2-1.5,1.8-3.7,2-6.6l-5.4,0.3c-0.6,1.3-1.2,2.5-1.9,3.4
			c-0.5-0.5-1.2-0.7-2-0.9c2.2-2.4,3.4-5.1,3.4-8.4c0.9,0.3,1.7,0.4,2.4,0.5c0.3,0,0.4,0.1,0.5,0.2c0,0.1-0.1,0.3-0.3,0.4
			c-0.2,0.2-0.4,0.4-0.5,0.6c-0.1,0.3-0.3,0.7-0.5,1.3c-0.2,0.6-0.3,1-0.4,1.2l5.4-0.3c1.9-0.1,3.3-0.2,4.1-0.4l0.1,1.8
			c-0.9,0-1.9,0-2.9,0c-0.2,3.4-1,5.9-2.4,7.7c1.8,1.1,4,1.7,6.6,2c-0.6,0.5-1.1,1.2-1.3,2.1C713.2,486,711.1,485.1,709.2,483.8z"/>
		<path fill="#323333" d="M740.9,471.3c-2.8,4.2-7.5,8.3-14.1,12.1c-0.5-0.5-1.1-1.1-2-1.6c4-1.7,7.3-3.8,10-6.3s4.5-5.1,5.4-7.8
			c1.3,0.5,2.1,0.7,2.4,0.9c0.3,0.1,0.4,0.3,0.4,0.4c0,0.2-0.1,0.3-0.4,0.4c-0.3,0.1-0.6,0.3-0.9,0.7c3,2.7,5.6,4.8,7.7,6.2
			s4.9,2.6,8.3,3.6c-0.6,0.6-1.1,1.2-1.6,2c-3.1-1.3-5.8-2.8-8.2-4.4S743.3,473.7,740.9,471.3z M739.6,477.6
			c0.9,0.2,1.9,0.2,3.1,0.2c0.4,0,0.6,0,0.6,0.2c0,0.1-0.1,0.3-0.4,0.4c-0.2,0.1-0.4,0.4-0.5,0.7c-0.1,0.4-0.1,0.9,0,1.8l0.4,9.9
			c0.1,1.9,0.3,3.9,0.6,6l-3,0.1c0.1-2.1,0.2-4,0.1-6l-0.3-8.3C740,480.2,739.8,478.5,739.6,477.6z"/>
		<path fill="#323333" d="M781,470.9c-5.3,0.1-9.3,0.3-11.9,0.5l0-2.1c2.1,0.1,6.4,0.1,13,0c6.6-0.1,10.9-0.3,12.8-0.5l0,2.1
			c-1.9-0.1-5.8-0.1-11.8,0c0.2,3.2,0,6-0.4,8.5c7.8-0.2,12.7-0.3,14.7-0.6l0,2.1c-1.9-0.1-6.5-0.1-13.8,0c1.3,2.6,3.3,5,5.9,7.2
			c2.6,2.2,5.5,3.7,8.6,4.7c-1,0.4-1.7,1.1-2.2,2.1c-7.4-4.2-12-8.6-13.8-13.2c-0.8,2.9-2.3,5.4-4.4,7.6c-2.2,2.2-5.3,4.4-9.4,6.6
			c-0.4-0.7-1.1-1.3-2.2-1.8c4-1.6,7.1-3.5,9.3-5.6c2.2-2.1,3.8-4.6,4.6-7.5c-6.4,0.1-10.8,0.3-13.3,0.5l0-2.1
			c1.9,0.1,6.5,0.1,13.8,0C781.1,477,781.2,474.1,781,470.9z"/>
		<path fill="#323333" d="M824.1,483.3l0,8.5c6.9,0,11.8-0.1,14.6-0.3l0,2.1c-2.9-0.2-7.6-0.2-14.3-0.2c-6.6,0-12.3,0.1-17,0.3
			l0-2.1c3.6,0.2,8.4,0.2,14.3,0.2l0-8.5c-4.6,0-7.8,0.1-9.7,0.3l0-2.1c3.1,0.2,6.9,0.2,11.4,0.2c4.5,0,8-0.1,10.4-0.3l0,2.1
			C831.7,483.4,828.5,483.3,824.1,483.3z M818,473.6c0.5,0.6,1.1,1.1,1.8,1.5c0.2,0.1,0.3,0.2,0.3,0.3s-0.2,0.2-0.5,0.3
			c-0.6,0.2-1.2,0.4-1.6,0.8c-2.7,1.9-5.5,3.7-8.4,5.4c-0.4-0.8-1-1.3-1.7-1.6c1.9-0.7,3.7-1.6,5.6-2.8
			C815.3,476.2,816.8,475,818,473.6z M822.1,470.1c-0.9-1.4-1.9-2.6-2.8-3.4l2-1.1c1.1,1.5,2.1,2.9,3,4.5c6.4,0,10.7-0.1,12.9-0.3
			c-0.2,0.8-0.3,1.9-0.3,3.1c0,1.2,0.1,2.2,0.2,3l-2.4,0l0-4.3l-23.6,0l0,4.7l-2.4,0c0.1-0.9,0.2-2,0.2-3.2c0-1.2-0.1-2.3-0.2-3.3
			C810.9,470,815.4,470.1,822.1,470.1z M837.2,479.8l-1.6,1.5c-0.9-0.8-2.3-1.8-4.4-3c-2-1.2-3.8-2.2-5.4-2.9l1.3-1.5
			C831.2,476,834.5,478,837.2,479.8z"/>
		<path fill="#323333" d="M863.5,470.4l-4-0.1c-4.2-0.1-7.6-0.1-10.2,0.1l0-2.1c2.8,0.2,6.2,0.4,10.2,0.4l9.4,0.2
			c4,0.1,7.4,0.1,10.2-0.1l0,2.1c-2.6-0.2-6-0.4-10.2-0.5l-3.1-0.1l-0.1,2.9c4.8,0.1,8.3,0,10.5-0.1c-0.2,0.7-0.2,1.5-0.3,2.4
			l-0.1,6.8c0,1,0,1.8,0.2,2.4c-2.1-0.2-5.8-0.4-10.9-0.5c-0.3,2.4-0.8,4.1-1.5,5c3.6,1.3,6.5,2.1,8.8,2.5c2.3,0.4,4.8,0.6,7.5,0.7
			c-0.7,0.6-1.1,1.4-1.2,2.3c-1.5-0.2-3.2-0.4-4.9-0.7s-3.2-0.6-4.4-0.9c-1.2-0.3-3.6-1.1-7.1-2.4c-1.3,1.1-2.9,2-4.9,2.6
			c-2,0.6-4.9,1.2-8.5,1.6c-0.3-1-0.8-1.7-1.6-2.3c5.9,0,10.2-0.9,12.8-2.8c-2.2-0.9-4.4-2.2-6.6-3.7l1.2-1.3
			c2.1,1.5,4.4,2.8,6.9,3.8c0.6-0.7,1.1-2.2,1.4-4.3c-4.9-0.1-8.5,0-10.8,0.1c0.2-0.9,0.3-1.7,0.3-2.4l0.1-6.8
			c0-0.5-0.1-1.3-0.2-2.4c2.2,0.2,5.9,0.4,11.2,0.5C863.6,472.2,863.6,471.2,863.5,470.4z M863.1,482.9c0.1-1.2,0.2-2.4,0.2-3.4
			l-8.7-0.2l-0.1,3.4L863.1,482.9z M863.4,478.1l0.1-3.3l-8.8-0.2l-0.1,3.3L863.4,478.1z M865.5,479.5c0,1-0.1,2.2-0.2,3.4l8.3,0.2
			l0.1-3.4L865.5,479.5z M865.7,474.8c0,1.6-0.1,2.7-0.1,3.3l8.1,0.2l0.1-3.3L865.7,474.8z"/>
		<path fill="#323333" d="M892.4,493.1l0.2-4.9c0-0.6,0-1.3,0-2.3c2.8,0.2,6.8,0.4,12,0.6s9.2,0.3,12,0.4c-0.1,0.9-0.2,1.7-0.2,2.3
			l-0.2,4.9c1.4,0.1,2.8,0,4.3-0.1l-0.1,2.1c-3.5-0.4-8.9-0.7-16.2-1c-7.3-0.3-12.7-0.4-16.2-0.4l0.1-2.1
			C889.3,492.8,890.8,493,892.4,493.1z M900,472.2l-0.1,2.5l-2.1-0.1l0.1-2.5c-3.6-0.1-6.4-0.2-8.5-0.1l0.1-2.2
			c2.1,0.3,4.9,0.5,8.5,0.6c0-1.1,0-2.1,0-2.9c0.9,0.2,1.7,0.3,2.6,0.3c0.2,0,0.3,0.1,0.3,0.2s-0.1,0.2-0.3,0.3
			c-0.2,0.1-0.3,0.3-0.4,0.6c-0.1,0.3-0.1,0.8-0.2,1.6l9.1,0.4c0-1.2,0-2.2-0.1-2.9c0.9,0.2,1.8,0.4,2.7,0.4c0.2,0,0.3,0.1,0.3,0.1
			c0,0.1-0.1,0.2-0.3,0.4c-0.2,0.1-0.4,0.9-0.4,2.1c3.9,0.2,6.9,0.2,8.9,0.1l-0.1,2.2c-2-0.3-5-0.5-8.9-0.7l-0.1,2.6l-2.1-0.1
			l0.1-2.6L900,472.2z M893.1,475.8c0.7,0.1,1.2,0.2,1.6,0.2l0.9,0c0.3,0,0.5,0.1,0.5,0.2c0,0.1-0.1,0.3-0.3,0.4
			c-0.2,0.1-0.3,0.4-0.4,0.9l-0.1,3.3c0,1,0,2.1,0,3.3l-2.4-0.1c0.2-1.1,0.3-2.2,0.4-3.3l0.1-1.4
			C893.3,477.8,893.2,476.6,893.1,475.8z M900.1,487.8l-5.3-0.2l-0.2,5.6l5.3,0.2L900.1,487.8z M899.7,475c0.7,0.1,1.2,0.1,1.5,0.2
			l0.9,0c0.3,0,0.5,0.1,0.5,0.2c0,0.1-0.1,0.3-0.3,0.4c-0.2,0.1-0.3,0.4-0.4,0.9l-0.2,4.9c0,1.1,0,2.4,0.1,3.9l-2.4-0.1
			c0.2-1.5,0.3-2.8,0.4-3.9l0.1-2.9C899.9,477,899.8,475.9,899.7,475z M906.9,488.1l-4.7-0.2l-0.2,5.6l4.7,0.2L906.9,488.1z
			 M907.2,479.8c-0.7,0.9-1.8,2.1-3.3,3.6c-0.5-0.6-1.1-1-1.9-1.2c2.8-2,4.7-4.4,5.7-7.2c0.8,0.5,1.5,0.9,2.3,1
			c0.3,0.1,0.4,0.2,0.4,0.3c0,0.1-0.1,0.2-0.4,0.2c-0.2,0.1-0.5,0.2-0.7,0.4c-0.2,0.2-0.6,0.7-1.1,1.4l5.2,0.2
			c3.1,0.1,4.9,0.1,5.6-0.1l-0.1,2.1c-0.7-0.2-2.5-0.4-5.6-0.5L907.2,479.8z M913.9,494l0.2-5.6l-5.1-0.2l-0.2,5.6L913.9,494z
			 M915.8,484.9l-1.8,1.3c-0.9-1.4-2.4-2.8-4.7-4.4l1.4-1.1C912.3,481.7,914,483.1,915.8,484.9z"/>
		<path fill="#323333" d="M946.3,487.2l-0.6,8.5c6.9,0.4,11.8,0.7,14.6,0.7l-0.1,2.1c-2.9-0.4-7.6-0.8-14.2-1.2s-12.2-0.7-16.9-0.8
			l0.1-2.1c3.6,0.4,8.4,0.8,14.3,1.2l0.5-8.5c-4.6-0.3-7.8-0.4-9.7-0.4l0.1-2.1c3.1,0.4,6.9,0.7,11.4,1c4.5,0.3,8,0.4,10.4,0.4
			l-0.1,2.1C954,487.7,950.7,487.4,946.3,487.2z M940.9,477.1c0.4,0.6,1,1.1,1.7,1.6c0.2,0.1,0.3,0.3,0.3,0.4c0,0.1-0.2,0.2-0.6,0.3
			c-0.6,0.1-1.2,0.4-1.7,0.7c-2.8,1.8-5.7,3.4-8.7,4.8c-0.3-0.8-0.9-1.4-1.6-1.8c1.9-0.6,3.8-1.4,5.8-2.5
			C938.1,479.5,939.7,478.3,940.9,477.1z M945.2,473.8c-0.8-1.5-1.7-2.7-2.5-3.6l2.1-0.9c1,1.5,1.9,3.1,2.7,4.6
			c6.4,0.4,10.7,0.6,12.9,0.6c-0.2,0.8-0.4,1.9-0.5,3.1c-0.1,1.2-0.1,2.2,0,3.1l-2.4-0.2l0.3-4.3l-23.6-1.5l-0.3,4.7l-2.4-0.2
			c0.2-0.9,0.3-2,0.4-3.2c0.1-1.2,0.1-2.3,0-3.3C934.1,473,938.5,473.4,945.2,473.8z M959.7,484.5l-1.7,1.4
			c-0.8-0.8-2.2-1.9-4.2-3.3c-2-1.4-3.7-2.4-5.2-3.2l1.4-1.5C953.9,480.4,957.1,482.5,959.7,484.5z"/>
		<path fill="#323333" d="M978.9,476l16.5,1.5c2.9,0.3,5,0.4,6,0.3l-0.2,2.1c-1-0.3-3-0.5-6-0.8l-17.5-1.6c-1.8,2.3-3.8,4.3-6,6
			c-0.4-0.7-1.1-1.2-2-1.6c1.7-0.8,3.3-2,5-3.8c1.7-1.8,3-3.8,4.1-6.1c0.8,0.5,1.6,0.9,2.4,1.1c0.3,0.1,0.5,0.2,0.4,0.3
			c0,0.1-0.2,0.3-0.5,0.4C980.5,474.1,979.8,474.8,978.9,476z M996.7,487c-0.5,1.7-0.9,3.3-1,4.8s-0.2,2.7-0.1,3.6
			c0.1,0.9,0.2,1.6,0.5,2.2c0.3,0.6,0.5,1.1,0.8,1.7c0.3,0.5,0.6,0.9,0.9,1.2c0.3,0.3,0.5,0.4,0.8,0.5c0.7,0.1,1.2-0.9,1.5-2.8
			c0.7,0.7,1.4,1.2,2.2,1.3c-1.1,2.7-2.4,3.9-3.8,3.8c-0.5,0-1-0.3-1.5-0.6c-0.5-0.4-1.1-1-1.6-1.8c-0.6-0.8-1-1.6-1.2-2.4
			c-0.2-0.8-0.4-1.9-0.5-3.4c-0.1-1.5-0.1-2.8,0-3.9c0.1-1.1,0.2-1.9,0.3-2.5l-14.6-1.3c-2.4-0.2-4.5-0.3-6.4-0.4l0.2-2
			c2.1,0.4,6,0.8,11.7,1.4S994.4,486.9,996.7,487z M997.7,484.3c-2.5-0.4-5.9-0.8-10.1-1.2c-4.2-0.4-7.6-0.6-10.1-0.7l0.2-2
			c2.5,0.4,5.9,0.8,10.1,1.2c4.2,0.4,7.6,0.6,10.1,0.7L997.7,484.3z"/>
		<path fill="#323333" d="M1027.5,481.2l-4-0.5c-4.2-0.5-7.6-0.8-10.1-0.9l0.2-2.1c2.8,0.5,6.2,1,10.1,1.5l9.3,1.1
			c4,0.5,7.4,0.8,10.1,1l-0.2,2.1c-2.6-0.5-5.9-1-10.1-1.5l-3.1-0.4l-0.3,2.9c4.8,0.5,8.3,0.9,10.5,1c-0.2,0.6-0.4,1.4-0.5,2.4
			l-0.8,6.8c-0.1,1-0.1,1.8-0.1,2.4c-2.1-0.4-5.7-1-10.8-1.6c-0.6,2.4-1.2,4-2,4.8c3.4,1.6,6.3,2.7,8.5,3.3c2.2,0.6,4.7,1.1,7.4,1.4
			c-0.7,0.6-1.2,1.3-1.4,2.2c-1.5-0.3-3.1-0.7-4.8-1.2s-3.1-0.9-4.3-1.4c-1.2-0.4-3.5-1.4-6.9-3.1c-1.4,1-3.1,1.7-5.2,2.1
			s-5,0.7-8.6,0.7c-0.2-1-0.6-1.8-1.3-2.4c5.9,0.6,10.2,0.1,13-1.5c-2.1-1.1-4.1-2.6-6.2-4.4l1.3-1.2c2,1.7,4.1,3.2,6.5,4.5
			c0.7-0.7,1.3-2,1.8-4.1c-4.9-0.6-8.5-0.9-10.8-1c0.3-0.9,0.5-1.7,0.6-2.4l0.8-6.8c0.1-0.5,0.1-1.3,0-2.5c2.2,0.5,5.9,1,11.1,1.6
			C1027.4,483.1,1027.5,482.1,1027.5,481.2z M1025.9,493.7c0.2-1.2,0.4-2.4,0.6-3.4l-8.6-1l-0.4,3.4L1025.9,493.7z M1026.7,488.9
			l0.5-3.3l-8.7-1l-0.4,3.3L1026.7,488.9z M1028.6,490.5c-0.1,1-0.3,2.1-0.6,3.4l8.3,1l0.4-3.4L1028.6,490.5z M1029.2,485.8
			c-0.2,1.6-0.3,2.7-0.5,3.3l8.1,1l0.4-3.3L1029.2,485.8z"/>
		<path fill="#323333" d="M1059.6,499.7c-2.1,2.2-4.6,5.2-7.6,9c-0.7-0.6-1.4-1.1-2.2-1.5c3.4-2.8,6-5.8,7.9-9.3
			C1058.3,498.6,1058.9,499.2,1059.6,499.7z M1058.6,493.6l-1.7,1.3c-1.3-1.5-2.9-3-5-4.5l1.4-1.3
			C1055.4,490.7,1057.1,492.1,1058.6,493.6z M1061.5,486.7l-1.6,1.3c-1.6-1.8-3.2-3.3-4.9-4.5l1.4-1.3
			C1058.1,483.6,1059.8,485.1,1061.5,486.7z M1071.9,488c-3.6-0.5-6.4-0.9-8.3-1l0.3-1.8c1.9,0.4,4.6,0.9,8.2,1.5
			c0.2-1.3,0.3-2.3,0.2-3c0.9,0.2,1.7,0.4,2.3,0.5c0.6,0.1,0.9,0.2,0.9,0.3c0,0.1-0.1,0.2-0.3,0.3c-0.4,0.2-0.6,0.6-0.7,1.1
			l-0.2,1.1c3.7,0.6,6.4,0.9,8.3,1l-0.3,1.8c-1.8-0.4-4.6-0.9-8.3-1.5l-0.3,2.3c3.2,0.5,5.6,0.8,7.2,0.9l-0.3,1.7
			c-1.6-0.3-4-0.8-7.2-1.2l-0.3,2.3c4.9,0.7,8.3,1.2,10.2,1.3l-0.3,1.8c-2-0.4-5.7-1-11.1-1.9c-5.4-0.8-9.1-1.3-11.1-1.5l0.3-1.8
			c1.9,0.4,5.1,1,9.8,1.7l0.3-2.3c-2.6-0.4-5-0.7-7.2-0.9l0.3-1.7c2.1,0.4,4.5,0.8,7.1,1.2L1071.9,488z M1064.2,505.8l-0.8,5.3
			l-2.4-0.4c0.5-1.6,0.8-3.1,1-4.4l1-6.7c0.2-1.6,0.3-2.8,0.3-3.6c1.8,0.4,4.5,0.9,8.1,1.4c3.6,0.5,6.4,0.9,8.4,1
			c-0.3,1.2-0.5,2.4-0.7,3.6l-1.2,8.2c-0.2,1.3-0.7,2-1.5,2.2c-0.8,0.2-2.1,0.2-3.8-0.1c0.2-0.8,0-1.5-0.5-2.3
			c0.7,0.2,1.3,0.4,1.7,0.5c1.2,0.2,1.8-0.1,1.9-0.9l0.3-2.1L1064.2,505.8z M1076.2,506.2l0.4-2.4l-11.8-1.8l-0.4,2.4L1076.2,506.2z
			 M1076.8,502.4l0.4-2.6l-11.8-1.8l-0.4,2.6L1076.8,502.4z"/>
		<path fill="#323333" d="M1095.2,506.3c0.4,0.5,0.8,0.9,1.3,1c0.4,0.2,0.6,0.4,0.6,0.6c0,0.3-0.3,0.4-0.6,0.5
			c-0.2,0-0.5,0.2-0.9,0.5c-0.4,0.3-1,0.8-1.8,1.7c-0.8,0.8-1.5,1.6-2.3,2.2c-0.5-0.7-1-1.1-1.6-1.4
			C1091.9,510,1093.6,508.3,1095.2,506.3z M1102.3,500c1.5-1.6,2.8-3.2,3.7-4.7c0.7,0.5,1.4,0.8,1.8,1.1c0.5,0.2,0.7,0.4,0.6,0.6
			c0,0.2-0.2,0.3-0.4,0.4c-0.9,0.3-2.2,1.3-4,3c2.4,0.4,4.5,0.8,6.3,0.9l-0.3,1.8c-1.6-0.5-4.2-1-7.6-1.6l-0.7,3.7
			c3.3,0.6,5.7,0.9,7.3,1l-0.4,2c-1.5-0.5-3.9-1-7.2-1.7l-1.5,8.3c-0.2,1-0.7,1.5-1.5,1.5c-0.8,0-2.2-0.1-4.1-0.4
			c0.1-0.1,0.1-0.3,0.2-0.4c0.1-0.6-0.1-1.3-0.8-2c1.2,0.4,2.2,0.7,3,0.9c0.8,0.1,1.3-0.1,1.4-0.7l1.4-7.6c-2.9-0.5-5.4-0.9-7.3-1
			l0.4-2c1.9,0.6,4.3,1.1,7.2,1.7l0.7-3.7c-3.9-0.7-6.7-1.2-8.4-1.3l0.3-1.8C1094.1,498.4,1097.4,499.1,1102.3,500z M1111,495.9
			c-1.9-0.5-4.7-1.2-8.4-1.8c-3.7-0.7-6.5-1.1-8.5-1.3l0.4-1.9c1.9,0.5,4.8,1.2,8.6,1.9c3.8,0.7,6.6,1.1,8.3,1.2L1111,495.9z
			 M1100.6,498.1l-1.6,1c-0.7-1.5-1.8-2.8-3.1-4.1l1.5-0.8C1098.7,495.5,1099.8,496.8,1100.6,498.1z M1104.7,491.3l-1.6,1.2
			c-1-1.2-2.3-2.3-3.8-3.4l1.3-1.1C1102.2,489,1103.6,490.1,1104.7,491.3z M1113.7,501.5l5,0.9c3.1,0.6,5.2,0.9,6.4,1l-0.3,1.9
			c-1.1-0.4-2.7-0.7-4.9-1.1l-2.1,11.4c-0.3,1.7-0.5,3.4-0.7,5l-2.5-0.5c0.4-1.2,0.8-2.9,1.1-4.9l2.1-11.4l-4.4-0.8
			c-0.9,4.8-2,8.2-3.2,10.1c-1.2,2-3,3.7-5.3,5.3c-0.7-0.6-1.6-1-2.6-1.2c2.5-1.1,4.4-2.7,5.8-4.9c1.4-2.1,2.4-5.1,3.2-9
			c0.7-3.9,1.1-7.2,1.3-9.9c4.3,0.8,8.1,0.6,11.4-0.7c0.3,0.8,0.5,1.4,0.7,1.7c0.2,0.3,0.3,0.5,0.3,0.6c0,0.1-0.2,0.2-0.4,0.1
			l-0.4-0.1c-0.3-0.1-1.4,0-3.2,0.1c-1.8,0.1-3.9,0.2-6.1,0.2L1113.7,501.5z M1106.8,512.9l-1.9,0.8c-0.7-1.7-1.5-3.2-2.5-4.5
			l1.7-0.7C1105.5,510.2,1106.4,511.7,1106.8,512.9z"/>
	</g>
</g>
<g>
</g>
<g>
</g>
<g>
</g>
<g>
</g>
<g>
</g>
<g>
</g>
<g>
</g>
<g>
</g>
<g>
</g>
<g>
</g>
<g>
</g>
<g>
</g>
<g>
</g>
<g>
</g>
<g>
</g>
</svg>
